<?xml version="1.0" encoding="UTF-8"?>
<svg xmlns="http://www.w3.org/2000/svg" xmlns:xlink="http://www.w3.org/1999/xlink" version="1.2" >
<font id="EurobankSans-Black">
<font-face  font-family="Eurobank Sans" units-per-em="1000" ascent="750" descent="-250" font-style="normal" font-weight="900" font-stretch="normal" cap-height="659" x-height="446" underline-position="-80" underline-thickness="80" />
<missing-glyph  horiz-adv-x="460" d="M5 699 L454 699 L454 0 L5 0 L5 699 Z M114 72 L344 72 L229 278 L114 72 Z M113 626 Q142 575 171 523.5 Q200 472 229 420 Q258 472 286.5 523.5 Q315 575 344 626 L113 626 Z M381 154 L381 543 L273 349 L381 154 Z M76 544 L76 154 L186 349 L76 544 Z " />
<glyph glyph-name="NULL" d="" />
<glyph glyph-name="nonmarkingreturn" unicode="&#xd;" horiz-adv-x="240" d="" />
<glyph glyph-name="space" unicode="&#x20;" horiz-adv-x="240" d="" />
<glyph glyph-name="percent" unicode="&#x25;" horiz-adv-x="841" d="M234 -31 L131 -31 L594 685 L697 685 L234 -31 Z M213 688 Q254 688 287 675 Q320 662 343 639 Q366 616 378 585.5 Q390 555 390 521 Q390 487 377.5 456.5 Q365 426 342 403 Q319 380 286 366.5 Q253 353 213 353 Q171 353 138 365.5 Q105 378 82 400.5 Q59 423 47 454 Q35 485 35 521 Q35 555 47.5 585.5 Q60 616 83 639 Q106 662 139 675 Q172 688 213 688 Z M214 583 Q188 583 173 564.5 Q158 546 158 521 Q158 492 173 474.5 Q188 457 214 457 Q239 457 254.5 474.5 Q270 492 270 521 Q270 547 254.5 565 Q239 583 214 583 Z M623 322 Q664 322 697 308.5 Q730 295 753 272.5 Q776 250 788 219.5 Q800 189 800 155 Q800 120 787.5 89.5 Q775 59 752 36.5 Q729 14 696 0.5 Q663 -13 623 -13 Q581 -13 548 -0.5 Q515 12 492 34.5 Q469 57 457 87.5 Q445 118 445 154 Q445 188 457.5 219 Q470 250 493 272.5 Q516 295 549 308.5 Q582 322 623 322 Z M624 217 Q598 217 583 198 Q568 179 568 155 Q568 126 583 108 Q598 90 624 90 Q650 90 665.5 108 Q681 126 681 155 Q681 181 665 199 Q649 217 624 217 Z " />
<glyph glyph-name="ampersand" unicode="&#x26;" horiz-adv-x="730" d="M641 329 Q637 269 622 219.5 Q607 170 582 129 L694 0 L515 0 L487 32 Q409 -17 306 -17 Q261 -17 217.5 -7 Q174 3 140.5 25.5 Q107 48 86 83 Q65 118 65 169 Q65 203 76.5 232 Q88 261 106.5 285 Q125 309 149.5 329.5 Q174 350 200 368 Q174 400 157.5 435.5 Q141 471 141 513 Q141 545 152.5 575 Q164 605 186.5 628.5 Q209 652 242 666 Q275 680 318 680 Q358 680 390 666.5 Q422 653 444.5 631 Q467 609 479 581 Q491 553 491 524 Q491 494 483 469.5 Q475 445 461 424 Q447 403 428.5 385.5 Q410 368 389 353 L484 243 Q501 287 507 346 L641 329 Z M314 116 Q334 116 355 120.5 Q376 125 397 137 L279 275 Q255 255 239.5 233.5 Q224 212 224 185 Q224 156 245 136 Q266 116 314 116 Z M283 521 Q283 501 290 482.5 Q297 464 308 448 Q327 465 338 485 Q349 505 349 528 Q349 544 339.5 551.5 Q330 559 318 559 Q302 559 292.5 548.5 Q283 538 283 521 Z " />
<glyph glyph-name="quotesingle" unicode="&#x27;" horiz-adv-x="229" d="M52 433 L52 684 L177 684 L177 433 L52 433 Z " />
<glyph glyph-name="parenleft" unicode="&#x28;" horiz-adv-x="326" d="M319 695 Q260 600 229.5 500 Q199 400 199 297 Q199 197 228.5 98.5 Q258 0 320 -94 Q295 -106 271 -118 Q247 -130 222 -141 Q180 -94 148.5 -40.5 Q117 13 95.5 70 Q74 127 63.5 184.5 Q53 242 53 296 Q53 351 64 409.5 Q75 468 96.5 524.5 Q118 581 149.5 634.5 Q181 688 223 735 L319 695 Z " />
<glyph glyph-name="parenright" unicode="&#x29;" horiz-adv-x="326" d="M114 735 Q156 688 187.5 634.5 Q219 581 241 524.5 Q263 468 274 409.5 Q285 351 285 296 Q285 242 274 184.5 Q263 127 242 70 Q221 13 189 -40.5 Q157 -94 115 -141 Q90 -130 66 -118 Q42 -106 18 -94 Q79 0 108.5 98.5 Q138 197 138 297 Q138 399 107.5 499.5 Q77 600 18 695 L114 735 Z " />
<glyph glyph-name="asterisk" unicode="&#x2a;" horiz-adv-x="459" d="M364 400 L286 344 L229 443 L171 343 L93 400 L166 487 L57 516 L86 604 L192 558 L182 674 L276 674 L269 559 L370 604 L400 516 L290 487 L364 400 Z " />
<glyph glyph-name="plus" unicode="&#x2b;" horiz-adv-x="588" d="M345 75 L242 75 L242 240 L81 240 L81 339 L242 339 L242 502 L345 502 L345 339 L505 339 L505 240 L345 240 L345 75 Z " />
<glyph glyph-name="comma" unicode="&#x2c;" horiz-adv-x="273" d="M48 71 Q48 89 54.5 105 Q61 121 72.5 133 Q84 145 99.5 151.5 Q115 158 133 158 Q179 158 200.5 128 Q222 98 222 55 Q222 22 211.5 -11.5 Q201 -45 181 -73.5 Q161 -102 132.5 -123 Q104 -144 67 -152 L40 -96 Q76 -84 98.5 -60 Q121 -36 130 -6 Q127 -7 122 -7 Q92 -7 70 13 Q48 33 48 71 Z " />
<glyph glyph-name="hyphen" unicode="&#x2d;" horiz-adv-x="373" d="M50 301 L323 301 L323 193 L50 193 L50 301 Z " />
<glyph glyph-name="period" unicode="&#x2e;" horiz-adv-x="283" d="M223 73 Q223 56 216 41 Q209 26 197.5 14.5 Q186 3 170.5 -4 Q155 -11 139 -11 Q121 -11 105.5 -4 Q90 3 78.5 14.5 Q67 26 60 41 Q53 56 53 73 Q53 91 60 107 Q67 123 78.5 134.5 Q90 146 105.5 153 Q121 160 139 160 Q156 160 171 153 Q186 146 197.5 134.5 Q209 123 216 107 Q223 91 223 73 Z " />
<glyph glyph-name="slash" unicode="&#x2f;" horiz-adv-x="367" d="M-8 -92 Q57 102 122 293.5 Q187 485 253 680 L379 680 Q313 485 247.5 293.5 Q182 102 115 -92 L-8 -92 Z " />
<glyph glyph-name="zero" unicode="0" horiz-adv-x="588" d="M295 672 Q374 672 426.5 642 Q479 612 510.5 563.5 Q542 515 555 454 Q568 393 568 331 Q568 268 554 207 Q540 146 507.5 97.5 Q475 49 422.5 19 Q370 -11 293 -11 Q215 -11 162.5 17.5 Q110 46 78.5 93.5 Q47 141 33.5 203 Q20 265 20 331 Q20 394 33.5 455 Q47 516 79.5 564 Q112 612 164.5 642 Q217 672 295 672 Z M295 531 Q265 531 246 513 Q227 495 216.5 466.5 Q206 438 202 402.5 Q198 367 198 333 Q198 295 202 258.5 Q206 222 216.5 193.5 Q227 165 246 147.5 Q265 130 295 130 Q324 130 342 147.5 Q360 165 370.5 193.5 Q381 222 385 258.5 Q389 295 389 333 Q389 370 385 405.5 Q381 441 370.5 469 Q360 497 342 514 Q324 531 295 531 Z " />
<glyph glyph-name="one" unicode="1" horiz-adv-x="448" d="M52 549 Q115 555 153 578 Q191 601 203 659 L343 659 L343 0 L159 0 L159 424 L52 424 L52 549 Z " />
<glyph glyph-name="two" unicode="2" horiz-adv-x="588" d="M49 543 Q55 552 72 574.5 Q89 597 119.5 620 Q150 643 195.5 660.5 Q241 678 303 678 Q353 678 396 665.5 Q439 653 471 627.5 Q503 602 521 564 Q539 526 539 476 Q539 444 528.5 416.5 Q518 389 500.5 365 Q483 341 460.5 320.5 Q438 300 413 283 Q390 267 362.5 250.5 Q335 234 311 216.5 Q287 199 268.5 180.5 Q250 162 245 141 L541 141 L541 0 L39 0 L39 23 Q39 84 53 129.5 Q67 175 91.5 210 Q116 245 149 272.5 Q182 300 219 325 Q245 343 271 358 Q297 373 317.5 389.5 Q338 406 351 425 Q364 444 364 469 Q364 493 346.5 513.5 Q329 534 286 534 Q265 534 245.5 527 Q226 520 209.5 508 Q193 496 179 481.5 Q165 467 155 452 L49 543 Z " />
<glyph glyph-name="three" unicode="3" horiz-adv-x="569" d="M270 514 Q270 515 269.5 515.5 Q269 516 269 517 L51 517 L51 659 L504 659 L504 541 L355 410 Q356 409 356 407 Q378 405 406.5 393.5 Q435 382 460.5 359.5 Q486 337 503 302 Q520 267 520 218 Q520 168 500.5 126 Q481 84 444 53.5 Q407 23 355 6 Q303 -11 237 -11 Q192 -11 156 -4 Q120 3 91 13.5 Q62 24 40 35.5 Q18 47 2 57 L58 183 Q96 160 138 145 Q180 130 223 130 Q284 130 318.5 156.5 Q353 183 353 231 Q353 255 342.5 272 Q332 289 315.5 299.5 Q299 310 278 315 Q257 320 235 320 Q218 320 203 318 Q188 316 174 314 L135 395 L270 514 Z " />
<glyph glyph-name="four" unicode="4" horiz-adv-x="588" d="M20 251 L345 659 L505 659 L505 263 L574 263 L574 136 L505 136 L505 0 L331 0 L331 136 L20 136 L20 251 Z M331 263 L331 411 L211 263 L331 263 Z " />
<glyph glyph-name="five" unicode="5" horiz-adv-x="588" d="M83 178 Q111 162 151.5 146 Q192 130 239 130 Q297 130 332.5 154.5 Q368 179 368 223 Q368 248 357.5 265.5 Q347 283 330.5 293.5 Q314 304 293 308.5 Q272 313 250 313 Q225 313 201 310 Q177 307 155 300 L78 361 L116 659 L502 659 L502 520 L238 520 L225 422 Q243 427 262 428.5 Q281 430 302 430 Q348 430 390.5 417 Q433 404 465 378 Q497 352 516.5 311.5 Q536 271 536 217 Q536 168 516.5 126 Q497 84 460.5 53.5 Q424 23 372.5 6 Q321 -11 257 -11 Q191 -11 135 4.5 Q79 20 25 53 L83 178 Z " />
<glyph glyph-name="six" unicode="6" horiz-adv-x="588" d="M443 659 L287 419 Q287 417 287.5 416.5 Q288 416 288 414 Q316 420 344 420 Q394 420 433.5 404 Q473 388 500.5 360.5 Q528 333 542.5 295 Q557 257 557 213 Q557 163 538.5 122 Q520 81 485.5 51.5 Q451 22 403 6 Q355 -10 296 -10 Q239 -10 190.5 5 Q142 20 106.5 48.5 Q71 77 51.5 119 Q32 161 32 216 Q32 251 40.5 282.5 Q49 314 62 343.5 Q75 373 91 400 Q107 427 123 452 L252 659 L443 659 Z M296 307 Q256 307 230.5 281.5 Q205 256 205 219 Q205 180 228.5 154.5 Q252 129 296 129 Q338 129 362.5 154 Q387 179 387 219 Q387 254 362 280.5 Q337 307 296 307 Z " />
<glyph glyph-name="seven" unicode="7" horiz-adv-x="548" d="M56 0 L328 517 L32 517 L32 659 L525 659 L525 542 L242 0 L56 0 Z " />
<glyph glyph-name="eight" unicode="8" horiz-adv-x="588" d="M374 464 Q374 496 353 516 Q332 536 298 536 Q266 536 245 515.5 Q224 495 224 463 Q224 432 244.5 412.5 Q265 393 299 393 Q332 393 353 413 Q374 433 374 464 Z M387 214 Q387 251 364 276.5 Q341 302 297 302 Q255 302 231 276.5 Q207 251 207 214 Q207 179 231 153 Q255 127 297 127 Q340 127 363.5 153 Q387 179 387 214 Z M462 349 Q513 324 535 282.5 Q557 241 557 194 Q557 149 539 111.5 Q521 74 487.5 47 Q454 20 406 5 Q358 -10 297 -10 Q234 -10 185 4.5 Q136 19 102.5 46 Q69 73 51 110 Q33 147 33 192 Q33 239 57 281 Q81 323 126 346 L127 350 Q107 362 93.5 378 Q80 394 72 411 Q64 428 61 446 Q58 464 58 479 Q58 523 76.5 558.5 Q95 594 127 619.5 Q159 645 203 658.5 Q247 672 297 672 Q349 672 392.5 658 Q436 644 467 619 Q498 594 515 558.5 Q532 523 532 481 Q532 446 514.5 410.5 Q497 375 462 354 L462 349 Z " />
<glyph glyph-name="nine" unicode="9" horiz-adv-x="588" d="M146 0 L304 242 Q302 246 302 247 Q273 241 246 241 Q196 241 156.5 257 Q117 273 90 300.5 Q63 328 48.5 366 Q34 404 34 448 Q34 498 52.5 539 Q71 580 105 609.5 Q139 639 187.5 655.5 Q236 672 295 672 Q352 672 400 657 Q448 642 483.5 613 Q519 584 538.5 542 Q558 500 558 445 Q558 387 532 326 Q506 265 461 200 L337 0 L146 0 Z M295 354 Q335 354 360 379.5 Q385 405 385 442 Q385 481 361.5 507 Q338 533 295 533 Q253 533 228.5 507.5 Q204 482 204 442 Q204 407 229 380.5 Q254 354 295 354 Z " />
<glyph glyph-name="colon" unicode="&#x3a;" horiz-adv-x="290" d="M225 72 Q225 38 200.5 13.5 Q176 -11 142 -11 Q124 -11 108.5 -4.5 Q93 2 81.5 13.5 Q70 25 63 40 Q56 55 56 72 Q56 90 63 105.5 Q70 121 81.5 133 Q93 145 108.5 151.5 Q124 158 142 158 Q176 158 200.5 133 Q225 108 225 72 Z M225 341 Q225 306 200.5 281.5 Q176 257 142 257 Q124 257 108.5 263.5 Q93 270 81.5 281.5 Q70 293 63.5 308.5 Q57 324 57 341 Q57 358 63.5 373.5 Q70 389 81.5 400.5 Q93 412 108.5 418.5 Q124 425 142 425 Q176 425 200.5 400.5 Q225 376 225 341 Z " />
<glyph glyph-name="less" unicode="&#x3c;" horiz-adv-x="588" d="M81 323 L499 537 L499 423 L223 287 L499 149 L499 38 L81 245 L81 323 Z " />
<glyph glyph-name="equal" unicode="&#x3d;" horiz-adv-x="588" d="M86 331 L86 428 L501 428 L501 331 L86 331 Z M86 155 L86 251 L501 251 L501 155 L86 155 Z " />
<glyph glyph-name="greater" unicode="&#x3e;" horiz-adv-x="588" d="M499 245 L81 38 L81 149 L357 287 L81 423 L81 537 L499 323 L499 245 Z " />
<glyph glyph-name="question" unicode="&#x3f;" horiz-adv-x="537" d="M298 486 Q298 513 277.5 526 Q257 539 227 539 Q195 539 163.5 525 Q132 511 107 495 L42 618 Q95 658 153.5 675 Q212 692 266 692 Q323 692 365.5 676.5 Q408 661 436 636 Q464 611 478 578.5 Q492 546 492 513 Q492 477 477 447.5 Q462 418 440 392.5 Q418 367 392 345 Q366 323 344 303.5 Q322 284 307 265.5 Q292 247 292 228 Q292 218 297 205 L162 182 Q143 220 143 249 Q143 289 167 320 Q191 351 220.5 378 Q250 405 274 430.5 Q298 456 298 486 Z M326 68 Q326 33 301.5 9 Q277 -15 243 -15 Q201 -15 178.5 9 Q156 33 156 68 Q156 104 180.5 128.5 Q205 153 243 153 Q280 153 303 128.5 Q326 104 326 68 Z " />
<glyph glyph-name="at" unicode="&#x40;" horiz-adv-x="943" d="M701 -33 Q592 -100 458 -100 Q368 -100 295.5 -72.5 Q223 -45 172 3.5 Q121 52 93.5 118 Q66 184 66 261 Q66 348 100.5 424.5 Q135 501 195 558 Q255 615 335 648 Q415 681 505 681 Q589 681 657.5 655 Q726 629 774 584 Q822 539 848 478.5 Q874 418 874 349 Q874 294 858.5 246.5 Q843 199 816 164 Q789 129 752 109 Q715 89 672 89 Q631 89 601.5 105 Q572 121 558 147 Q509 90 426 90 Q383 90 352 105 Q321 120 300.5 144 Q280 168 270 199 Q260 230 260 262 Q260 309 277 351.5 Q294 394 324 426.5 Q354 459 394.5 478 Q435 497 482 497 Q512 497 534 487 Q556 477 570 466 L573 490 L682 490 L646 240 Q645 235 644.5 230.5 Q644 226 644 224 Q644 209 651.5 197.5 Q659 186 679 186 Q695 186 709.5 198.5 Q724 211 735.5 232.5 Q747 254 754 283.5 Q761 313 761 346 Q761 394 742.5 436.5 Q724 479 690.5 510 Q657 541 609 559 Q561 577 503 577 Q435 577 376 552.5 Q317 528 273 486 Q229 444 203.5 387 Q178 330 178 266 Q178 209 198.5 161 Q219 113 256 77.5 Q293 42 345.5 22.5 Q398 3 461 3 Q520 3 569.5 20 Q619 37 657 60 L701 -33 Z M479 388 Q457 388 438.5 379 Q420 370 406.5 354.5 Q393 339 385.5 318.5 Q378 298 378 276 Q378 244 393.5 222 Q409 200 441 200 Q465 200 483.5 210 Q502 220 515 236.5 Q528 253 534.5 274 Q541 295 541 318 Q541 347 524.5 367.5 Q508 388 479 388 Z " />
<glyph glyph-name="A" unicode="A" horiz-adv-x="688" d="M436 659 L681 0 L493 0 L463 90 L219 90 L189 0 L7 0 L257 659 L436 659 Z M267 235 L416 235 L345 453 L341 453 L267 235 Z " />
<glyph glyph-name="B" unicode="B" horiz-adv-x="637" d="M489 355 Q546 330 571.5 286.5 Q597 243 597 195 Q597 157 582 121.5 Q567 86 540 59 Q513 32 474 16 Q435 0 387 0 L59 0 L59 660 L365 660 Q410 660 445.5 647 Q481 634 505.5 611 Q530 588 543.5 557.5 Q557 527 557 492 Q557 456 540.5 420.5 Q524 385 489 359 L489 355 Z M409 207 Q409 235 389 250.5 Q369 266 346 266 L253 266 L253 148 L351 148 Q368 148 379 153.5 Q390 159 397 168 Q404 177 406.5 187.5 Q409 198 409 207 Z M252 408 L317 408 Q336 408 354 419 Q372 430 372 459 Q372 483 356.5 497.5 Q341 512 316 512 L252 512 L252 408 Z " />
<glyph glyph-name="C" unicode="C" horiz-adv-x="652" d="M642 74 Q594 35 531 10.5 Q468 -14 392 -14 Q308 -14 242.5 12 Q177 38 132 84 Q87 130 63.5 192.5 Q40 255 40 327 Q40 396 64.5 458.5 Q89 521 134.5 569 Q180 617 246 645 Q312 673 396 673 Q438 673 472.5 666 Q507 659 535 647.5 Q563 636 584.5 622.5 Q606 609 623 597 L535 462 Q508 484 477 495 Q446 506 408 506 Q373 506 342 493.5 Q311 481 287.5 457.5 Q264 434 250.5 401 Q237 368 237 326 Q237 285 250 253 Q263 221 285 198.5 Q307 176 337 164 Q367 152 401 152 Q438 152 476 163 Q514 174 556 209 L642 74 Z " />
<glyph glyph-name="D" unicode="D" horiz-adv-x="696" d="M463 333 Q463 418 423.5 465 Q384 512 306 512 L253 512 L253 148 L283 148 Q324 148 357 157.5 Q390 167 413.5 188.5 Q437 210 450 245.5 Q463 281 463 333 Z M58 0 L58 659 L301 659 Q391 659 457.5 633 Q524 607 568 562.5 Q612 518 633.5 458.5 Q655 399 655 332 Q655 266 634 206 Q613 146 571 100.5 Q529 55 465.5 27.5 Q402 0 317 0 L58 0 Z " />
<glyph glyph-name="E" unicode="E" horiz-adv-x="527" d="M487 0 L58 0 L58 659 L480 659 L480 512 L254 512 L254 410 L474 410 L474 269 L254 269 L254 148 L487 148 L487 0 Z " />
<glyph glyph-name="F" unicode="F" horiz-adv-x="505" d="M254 0 L58 0 L58 659 L480 659 L480 512 L254 512 L254 382 L474 382 L474 241 L254 241 L254 0 Z " />
<glyph glyph-name="G" unicode="G" horiz-adv-x="774" d="M425 391 L739 391 L739 320 Q739 251 716.5 190 Q694 129 650.5 84 Q607 39 544 12.5 Q481 -14 401 -14 Q318 -14 251 12.5 Q184 39 137 85.5 Q90 132 64.5 194.5 Q39 257 39 330 Q39 391 61.5 452 Q84 513 128.5 562 Q173 611 240 642 Q307 673 396 673 Q447 673 491 662.5 Q535 652 571 634 Q607 616 635.5 592.5 Q664 569 685 543 L554 437 Q534 466 497.5 486 Q461 506 410 506 Q372 506 339.5 493 Q307 480 284 456.5 Q261 433 248 400.5 Q235 368 235 330 Q235 290 247 257 Q259 224 281.5 201 Q304 178 336 165 Q368 152 407 152 Q466 152 504.5 176.5 Q543 201 557 250 L425 250 L425 391 Z " />
<glyph glyph-name="H" unicode="H" horiz-adv-x="681" d="M426 0 L426 260 L254 260 L254 0 L58 0 L58 659 L254 659 L254 409 L426 409 L426 659 L623 659 L623 0 L426 0 Z " />
<glyph glyph-name="I" unicode="I" horiz-adv-x="319" d="M61 0 L61 659 L257 659 L257 0 L61 0 Z " />
<glyph glyph-name="J" unicode="J" horiz-adv-x="574" d="M191 270 Q192 236 198 213.5 Q204 191 213.5 177.5 Q223 164 235 158 Q247 152 262 152 Q290 152 304.5 169 Q319 186 319 215 L319 659 L516 659 L516 239 Q516 189 503.5 143.5 Q491 98 462 63.5 Q433 29 385.5 8.5 Q338 -12 267 -12 Q201 -12 153.5 6.5 Q106 25 75 58 Q44 91 28.5 136 Q13 181 10 234 L191 270 Z " />
<glyph glyph-name="K" unicode="K" horiz-adv-x="678" d="M255 361 L452 659 L661 659 L438 341 L672 0 L456 0 L255 320 L255 0 L58 0 L58 659 L255 659 L255 361 Z " />
<glyph glyph-name="L" unicode="L" horiz-adv-x="507" d="M255 659 L255 148 L497 148 L497 0 L59 0 L59 659 L255 659 Z " />
<glyph glyph-name="M" unicode="M" horiz-adv-x="815" d="M366 85 L250 303 Q249 302 247 302 L247 0 L58 0 L58 659 L247 659 L409 357 L565 659 L756 659 L756 0 L566 0 L566 299 L563 299 L449 85 L366 85 Z " />
<glyph glyph-name="N" unicode="N" horiz-adv-x="721" d="M227 659 L462 336 L466 336 L466 659 L662 659 L662 0 L497 0 L258 328 L254 328 L254 0 L58 0 L58 659 L227 659 Z " />
<glyph glyph-name="O" unicode="O" horiz-adv-x="805" d="M401 -12 Q318 -12 251 14 Q184 40 137 86 Q90 132 64.5 194.5 Q39 257 39 330 Q39 402 66 464.5 Q93 527 141 573.5 Q189 620 256 646.5 Q323 673 403 673 Q484 673 551 646.5 Q618 620 665 573.5 Q712 527 738 464.5 Q764 402 764 330 Q764 257 737.5 194.5 Q711 132 663 86 Q615 40 548 14 Q481 -12 401 -12 Z M404 513 Q366 513 334.5 498.5 Q303 484 281 459.5 Q259 435 247 401.5 Q235 368 235 330 Q235 290 247 255.5 Q259 221 281 196 Q303 171 334.5 157 Q366 143 404 143 Q443 143 473.5 157.5 Q504 172 526 197 Q548 222 559.5 256.5 Q571 291 571 330 Q571 368 559.5 401.5 Q548 435 526.5 459.5 Q505 484 474 498.5 Q443 513 404 513 Z " />
<glyph glyph-name="P" unicode="P" horiz-adv-x="604" d="M58 659 L329 659 Q396 659 445 637.5 Q494 616 525.5 582 Q557 548 572.5 505.5 Q588 463 588 420 Q588 375 571.5 331.5 Q555 288 523.5 254.5 Q492 221 446 200.5 Q400 180 341 180 L254 180 L254 0 L58 0 L58 659 Z M253 511 L253 327 L303 327 Q327 327 344 334.5 Q361 342 372.5 355 Q384 368 389.5 384 Q395 400 395 417 Q395 433 389.5 450 Q384 467 373 480.5 Q362 494 344 502.5 Q326 511 302 511 L253 511 Z " />
<glyph glyph-name="Q" unicode="Q" horiz-adv-x="805" d="M401 -12 Q318 -12 251 14 Q184 40 137 86 Q90 132 64.5 194.5 Q39 257 39 330 Q39 402 66 464.5 Q93 527 141 573.5 Q189 620 256 646.5 Q323 673 403 673 Q484 673 551 646.5 Q618 620 665 573.5 Q712 527 738 464.5 Q764 402 764 330 Q764 268 744.5 214 Q725 160 690 116 L749 64 L664 -31 L591 34 Q550 12 502.5 0 Q455 -12 401 -12 Z M404 513 Q366 513 334.5 498.5 Q303 484 281 459.5 Q259 435 247 401.5 Q235 368 235 330 Q235 290 247 255.5 Q259 221 281 196 Q303 171 334.5 157 Q366 143 404 143 Q434 143 460 152 L419 190 L502 283 L552 238 Q571 281 571 330 Q571 368 559.5 401.5 Q548 435 526.5 459.5 Q505 484 474 498.5 Q443 513 404 513 Z " />
<glyph glyph-name="R" unicode="R" horiz-adv-x="641" d="M326 209 L254 209 L254 0 L58 0 L58 659 L333 659 Q400 659 449 640 Q498 621 530 589.5 Q562 558 577.5 518 Q593 478 593 435 Q593 379 567 330 Q541 281 496 252 L631 0 L425 0 L326 209 Z M402 433 Q402 464 380.5 488 Q359 512 311 512 L253 512 L253 354 L314 354 Q338 354 354.5 361 Q371 368 381.5 379 Q392 390 397 404.5 Q402 419 402 433 Z " />
<glyph glyph-name="S" unicode="S" horiz-adv-x="579" d="M443 468 Q401 494 365 506.5 Q329 519 292 519 Q263 519 248 505.5 Q233 492 233 475 Q233 457 247.5 444 Q262 431 305 419 Q363 403 408 385.5 Q453 368 484 343.5 Q515 319 531 284 Q547 249 547 198 Q547 155 529.5 116.5 Q512 78 478.5 49 Q445 20 396 3 Q347 -14 284 -14 Q213 -14 139.5 9.5 Q66 33 2 95 L92 223 Q108 208 130 193.5 Q152 179 176.5 167 Q201 155 227 147.5 Q253 140 278 140 Q319 140 338.5 155 Q358 170 358 193 Q358 208 350.5 218 Q343 228 330 235.5 Q317 243 300 248.5 Q283 254 264 259 Q222 271 181.5 287.5 Q141 304 110 329 Q79 354 60 388 Q41 422 41 469 Q41 513 57.5 551 Q74 589 105 616.5 Q136 644 181.5 660 Q227 676 284 676 Q328 676 365 668.5 Q402 661 432.5 649 Q463 637 487 622 Q511 607 530 592 L443 468 Z " />
<glyph glyph-name="T" unicode="T" horiz-adv-x="578" d="M386 512 L386 0 L190 0 L190 512 L11 512 L11 660 L566 660 L566 512 L386 512 Z " />
<glyph glyph-name="U" unicode="U" horiz-adv-x="714" d="M459 659 L655 659 L655 274 Q655 212 637 160 Q619 108 582 69.5 Q545 31 489 9.5 Q433 -12 357 -12 Q278 -12 221.5 9 Q165 30 128.5 67.5 Q92 105 75 156 Q58 207 58 268 L58 659 L255 659 L255 266 Q255 244 261 222.5 Q267 201 280 184.5 Q293 168 312 157.5 Q331 147 358 147 Q384 147 403 157 Q422 167 434.5 183 Q447 199 453 219 Q459 239 459 260 L459 659 Z " />
<glyph glyph-name="V" unicode="V" horiz-adv-x="678" d="M247 0 L6 659 L205 659 L337 247 L342 247 L474 659 L671 659 L432 0 L247 0 Z " />
<glyph glyph-name="W" unicode="W" horiz-adv-x="998" d="M692 309 L797 659 L991 659 Q940 493 889 329.5 Q838 166 786 0 L600 0 L498 365 L396 0 L211 0 Q159 166 108 329.5 Q57 493 6 659 L202 659 L307 309 L311 309 L410 659 L589 659 L689 309 L692 309 Z " />
<glyph glyph-name="X" unicode="X" horiz-adv-x="697" d="M460 337 L690 0 L465 0 L348 200 L231 0 L6 0 Q63 85 120 168.5 Q177 252 235 337 Q180 418 125.5 498 Q71 578 17 659 L242 659 L348 474 L454 659 L679 659 L460 337 Z " />
<glyph glyph-name="Y" unicode="Y" horiz-adv-x="648" d="M331 404 Q341 434 352.5 462.5 Q364 491 375 518 L431 659 L641 659 L422 244 L422 0 L226 0 L226 244 L6 659 L217 659 Q244 595 270.5 536 Q297 477 327 404 L331 404 Z " />
<glyph glyph-name="Z" unicode="Z" horiz-adv-x="584" d="M538 520 L259 147 L553 147 L553 0 L34 0 L34 139 L316 512 L46 512 L46 659 L538 659 L538 520 Z " />
<glyph glyph-name="bracketleft" unicode="&#x5b;" horiz-adv-x="306" d="M57 724 L273 724 L273 619 L204 619 L204 -34 L273 -34 L273 -133 L57 -133 L57 724 Z " />
<glyph glyph-name="backslash" unicode="&#x5c;" horiz-adv-x="367" d="M254 -92 Q188 102 122.5 293.5 Q57 485 -8 680 L116 680 L379 -92 L254 -92 Z " />
<glyph glyph-name="bracketright" unicode="&#x5d;" horiz-adv-x="306" d="M254 -133 L39 -133 L39 -34 L107 -34 L107 619 L39 619 L39 724 L254 724 L254 -133 Z " />
<glyph glyph-name="asciicircum" unicode="&#x5e;" horiz-adv-x="521" d="M297 600 L494 304 L366 304 L256 479 L145 304 L18 304 L214 600 L297 600 Z " />
<glyph glyph-name="underscore" unicode="&#x5f;" horiz-adv-x="488" d="M1 -63 L487 -63 L487 -150 L1 -150 L1 -63 Z " />
<glyph glyph-name="grave" unicode="&#x60;" horiz-adv-x="527" d="M248 521 L118 658 L269 658 L349 521 L248 521 Z " />
<glyph glyph-name="a" unicode="a" horiz-adv-x="603" d="M388 36 Q329 -9 247 -9 Q195 -9 154 7 Q113 23 85 52.5 Q57 82 42 124 Q27 166 27 217 Q27 266 42.5 310 Q58 354 88.5 387.5 Q119 421 163 440.5 Q207 460 264 460 Q299 460 333.5 449.5 Q368 439 394 416 L396 418 L396 447 L554 447 L554 0 L391 0 L391 34 L388 36 Z M289 321 Q269 321 253 313.5 Q237 306 226 293 Q215 280 209 262.5 Q203 245 203 226 Q203 181 225 154 Q247 127 289 127 Q330 127 353 155 Q376 183 376 226 Q376 267 353 294 Q330 321 289 321 Z " />
<glyph glyph-name="b" unicode="b" horiz-adv-x="594" d="M198 30 L198 0 L45 0 L45 659 L215 659 L215 420 Q216 419 219 419 Q245 442 278.5 451 Q312 460 341 460 Q393 460 434.5 443 Q476 426 505.5 395 Q535 364 551 320.5 Q567 277 567 225 Q567 175 551 132.5 Q535 90 505 58 Q475 26 431 8 Q387 -10 332 -10 Q307 -10 270 -2 Q233 6 201 31 L198 30 Z M225 225 Q225 180 248 153.5 Q271 127 311 127 Q351 127 374.5 154 Q398 181 398 225 Q398 244 392 261.5 Q386 279 375 292.5 Q364 306 348 314 Q332 322 312 322 Q290 322 274 313.5 Q258 305 247 291.5 Q236 278 230.5 260.5 Q225 243 225 225 Z " />
<glyph glyph-name="c" unicode="c" horiz-adv-x="474" d="M281 461 Q337 461 378.5 445.5 Q420 430 452 406 L375 289 Q337 316 296 316 Q253 316 228 289.5 Q203 263 203 225 Q203 183 230 161 Q257 139 294 139 Q348 139 394 176 L467 55 Q455 44 436 32.5 Q417 21 393 11 Q369 1 339.5 -5.5 Q310 -12 276 -12 Q214 -12 167.5 5.5 Q121 23 89.5 53.5 Q58 84 42.5 126 Q27 168 27 218 Q27 273 45.5 318 Q64 363 98 395 Q132 427 178.5 444 Q225 461 281 461 Z " />
<glyph glyph-name="d" unicode="d" horiz-adv-x="596" d="M372 226 Q372 265 350 294 Q328 323 284 323 Q246 323 222.5 294.5 Q199 266 199 224 Q199 179 222 153 Q245 127 285 127 Q323 127 347.5 155 Q372 183 372 226 Z M385 34 Q354 8 316 -1 Q278 -10 246 -10 Q192 -10 151 7 Q110 24 82.5 54 Q55 84 41 125.5 Q27 167 27 216 Q27 271 44 316 Q61 361 91.5 393 Q122 425 163.5 442.5 Q205 460 255 460 Q281 460 313 453.5 Q345 447 374 426 L379 429 Q379 464 379 491.5 Q379 519 379.5 544.5 Q380 570 380 597 Q380 624 380 659 L550 659 Q550 570 550 489.5 Q550 409 550.5 329.5 Q551 250 551 169.5 Q551 89 551 0 L387 0 L387 33 L385 34 Z " />
<glyph glyph-name="e" unicode="e" horiz-adv-x="523" d="M264 463 Q371 463 433 401.5 Q495 340 495 226 L495 200 L200 200 Q202 180 211 166 Q220 152 233 143 Q246 134 262.5 130 Q279 126 297 126 Q327 126 352.5 139 Q378 152 398 175 L484 69 Q472 55 452.5 41 Q433 27 407.5 15 Q382 3 350.5 -4.5 Q319 -12 283 -12 Q217 -12 168.5 7.5 Q120 27 88.5 60 Q57 93 42 136 Q27 179 27 226 Q27 275 43.5 318 Q60 361 90.5 393 Q121 425 165 444 Q209 463 264 463 Z M271 340 Q243 340 225.5 319.5 Q208 299 203 273 L337 273 Q332 304 316 322 Q300 340 271 340 Z " />
<glyph glyph-name="f" unicode="f" horiz-adv-x="360" d="M353 528 Q345 530 331.5 530.5 Q318 531 311 531 Q288 531 275.5 526 Q263 521 257 512 Q251 503 250 491 Q249 479 249 465 L249 446 L353 446 L353 317 L249 317 L249 0 L75 0 L75 317 L5 317 L5 446 L75 446 L75 486 Q75 536 88.5 571 Q102 606 127 628 Q152 650 188.5 660 Q225 670 270 670 Q289 670 312.5 668.5 Q336 667 353 664 L353 528 Z " />
<glyph glyph-name="g" unicode="g" horiz-adv-x="602" d="M396 420 L396 447 L555 447 L555 67 Q555 13 543 -40.5 Q531 -94 499 -137.5 Q467 -181 409.5 -208 Q352 -235 262 -235 Q184 -235 128.5 -215.5 Q73 -196 22 -159 L97 -35 Q124 -56 163.5 -73 Q203 -90 246 -90 Q311 -90 346.5 -60 Q382 -30 382 20 L382 41 Q381 41 380.5 41.5 Q380 42 379 42 Q356 19 320 8 Q284 -3 251 -3 Q147 -3 87.5 56 Q28 115 28 220 Q28 270 44 313.5 Q60 357 90.5 389.5 Q121 422 164.5 441 Q208 460 263 460 Q295 460 329 451 Q363 442 393 418 L396 420 Z M370 226 Q370 271 347 295.5 Q324 320 285 320 Q245 320 221.5 294 Q198 268 198 226 Q198 187 220 159.5 Q242 132 283 132 Q326 132 348 160.5 Q370 189 370 226 Z " />
<glyph glyph-name="h" unicode="h" horiz-adv-x="568" d="M343 0 L343 251 Q343 280 331 301 Q319 322 290 322 Q261 322 241.5 300 Q222 278 222 229 L222 0 L45 0 L45 659 L216 659 L216 400 Q217 400 217.5 399.5 Q218 399 219 399 Q251 435 286.5 447 Q322 459 357 459 Q435 459 477 415.5 Q519 372 519 292 L519 0 L343 0 Z " />
<glyph glyph-name="i" unicode="i" horiz-adv-x="283" d="M52 0 L52 446 L230 446 L230 0 L52 0 Z M236 606 Q236 567 210 538 Q184 509 140 509 Q95 509 70 537.5 Q45 566 45 604 Q45 626 53 643.5 Q61 661 74.5 673.5 Q88 686 105 693 Q122 700 140 700 Q183 700 209.5 672 Q236 644 236 606 Z " />
<glyph glyph-name="j" unicode="j" horiz-adv-x="279" d="M-78 -81 Q-35 -81 -9.5 -74.5 Q16 -68 29.5 -53 Q43 -38 47.5 -13 Q52 12 52 49 L52 446 L228 446 L228 31 Q228 -113 155.5 -176.5 Q83 -240 -53 -236 L-78 -81 Z M236 606 Q236 567 210 538 Q184 509 140 509 Q95 509 70 537.5 Q45 566 45 604 Q45 626 53 643.5 Q61 661 74.5 673.5 Q88 686 105 693 Q122 700 140 700 Q183 700 209.5 672 Q236 644 236 606 Z " />
<glyph glyph-name="k" unicode="k" horiz-adv-x="559" d="M401 232 L554 0 L354 0 L229 213 L229 0 L46 0 L46 659 L229 659 L229 248 L351 446 L546 446 L401 232 Z " />
<glyph glyph-name="l" unicode="l" horiz-adv-x="274" d="M49 0 L49 659 L226 659 L226 0 L49 0 Z " />
<glyph glyph-name="m" unicode="m" horiz-adv-x="843" d="M215 395 Q245 431 283.5 446 Q322 461 355 461 Q405 461 439.5 439 Q474 417 491 376 Q506 402 524.5 418.5 Q543 435 562.5 444.5 Q582 454 600.5 457.5 Q619 461 636 461 Q718 461 756 414.5 Q794 368 794 280 L794 0 L617 0 L617 257 Q617 283 606.5 302.5 Q596 322 570 322 Q546 322 527.5 303 Q509 284 509 230 L509 0 L334 0 L334 251 Q334 283 322.5 302.5 Q311 322 283 322 Q259 322 241.5 301 Q224 280 224 234 L224 0 L48 0 L48 446 L213 446 L213 396 L215 395 Z " />
<glyph glyph-name="n" unicode="n" horiz-adv-x="571" d="M216 393 Q249 431 289.5 445.5 Q330 460 364 460 Q442 460 482 415.5 Q522 371 522 292 L522 0 L345 0 L345 251 Q345 280 332.5 301 Q320 322 293 322 Q264 322 244 300 Q224 278 224 229 L224 0 L48 0 L48 446 L213 446 L213 394 L216 393 Z " />
<glyph glyph-name="o" unicode="o" horiz-adv-x="572" d="M287 461 Q348 461 396 443 Q444 425 477 393.5 Q510 362 527.5 318.5 Q545 275 545 225 Q545 174 527 130.5 Q509 87 475 56 Q441 25 393.5 7.5 Q346 -10 287 -10 Q226 -10 178 7.5 Q130 25 96.5 56.5 Q63 88 45 131 Q27 174 27 225 Q27 275 45.5 318.5 Q64 362 98 393.5 Q132 425 180 443 Q228 461 287 461 Z M289 322 Q248 322 225.5 293.5 Q203 265 203 227 Q203 182 225 155 Q247 128 289 128 Q330 128 353 156 Q376 184 376 227 Q376 268 353 295 Q330 322 289 322 Z " />
<glyph glyph-name="p" unicode="p" horiz-adv-x="605" d="M232 221 Q232 182 254 153 Q276 124 319 124 Q359 124 381.5 152.5 Q404 181 404 223 Q404 268 381.5 294 Q359 320 319 320 Q281 320 256.5 292 Q232 264 232 221 Z M212 397 Q226 415 244 427 Q262 439 281.5 446.5 Q301 454 320.5 457 Q340 460 356 460 Q411 460 452.5 442 Q494 424 521.5 392.5 Q549 361 563 318.5 Q577 276 577 227 Q577 173 560 129 Q543 85 512.5 54 Q482 23 440 6.5 Q398 -10 349 -10 Q323 -10 288 -2.5 Q253 5 225 29 Q223 28 222 27 Q221 26 220 26 L220 -217 L45 -217 L45 446 L210 446 L210 398 L212 397 Z " />
<glyph glyph-name="q" unicode="q" horiz-adv-x="599" d="M396 419 L396 447 L553 447 L553 -217 L381 -217 L381 34 Q380 34 379.5 34.5 Q379 35 378 35 Q355 12 318.5 1 Q282 -10 250 -10 Q198 -10 156.5 6.5 Q115 23 86.5 53 Q58 83 42.5 125.5 Q27 168 27 220 Q27 270 43 313.5 Q59 357 89 389.5 Q119 422 162.5 441 Q206 460 261 460 Q296 460 330.5 450 Q365 440 393 417 L396 419 Z M369 222 Q369 267 346 293.5 Q323 320 283 320 Q243 320 219.5 293.5 Q196 267 196 222 Q196 183 218.5 154 Q241 125 281 125 Q303 125 319.5 133.5 Q336 142 347 155.5 Q358 169 363.5 186.5 Q369 204 369 222 Z " />
<glyph glyph-name="r" unicode="r" horiz-adv-x="413" d="M209 385 Q229 424 261.5 441.5 Q294 459 332 459 Q370 459 404 445 L404 286 Q387 295 365.5 301 Q344 307 323 307 Q281 307 252.5 278 Q224 249 224 187 L224 0 L48 0 L48 446 L207 446 L207 385 L209 385 Z " />
<glyph glyph-name="s" unicode="s" horiz-adv-x="434" d="M213 461 Q242 461 290 450.5 Q338 440 392 404 L328 295 Q318 301 304.5 307.5 Q291 314 277 318.5 Q263 323 249 326 Q235 329 225 329 Q205 329 205 317 Q205 310 210.5 305 Q216 300 237 294 Q272 283 303 272 Q334 261 357 243.5 Q380 226 393.5 200 Q407 174 407 135 Q407 103 393 76 Q379 49 353.5 29.5 Q328 10 292 -1 Q256 -12 211 -12 Q166 -12 111.5 3 Q57 18 10 63 L85 170 Q107 150 139.5 134.5 Q172 119 209 119 Q239 119 239 136 Q239 145 232.5 150.5 Q226 156 196 166 Q169 175 140.5 186 Q112 197 88.5 213.5 Q65 230 50.5 254.5 Q36 279 36 316 Q36 346 48 372.5 Q60 399 83 418.5 Q106 438 139 449.5 Q172 461 213 461 Z " />
<glyph glyph-name="t" unicode="t" horiz-adv-x="401" d="M254 613 L254 446 L369 446 L369 318 L254 318 L254 187 Q254 160 266 149.5 Q278 139 297 139 Q323 139 354 156 L401 34 Q378 19 337 3 Q296 -13 248 -13 Q160 -13 119.5 30.5 Q79 74 79 159 L79 318 L13 318 L13 427 Q71 434 101 477.5 Q131 521 139 613 L254 613 Z " />
<glyph glyph-name="u" unicode="u" horiz-adv-x="564" d="M339 52 Q308 16 272.5 4.5 Q237 -7 202 -7 Q48 -7 48 165 L48 446 L224 446 L224 191 Q224 168 237 147 Q250 126 276 126 Q305 126 321.5 148.5 Q338 171 338 216 L338 446 L515 446 L515 0 L342 0 L342 51 L339 52 Z " />
<glyph glyph-name="v" unicode="v" horiz-adv-x="558" d="M200 0 L7 446 L195 446 L243 303 Q246 295 251 279 Q256 263 261.5 246 Q267 229 272 212.5 Q277 196 280 187 L283 187 Q286 197 292 216 Q298 235 304.5 255.5 Q311 276 317 294.5 Q323 313 326 324 L365 446 L547 446 L369 0 L200 0 Z " />
<glyph glyph-name="w" unicode="w" horiz-adv-x="777" d="M536 217 L601 446 L778 446 L632 0 L455 0 L389 215 L324 0 L147 0 L-1 446 L179 446 L243 216 L247 216 L315 446 L464 446 L532 217 L536 217 Z " />
<glyph glyph-name="x" unicode="x" horiz-adv-x="527" d="M360 227 L521 0 L338 0 L263 125 L189 0 L6 0 L166 227 L14 446 L197 446 L263 331 L330 446 L513 446 L360 227 Z " />
<glyph glyph-name="y" unicode="y" horiz-adv-x="536" d="M128 -217 L210 0 L166 0 L8 446 L183 446 L229 291 Q232 283 236.5 267.5 Q241 252 246.5 235 Q252 218 256.5 202 Q261 186 264 177 L267 177 Q270 187 276 206 Q282 225 288.5 245.5 Q295 266 301 284.5 Q307 303 310 314 L349 446 L528 446 L293 -217 L128 -217 Z " />
<glyph glyph-name="z" unicode="z" horiz-adv-x="467" d="M425 322 L235 129 L435 129 L435 0 L32 0 L32 124 L220 316 L45 316 L45 446 L425 446 L425 322 Z " />
<glyph glyph-name="braceleft" unicode="&#x7b;" horiz-adv-x="380" d="M191 314 Q233 305 249.5 273.5 Q266 242 266 200 L266 33 Q266 4 276 -14 Q286 -32 321 -32 L342 -32 L342 -133 L265 -133 Q221 -133 192.5 -119.5 Q164 -106 147.5 -83.5 Q131 -61 124.5 -31.5 Q118 -2 118 31 L118 158 Q118 175 115.5 193.5 Q113 212 106 228.5 Q99 245 86.5 257 Q74 269 54 274 L54 354 Q90 362 104 391.5 Q118 421 118 457 L118 552 Q118 585 124 616 Q130 647 146.5 671 Q163 695 191 709.5 Q219 724 263 724 L342 724 L342 620 L326 620 Q306 620 294 614.5 Q282 609 276 599.5 Q270 590 268 577.5 Q266 565 266 552 L266 416 Q266 377 246 352 Q226 327 191 319 L191 314 Z " />
<glyph glyph-name="bar" unicode="&#x7c;" horiz-adv-x="370" d="M123 737 L248 737 L248 -148 L123 -148 L123 737 Z " />
<glyph glyph-name="braceright" unicode="&#x7d;" horiz-adv-x="380" d="M197 319 Q162 327 141.5 352 Q121 377 121 416 L121 552 Q121 565 119 577.5 Q117 590 111 599.5 Q105 609 93 614.5 Q81 620 62 620 L45 620 L45 724 L124 724 Q166 724 194 712 Q222 700 239 678.5 Q256 657 263 628 Q270 599 270 565 L270 464 Q270 428 284 400 Q298 372 334 364 L334 281 Q313 276 300.5 263.5 Q288 251 281.5 234 Q275 217 272.5 198 Q270 179 270 162 L270 27 Q270 -6 263.5 -35 Q257 -64 240 -85.5 Q223 -107 194.5 -120 Q166 -133 123 -133 L45 -133 L45 -32 L67 -32 Q102 -32 111.5 -14 Q121 4 121 33 L121 200 Q121 242 138 273.5 Q155 305 197 314 L197 319 Z " />
<glyph glyph-name="asciitilde" unicode="&#x7e;" horiz-adv-x="575" d="M402 208 Q371 208 342 215.5 Q313 223 286 232.5 Q259 242 234.5 249.5 Q210 257 188 257 Q162 257 144 241 Q126 225 109 193 L20 248 Q47 317 88 350.5 Q129 384 175 384 Q200 384 226 376 Q252 368 278 358.5 Q304 349 329 341 Q354 333 377 333 Q405 333 425.5 350 Q446 367 462 406 L557 357 Q540 285 496 246.5 Q452 208 402 208 Z " />
<glyph glyph-name="dieresis" unicode="&#xa8;" horiz-adv-x="565" d="M263 606 Q263 576 242 552.5 Q221 529 188 529 Q153 529 132.5 552.5 Q112 576 112 605 Q112 640 135.5 660.5 Q159 681 188 681 Q221 681 242 659 Q263 637 263 606 Z M463 606 Q463 576 442.5 552.5 Q422 529 388 529 Q353 529 333 552.5 Q313 576 313 605 Q313 640 336 660.5 Q359 681 388 681 Q422 681 442.5 659 Q463 637 463 606 Z " />
<glyph glyph-name="sterling" unicode="&#xa3;" horiz-adv-x="588" d="M67 119 Q76 131 85.5 145.5 Q95 160 103.5 180 Q112 200 117.5 226 Q123 252 125 286 L68 286 L68 388 L129 388 L131 443 Q133 503 153 546.5 Q173 590 205 617.5 Q237 645 277.5 658 Q318 671 362 671 Q416 671 462 659.5 Q508 648 550 626 L504 498 Q475 511 448 518 Q421 525 397 525 Q359 525 334 505 Q309 485 308 436 L307 388 L442 388 L442 286 L302 286 Q300 238 291.5 197 Q283 156 266 129 L538 129 L538 0 L67 0 L67 119 Z " />
<glyph glyph-name="trademark" unicode="&#x2122;" horiz-adv-x="830" d="M543 341 L487 470 L485 470 L485 303 L374 303 L374 681 L482 681 L568 500 L652 681 L761 681 L761 303 L650 303 L650 472 L647 472 L595 341 L543 341 Z M243 303 L135 303 L135 600 L37 600 L37 679 L341 679 L341 600 L243 600 L243 303 Z " />
<glyph glyph-name="perthousand" unicode="&#x2030;" horiz-adv-x="1227" d="M234 -31 L131 -31 L594 685 L697 685 L234 -31 Z M213 688 Q254 688 287 675 Q320 662 343 639 Q366 616 378 585.5 Q390 555 390 521 Q390 487 377.5 456.5 Q365 426 342 403 Q319 380 286 366.5 Q253 353 213 353 Q171 353 138 365.5 Q105 378 82 400.5 Q59 423 47 454 Q35 485 35 521 Q35 555 47.5 585.5 Q60 616 83 639 Q106 662 139 675 Q172 688 213 688 Z M214 583 Q188 583 173 564.5 Q158 546 158 521 Q158 492 173 474.5 Q188 457 214 457 Q239 457 254.5 474.5 Q270 492 270 521 Q270 547 254.5 565 Q239 583 214 583 Z M623 322 Q664 322 697 308.5 Q730 295 753 272.5 Q776 250 788 219.5 Q800 189 800 155 Q800 120 787.5 89.5 Q775 59 752 36.5 Q729 14 696 0.5 Q663 -13 623 -13 Q581 -13 548 -0.5 Q515 12 492 34.5 Q469 57 457 87.5 Q445 118 445 154 Q445 188 457.5 219 Q470 250 493 272.5 Q516 295 549 308.5 Q582 322 623 322 Z M624 217 Q598 217 583 198 Q568 179 568 155 Q568 126 583 108 Q598 90 624 90 Q650 90 665.5 108 Q681 126 681 155 Q681 181 665 199 Q649 217 624 217 Z M1019 322 Q1060 322 1093 308.5 Q1126 295 1149 272.5 Q1172 250 1184.5 219.5 Q1197 189 1197 155 Q1197 120 1184.5 89.5 Q1172 59 1148.5 36.5 Q1125 14 1092 0.5 Q1059 -13 1019 -13 Q977 -13 944 -0.5 Q911 12 888 34.5 Q865 57 853 87.5 Q841 118 841 154 Q841 188 853.5 219 Q866 250 889 272.5 Q912 295 945 308.5 Q978 322 1019 322 Z M1020 217 Q994 217 979 198 Q964 179 964 155 Q964 126 979 108 Q994 90 1020 90 Q1046 90 1061 108 Q1076 126 1076 155 Q1076 181 1060.5 199 Q1045 217 1020 217 Z " />
<glyph glyph-name="germandbls" unicode="&#xdf;" horiz-adv-x="614" d="M231 0 L55 0 L55 446 Q55 495 71 537 Q87 579 118.5 610 Q150 641 196.5 658.5 Q243 676 305 676 Q357 676 399.5 663 Q442 650 472 627 Q502 604 518 572 Q534 540 534 502 Q534 495 532 481 Q530 467 523 451 Q516 435 503 418.5 Q490 402 468 390 L468 385 Q528 365 556 315 Q584 265 584 205 Q584 152 567 112 Q550 72 521 45 Q492 18 453 4 Q414 -10 370 -10 Q343 -10 314.5 -4.5 Q286 1 257 12 L291 139 Q316 130 337 130 Q369 130 390 151.5 Q411 173 411 221 Q411 271 380 293 Q349 315 297 317 L297 431 Q335 432 352.5 449 Q370 466 370 489 Q370 509 353.5 528 Q337 547 304 547 Q283 547 269 539.5 Q255 532 246.5 520 Q238 508 234.5 493.5 Q231 479 231 466 L231 0 Z " />
<glyph glyph-name="copyright" unicode="&#xa9;" horiz-adv-x="875" d="M444 573 Q461 573 481.5 571 Q502 569 524.5 562.5 Q547 556 570.5 544 Q594 532 617 512 L557 423 Q542 438 525.5 446.5 Q509 455 494.5 458.5 Q480 462 468.5 463 Q457 464 452 464 Q433 464 412.5 457 Q392 450 375.5 435 Q359 420 348 397 Q337 374 337 342 Q337 311 347 288 Q357 265 373.5 250 Q390 235 411.5 227.5 Q433 220 455 220 Q472 220 505.5 228.5 Q539 237 577 269 L632 182 Q584 139 533.5 125 Q483 111 445 111 Q393 111 350 127.5 Q307 144 276.5 174.5 Q246 205 229 247.5 Q212 290 212 341 Q212 393 230.5 435.5 Q249 478 281 508.5 Q313 539 355 556 Q397 573 444 573 Z M437 -39 Q352 -39 282.5 -10 Q213 19 163.5 71 Q114 123 86.5 194 Q59 265 59 348 Q59 432 89 502 Q119 572 170.5 623 Q222 674 291 702.5 Q360 731 439 731 Q516 731 584.5 702 Q653 673 704 622 Q755 571 785 501 Q815 431 815 348 Q815 265 785 194 Q755 123 704 71 Q653 19 584 -10 Q515 -39 437 -39 Z M438 649 Q375 649 322 625 Q269 601 230 560 Q191 519 169 464.5 Q147 410 147 348 Q147 285 168 230 Q189 175 227 133.5 Q265 92 318.5 68 Q372 44 437 44 Q501 44 554 68 Q607 92 644.5 133.5 Q682 175 703 230 Q724 285 724 348 Q724 409 703 464 Q682 519 644 560 Q606 601 553.5 625 Q501 649 438 649 Z " />
<glyph glyph-name="section" unicode="&#xa7;" horiz-adv-x="590" d="M462 554 Q450 559 433 565 Q416 571 396 576.5 Q376 582 354.5 585.5 Q333 589 312 589 Q283 589 262.5 580.5 Q242 572 242 551 Q242 540 248.5 531.5 Q255 523 265 516.5 Q275 510 286.5 505.5 Q298 501 308 498 Q349 487 388.5 471 Q428 455 458.5 432.5 Q489 410 507.5 380 Q526 350 526 310 Q526 281 509 248.5 Q492 216 460 197 Q493 174 507 145 Q521 116 521 90 Q521 45 501.5 13 Q482 -19 449.5 -39.5 Q417 -60 375 -70 Q333 -80 287 -80 Q252 -80 219 -75.5 Q186 -71 156 -62.5 Q126 -54 100.5 -43 Q75 -32 56 -20 L108 95 Q146 75 193 59.5 Q240 44 279 44 Q311 44 331 52.5 Q351 61 351 84 Q351 105 330 120 Q309 135 277.5 149 Q246 163 209.5 177.5 Q173 192 141.5 213 Q110 234 89 264 Q68 294 68 338 Q68 368 82 397 Q96 426 131 447 Q104 472 94 496 Q84 520 84 547 Q84 579 97 609.5 Q110 640 137 663.5 Q164 687 207 701 Q250 715 310 715 Q370 715 419.5 701 Q469 687 506 672 L462 554 Z M371 305 Q371 320 360.5 332.5 Q350 345 333.5 355 Q317 365 296 373.5 Q275 382 254 390 Q240 382 230.5 370 Q221 358 221 344 Q221 327 231 314.5 Q241 302 257.5 292.5 Q274 283 295 275 Q316 267 339 258 Q353 268 362 280 Q371 292 371 305 Z " />
<glyph glyph-name="degree" unicode="&#xb0;" horiz-adv-x="363" d="M183 418 Q153 418 129.5 428 Q106 438 89.5 454.5 Q73 471 64.5 493.5 Q56 516 56 541 Q56 567 66 589.5 Q76 612 93 628.5 Q110 645 133 654.5 Q156 664 183 664 Q209 664 231.5 654.5 Q254 645 271 628.5 Q288 612 298 589.5 Q308 567 308 541 Q308 516 298 493.5 Q288 471 271 454.5 Q254 438 231.5 428 Q209 418 183 418 Z M182 599 Q158 599 140.5 582 Q123 565 123 541 Q123 516 138.5 498.5 Q154 481 182 481 Q208 481 225 498.5 Q242 516 242 541 Q242 565 225 582 Q208 599 182 599 Z " />
<glyph glyph-name="plusminus" unicode="&#xb1;" horiz-adv-x="588" d="M505 99 L505 0 L81 0 L81 99 L505 99 Z M345 134 L242 134 L242 278 L81 278 L81 378 L242 378 L242 521 L345 521 L345 378 L505 378 L505 278 L345 278 L345 134 Z " />
<glyph glyph-name="yen" unicode="&#xa5;" horiz-adv-x="588" d="M393 248 L393 211 L545 211 L545 140 L393 140 L393 0 L197 0 L197 140 L53 140 L53 211 L197 211 L197 248 L53 248 L53 319 L172 319 L15 659 L220 659 L300 391 L303 391 Q310 409 319.5 446.5 Q329 484 339.5 525 Q350 566 360 603.5 Q370 641 377 659 L579 659 Q572 645 559.5 619.5 Q547 594 532 561.5 Q517 529 500.5 493.5 Q484 458 468.5 425 Q453 392 439.5 364 Q426 336 418 319 L545 319 L545 248 L393 248 Z " />
<glyph glyph-name="guillemotleft" unicode="&#xab;" horiz-adv-x="528" d="M307 11 L151 11 L26 205 L26 215 L152 408 L307 408 L173 213 L307 11 Z M512 11 L356 11 L231 205 L231 215 L357 408 L512 408 L378 213 L512 11 Z " />
<glyph glyph-name="guillemotright" unicode="&#xbb;" horiz-adv-x="528" d="M153 213 L19 408 L174 408 L300 215 L300 205 L175 11 L19 11 L153 213 Z M357 213 L223 408 L379 408 L504 215 L504 205 L379 11 L223 11 L357 213 Z " />
<glyph glyph-name="oe" unicode="&#x153;" horiz-adv-x="872" d="M287 461 Q347 461 390 440.5 Q433 420 456 394 Q479 421 519 442 Q559 463 614 463 Q721 463 783 401.5 Q845 340 845 226 L845 200 L550 200 Q552 180 561 166 Q570 152 583 143 Q596 134 612.5 130 Q629 126 647 126 Q677 126 702.5 139 Q728 152 748 175 L834 69 Q822 55 802.5 41 Q783 27 757.5 15 Q732 3 700.5 -4.5 Q669 -12 633 -12 Q566 -12 523 10.5 Q480 33 458 58 Q432 27 385.5 8.5 Q339 -10 287 -10 Q226 -10 178 7.5 Q130 25 96.5 56.5 Q63 88 45 131 Q27 174 27 225 Q27 275 45.5 318.5 Q64 362 98 393.5 Q132 425 180 443 Q228 461 287 461 Z M289 322 Q248 322 225.5 293.5 Q203 265 203 227 Q203 182 225 155 Q247 128 289 128 Q330 128 353 156 Q376 184 376 227 Q376 268 353 295 Q330 322 289 322 Z M621 340 Q593 340 575.5 319.5 Q558 299 553 273 L687 273 Q682 304 666 322 Q650 340 621 340 Z " />
<glyph glyph-name="endash" unicode="&#x2013;" horiz-adv-x="615" d="M26 313 L590 313 L590 192 L26 192 L26 313 Z " />
<glyph glyph-name="quotedblleft" unicode="&#x201c;" horiz-adv-x="450" d="M209 445 Q209 409 185 384.5 Q161 360 126 360 Q81 360 60 389.5 Q39 419 39 461 Q39 493 49 525.5 Q59 558 78.5 586 Q98 614 126.5 634.5 Q155 655 191 663 L217 608 Q182 597 160 573 Q138 549 129 520 Q132 521 137 521 Q166 521 187.5 502 Q209 483 209 445 Z M401 445 Q401 409 377 384.5 Q353 360 318 360 Q273 360 252 389.5 Q231 419 231 461 Q231 493 241 525.5 Q251 558 270.5 586 Q290 614 318.5 634.5 Q347 655 383 663 L409 608 Q374 597 352 573 Q330 549 321 520 Q324 521 329 521 Q358 521 379.5 502 Q401 483 401 445 Z " />
<glyph glyph-name="quotedblright" unicode="&#x201d;" horiz-adv-x="450" d="M48 587 Q48 623 72 647.5 Q96 672 131 672 Q176 672 197 642.5 Q218 613 218 571 Q218 539 207.5 506.5 Q197 474 177.5 446 Q158 418 130 397.5 Q102 377 66 369 L40 424 Q75 435 97 459 Q119 483 128 512 Q125 511 120 511 Q91 511 69.5 530 Q48 549 48 587 Z M239 587 Q239 623 263 647.5 Q287 672 322 672 Q367 672 388 642.5 Q409 613 409 571 Q409 539 398.5 506.5 Q388 474 368.5 446 Q349 418 321 397.5 Q293 377 257 369 L231 424 Q266 435 288 459 Q310 483 319 512 Q316 511 311 511 Q282 511 260.5 530 Q239 549 239 587 Z " />
<glyph glyph-name="quoteleft" unicode="&#x2018;" horiz-adv-x="249" d="M209 445 Q209 409 185 384.5 Q161 360 126 360 Q81 360 60 389.5 Q39 419 39 461 Q39 493 49 525.5 Q59 558 78.5 586 Q98 614 126.5 634.5 Q155 655 191 663 L217 608 Q182 597 160 573 Q138 549 129 520 Q132 521 137 521 Q166 521 187.5 502 Q209 483 209 445 Z " />
<glyph glyph-name="quoteright" unicode="&#x2019;" horiz-adv-x="249" d="M42 587 Q42 623 66 647.5 Q90 672 125 672 Q170 672 191 642.5 Q212 613 212 571 Q212 539 201.5 506.5 Q191 474 171.5 446 Q152 418 124 397.5 Q96 377 60 369 L34 424 Q69 435 91 459 Q113 483 122 512 Q119 511 114 511 Q85 511 63.5 530 Q42 549 42 587 Z " />
<glyph glyph-name="&amp;#xb5;" unicode="&#xb5;" horiz-adv-x="564" d="M343 57 Q318 29 284.5 17.5 Q251 6 229 6 L224 6 L224 -217 L48 -217 L48 446 L224 446 L224 188 Q224 178 227.5 167 Q231 156 237.5 147 Q244 138 253.5 132 Q263 126 275 126 Q304 126 321 148.5 Q338 171 338 214 L338 446 L515 446 L515 0 L345 0 L345 55 L343 57 Z " />
<glyph glyph-name="&amp;#x3bc;" unicode="&#x3bc;" horiz-adv-x="564" d="M343 57 Q318 29 284.5 17.5 Q251 6 229 6 L224 6 L224 -217 L48 -217 L48 446 L224 446 L224 188 Q224 178 227.5 167 Q231 156 237.5 147 Q244 138 253.5 132 Q263 126 275 126 Q304 126 321 148.5 Q338 171 338 214 L338 446 L515 446 L515 0 L345 0 L345 55 L343 57 Z " />
<glyph glyph-name="pi" unicode="&#x3c0;" horiz-adv-x="574" d="M348 0 L348 315 L224 315 L224 0 L48 0 L48 447 L524 447 L524 0 L348 0 Z " />
<glyph glyph-name="emdash" unicode="&#x2014;" horiz-adv-x="854" d="M28 313 L826 313 L826 192 L28 192 L28 313 Z " />
<glyph glyph-name="exclam" unicode="&#x21;" horiz-adv-x="339" d="M97 206 Q93 329 89 450 Q85 571 80 694 L258 694 L242 206 L97 206 Z M255 72 Q255 38 230 13.5 Q205 -11 171 -11 Q153 -11 137 -4.5 Q121 2 109 13.5 Q97 25 90 40 Q83 55 83 72 Q83 108 109 133.5 Q135 159 171 159 Q188 159 203 152 Q218 145 229.5 133.5 Q241 122 248 106 Q255 90 255 72 Z " />
<glyph glyph-name="dieresistonos" unicode="&#x385;" horiz-adv-x="565" d="M201 605 Q201 575 180 551.5 Q159 528 125 528 Q90 528 69.5 551.5 Q49 575 49 604 Q49 639 72.5 659.5 Q96 680 125 680 Q159 680 180 657.5 Q201 635 201 605 Z M538 605 Q538 575 517 551.5 Q496 528 461 528 Q426 528 406 551.5 Q386 575 386 604 Q386 639 409 659.5 Q432 680 461 680 Q495 680 516.5 657.5 Q538 635 538 605 Z M186 521 L262 687 L411 687 L284 521 L186 521 Z " />
<glyph glyph-name="tonos" unicode="&#x384;" horiz-adv-x="527" d="M194 519 L283 667 L432 667 L292 519 L194 519 Z " />
<glyph glyph-name="Theta" unicode="&#x398;" horiz-adv-x="805" d="M401 -13 Q318 -13 251.5 13.5 Q185 40 137.5 86 Q90 132 64.5 194.5 Q39 257 39 330 Q39 402 66 464.5 Q93 527 141 573.5 Q189 620 256 647 Q323 674 403 674 Q484 674 551 647 Q618 620 665.5 573.5 Q713 527 739 464.5 Q765 402 765 330 Q765 257 738 194.5 Q711 132 663 86 Q615 40 548 13.5 Q481 -13 401 -13 Z M404 514 Q366 514 334.5 499.5 Q303 485 281 460 Q259 435 247 401.5 Q235 368 235 330 Q235 290 247 255.5 Q259 221 281 196 Q303 171 334.5 156.5 Q366 142 404 142 Q443 142 474 156.5 Q505 171 527 196.5 Q549 222 560.5 256.5 Q572 291 572 330 Q572 368 560.5 401.5 Q549 435 527.5 460 Q506 485 475 499.5 Q444 514 404 514 Z M292 408 L515 408 L515 260 L292 260 L292 408 Z " />
<glyph glyph-name="Lambda" unicode="&#x39b;" horiz-adv-x="688" d="M436 659 L681 0 L493 0 L345 442 L341 442 L189 0 L7 0 L257 659 L436 659 Z " />
<glyph glyph-name="Xi" unicode="&#x39e;" horiz-adv-x="612" d="M59 512 L59 660 L553 660 L553 512 L59 512 Z M567 149 L567 0 L45 0 L45 149 L567 149 Z M547 409 L547 261 L65 261 L65 409 L547 409 Z " />
<glyph glyph-name="Pi" unicode="&#x3a0;" horiz-adv-x="710" d="M454 0 L454 512 L254 512 L254 0 L58 0 L58 659 L650 659 L650 0 L454 0 Z " />
<glyph glyph-name="Sigma" unicode="&#x3a3;" horiz-adv-x="571" d="M43 659 L537 659 L537 512 L266 512 L405 343 L260 147 L544 147 L544 0 L34 0 L34 139 L187 341 L43 519 L43 659 Z " />
<glyph glyph-name="Phi" unicode="&#x3a6;" horiz-adv-x="918" d="M882 341 Q882 286 860.5 237.5 Q839 189 797.5 152 Q756 115 695 91 Q634 67 556 60 L556 0 L364 0 L364 60 Q283 64 221.5 86.5 Q160 109 118.5 145.5 Q77 182 56 232 Q35 282 35 341 Q35 397 58.5 446 Q82 495 125 532 Q168 569 229 592 Q290 615 364 619 L364 659 L557 659 L557 618 Q632 613 692 589.5 Q752 566 794 528.5 Q836 491 859 443 Q882 395 882 341 Z M695 340 Q695 367 685.5 392 Q676 417 658 436.5 Q640 456 614 469 Q588 482 555 485 L555 193 Q586 196 612 208.5 Q638 221 656.5 241 Q675 261 685 286 Q695 311 695 340 Z M364 486 Q331 483 305 469.5 Q279 456 260.5 436 Q242 416 232 391 Q222 366 222 339 Q222 313 230.5 288.5 Q239 264 257 244.5 Q275 225 301.5 211 Q328 197 364 193 L364 486 Z " />
<glyph glyph-name="Psi" unicode="&#x3a8;" horiz-adv-x="854" d="M329 0 L329 166 Q252 170 198 194 Q144 218 110 256.5 Q76 295 60.5 346.5 Q45 398 45 458 L45 660 L242 660 L242 449 Q242 428 246.5 407.5 Q251 387 261 369.5 Q271 352 287.5 340.5 Q304 329 329 327 L329 659 L525 659 L525 328 Q550 330 566.5 341 Q583 352 593 367.5 Q603 383 607.5 403 Q612 423 612 443 L612 660 L809 660 L809 464 Q809 403 792.5 351 Q776 299 741.5 259.5 Q707 220 653 195.5 Q599 171 525 166 L525 0 L329 0 Z " />
<glyph glyph-name="Omega" unicode="&#x3a9;" horiz-adv-x="803" d="M403 514 Q365 514 333.5 499.5 Q302 485 280 460 Q258 435 246 402.5 Q234 370 234 334 Q234 277 254.5 231 Q275 185 330 156 L330 0 L25 0 L25 147 L113 147 Q113 148 113.5 148.5 Q114 149 114 150 Q77 187 58.5 237 Q40 287 40 342 Q40 416 67 477 Q94 538 142 582 Q190 626 256.5 650 Q323 674 403 674 Q484 674 550.5 649.5 Q617 625 664 581 Q711 537 736.5 476 Q762 415 762 342 Q762 291 744 239.5 Q726 188 689 150 L689 147 L776 147 L776 0 L461 0 L461 153 Q517 179 542.5 226 Q568 273 568 334 Q568 368 557 400.5 Q546 433 525 458.5 Q504 484 473 499 Q442 514 403 514 Z " />
<glyph glyph-name="alpha" unicode="&#x3b1;" horiz-adv-x="603" d="M388 36 Q329 -9 247 -9 Q195 -9 154 7 Q113 23 85 52.5 Q57 82 42 124 Q27 166 27 217 Q27 266 42.5 310 Q58 354 88.5 387.5 Q119 421 163 440.5 Q207 460 264 460 Q299 460 333.5 449.5 Q368 439 394 416 L396 418 L396 447 L554 447 L554 0 L391 0 L391 34 L388 36 Z M289 321 Q269 321 253 313.5 Q237 306 226 293 Q215 280 209 262.5 Q203 245 203 226 Q203 181 225 154 Q247 127 289 127 Q330 127 353 155 Q376 183 376 226 Q376 267 353 294 Q330 321 289 321 Z " />
<glyph glyph-name="beta" unicode="&#x3b2;" horiz-adv-x="597" d="M37 -217 L37 399 Q37 456 51 506.5 Q65 557 95.5 594.5 Q126 632 175 654 Q224 676 294 676 Q347 676 388.5 662.5 Q430 649 458.5 626 Q487 603 502 572 Q517 541 517 507 Q517 492 513 474.5 Q509 457 500 440.5 Q491 424 476 409.5 Q461 395 439 386 L439 381 Q474 369 498.5 349.5 Q523 330 538 306.5 Q553 283 560 256.5 Q567 230 567 204 Q567 155 549.5 115.5 Q532 76 502 48 Q472 20 432.5 5 Q393 -10 348 -10 Q310 -10 278 0 Q246 10 222 27 Q218 27 216 25 L216 -217 L37 -217 Z M300 124 Q343 124 367 151.5 Q391 179 391 218 Q391 265 357.5 287.5 Q324 310 272 310 L272 417 Q317 419 333.5 436 Q350 453 350 475 Q350 504 330.5 519 Q311 534 285 534 Q250 534 231.5 509.5 Q213 485 213 439 L213 217 Q213 179 234 151.5 Q255 124 300 124 Z " />
<glyph glyph-name="psi" unicode="&#x3c8;" horiz-adv-x="780" d="M301 -14 Q238 -10 190 12 Q142 34 110.5 69 Q79 104 63 149.5 Q47 195 47 246 L47 446 L220 446 L220 228 Q220 211 225 192.5 Q230 174 240.5 158.5 Q251 143 266 132.5 Q281 122 301 121 L301 446 L477 446 L477 121 Q512 123 535 150 Q558 177 558 229 L558 446 L732 446 L732 247 Q732 201 716 156 Q700 111 668.5 75 Q637 39 589 14.5 Q541 -10 477 -14 Q477 -65 477.5 -116 Q478 -167 478 -218 L301 -218 L301 -14 Z " />
<glyph glyph-name="delta" unicode="&#x3b4;" horiz-adv-x="572" d="M102 659 L499 659 L499 529 L362 529 Q392 508 424.5 479.5 Q457 451 484 415 Q511 379 528 335.5 Q545 292 545 241 Q545 188 527.5 142.5 Q510 97 477 63 Q444 29 396 9.5 Q348 -10 286 -10 Q224 -10 176 7.5 Q128 25 95 57 Q62 89 44.5 133 Q27 177 27 230 Q27 280 43.5 320.5 Q60 361 88.5 390.5 Q117 420 155 437.5 Q193 455 236 458 Q195 489 158 508.5 Q121 528 102 537 L102 659 Z M201 237 Q201 216 206 196.5 Q211 177 221.5 162 Q232 147 248.5 137.5 Q265 128 287 128 Q309 128 325.5 136.5 Q342 145 353 160 Q364 175 369.5 194.5 Q375 214 375 235 Q375 267 366.5 295 Q358 323 343 346 Q332 349 322 350 Q312 351 302 351 Q276 351 257 341.5 Q238 332 225.5 316 Q213 300 207 279.5 Q201 259 201 237 Z " />
<glyph glyph-name="epsilon" unicode="&#x3b5;" horiz-adv-x="423" d="M331 310 Q315 320 293.5 325 Q272 330 252 330 Q228 330 213 323 Q198 316 198 301 Q198 293 205 285.5 Q212 278 233 278 L304 278 L304 181 L250 181 Q225 181 213 172.5 Q201 164 201 151 Q201 137 214 131 Q227 125 247 125 Q284 125 308.5 137.5 Q333 150 344 161 L412 46 Q398 36 380.5 26 Q363 16 339 8 Q315 0 285 -5 Q255 -10 216 -10 Q164 -10 127.5 0 Q91 10 67.5 27 Q44 44 33 67 Q22 90 22 116 Q22 128 26 144 Q30 160 39 176 Q48 192 64 207 Q80 222 104 233 L104 237 Q68 250 49.5 275 Q31 300 31 329 Q31 356 43 380.5 Q55 405 79.5 423 Q104 441 140.5 452 Q177 463 226 463 Q275 463 315.5 452 Q356 441 391 417 L331 310 Z " />
<glyph glyph-name="phi" unicode="&#x3c6;" horiz-adv-x="775" d="M30 219 Q30 269 46 307 Q62 345 89 373 Q116 401 150.5 418.5 Q185 436 222 445 L282 343 Q241 327 221.5 298 Q202 269 202 229 Q202 204 210.5 184 Q219 164 233.5 149.5 Q248 135 266 127 Q284 119 303 118 L303 452 L475 452 Q535 452 585 435.5 Q635 419 670.5 389 Q706 359 725.5 316.5 Q745 274 745 223 Q745 176 725.5 134 Q706 92 670.5 60 Q635 28 584.5 8.5 Q534 -11 473 -13 L473 -218 L299 -218 L302 -12 Q227 -8 175.5 14.5 Q124 37 91.5 69 Q59 101 44.5 140.5 Q30 180 30 219 Z M579 222 Q579 240 574 258.5 Q569 277 556.5 292 Q544 307 523 316.5 Q502 326 470 328 L470 115 Q520 118 549.5 149 Q579 180 579 222 Z " />
<glyph glyph-name="gamma" unicode="&#x3b3;" horiz-adv-x="548" d="M280 187 L319 314 L362 446 L542 446 Q498 332 455 220 Q412 108 369 -6 Q369 -59 369.5 -111 Q370 -163 370 -217 L193 -217 L193 -4 L5 446 L192 446 L233 322 Q244 288 254 254 Q264 220 276 187 L280 187 Z " />
<glyph glyph-name="eta" unicode="&#x3b7;" horiz-adv-x="571" d="M216 393 Q249 431 289.5 445.5 Q330 460 364 460 Q442 460 482 415.5 Q522 371 522 292 L522 0 L345 0 L345 251 Q345 280 332.5 301 Q320 322 293 322 Q264 322 244 300 Q224 278 224 229 L224 0 L48 0 L48 446 L213 446 L213 394 L216 393 Z " />
<glyph glyph-name="iota" unicode="&#x3b9;" horiz-adv-x="281" d="M51 0 L51 446 L229 446 L229 0 L51 0 Z " />
<glyph glyph-name="xi" unicode="&#x3be;" horiz-adv-x="468" d="M393 500 Q372 515 347 523 Q322 531 299 531 Q266 531 242.5 516 Q219 501 219 472 Q219 442 244.5 427.5 Q270 413 318 413 L410 413 L410 294 L290 294 Q245 294 223 274 Q201 254 201 226 Q201 200 221.5 180 Q242 160 273 142.5 Q304 125 339.5 108.5 Q375 92 406 73.5 Q437 55 457.5 33 Q478 11 478 -18 Q478 -43 464 -68 Q450 -93 427.5 -116.5 Q405 -140 377.5 -162 Q350 -184 324 -203 L237 -132 Q270 -101 283.5 -81.5 Q297 -62 297 -51 Q297 -40 277.5 -28 Q258 -16 214 4 Q176 22 142 40.5 Q108 59 82.5 82 Q57 105 42.5 133.5 Q28 162 28 199 Q28 249 58 294.5 Q88 340 153 363 L153 368 Q120 376 99 391 Q78 406 65.5 424 Q53 442 48.5 461.5 Q44 481 44 497 Q44 529 59 560 Q74 591 102.5 615.5 Q131 640 173.5 655 Q216 670 272 670 Q342 670 387.5 651.5 Q433 633 464 611 L393 500 Z " />
<glyph glyph-name="kappa" unicode="&#x3ba;" horiz-adv-x="559" d="M401 232 L554 0 L354 0 L229 213 L229 0 L46 0 L46 446 L229 446 L229 248 L351 446 L546 446 L401 232 Z " />
<glyph glyph-name="lambda" unicode="&#x3bb;" horiz-adv-x="537" d="M291 659 L531 0 L348 0 Q328 63 309.5 126 Q291 189 272 252 L267 252 Q244 189 223 126 Q202 63 179 0 L6 0 L193 444 L118 659 L291 659 Z " />
<glyph glyph-name="nu" unicode="&#x3bd;" horiz-adv-x="558" d="M200 0 L7 446 L195 446 L243 303 Q246 295 251 279 Q256 263 261.5 246 Q267 229 272 212.5 Q277 196 280 187 L283 187 Q286 197 292 216 Q298 235 304.5 255.5 Q311 276 317 294.5 Q323 313 326 324 L365 446 L547 446 L369 0 L200 0 Z " />
<glyph glyph-name="omicron" unicode="&#x3bf;" horiz-adv-x="572" d="M287 461 Q348 461 396 443 Q444 425 477 393.5 Q510 362 527.5 318.5 Q545 275 545 225 Q545 174 527 130.5 Q509 87 475 56 Q441 25 393.5 7.5 Q346 -10 287 -10 Q226 -10 178 7.5 Q130 25 96.5 56.5 Q63 88 45 131 Q27 174 27 225 Q27 275 45.5 318.5 Q64 362 98 393.5 Q132 425 180 443 Q228 461 287 461 Z M289 322 Q248 322 225.5 293.5 Q203 265 203 227 Q203 182 225 155 Q247 128 289 128 Q330 128 353 156 Q376 184 376 227 Q376 268 353 295 Q330 322 289 322 Z " />
<glyph glyph-name="rho" unicode="&#x3c1;" horiz-adv-x="595" d="M212 22 L212 -216 L35 -216 L35 176 Q35 241 53 293.5 Q71 346 105.5 383 Q140 420 190 440 Q240 460 303 460 Q362 460 410 442.5 Q458 425 492.5 393 Q527 361 545.5 316.5 Q564 272 564 219 Q564 168 547.5 126 Q531 84 501 54 Q471 24 429.5 7.5 Q388 -9 338 -9 Q311 -9 276.5 -1 Q242 7 216 24 L212 22 Z M390 224 Q390 269 367 296.5 Q344 324 302 324 Q260 324 236 294.5 Q212 265 212 221 Q212 202 217.5 185 Q223 168 234.5 154.5 Q246 141 262.5 133 Q279 125 301 125 Q340 125 365 152 Q390 179 390 224 Z " />
<glyph glyph-name="sigma" unicode="&#x3c3;" horiz-adv-x="595" d="M504 314 Q516 303 524.5 288.5 Q533 274 539 258.5 Q545 243 547.5 227 Q550 211 550 199 Q550 157 533.5 119 Q517 81 484.5 52 Q452 23 404 6 Q356 -11 292 -11 Q225 -11 176 8 Q127 27 94.5 58.5 Q62 90 46.5 130.5 Q31 171 31 214 Q31 263 49 305 Q67 347 100.5 378.5 Q134 410 182.5 428 Q231 446 291 446 L585 446 L585 316 L505 316 L504 314 Z M295 320 Q274 320 258 312 Q242 304 231 290.5 Q220 277 214.5 259.5 Q209 242 209 223 Q209 180 231 153 Q253 126 295 126 Q336 126 359 153.5 Q382 181 382 224 Q382 242 376.5 259.5 Q371 277 360.5 290.5 Q350 304 333.5 312 Q317 320 295 320 Z " />
<glyph glyph-name="tau" unicode="&#x3c4;" horiz-adv-x="415" d="M4 317 L4 446 L390 446 L390 317 L268 317 L268 187 Q268 160 280 149.5 Q292 139 311 139 Q337 139 368 156 L415 34 Q392 19 351 3 Q310 -13 262 -13 Q174 -13 133.5 30.5 Q93 74 93 159 L93 317 L4 317 Z " />
<glyph glyph-name="theta" unicode="&#x3b8;" horiz-adv-x="591" d="M556 325 Q556 269 544.5 210 Q533 151 503 102 Q473 53 422 21.5 Q371 -10 293 -10 Q218 -10 168 18.5 Q118 47 88 93.5 Q58 140 45 200.5 Q32 261 32 325 Q32 388 45.5 450 Q59 512 90 561 Q121 610 171 640 Q221 670 294 670 Q372 670 423 637.5 Q474 605 503.5 555 Q533 505 544.5 444 Q556 383 556 325 Z M383 400 Q381 425 375 448.5 Q369 472 358 489 Q347 506 331 516.5 Q315 527 294 527 Q273 527 257.5 516 Q242 505 231 487.5 Q220 470 214 447 Q208 424 207 400 L383 400 Z M206 282 Q207 249 211.5 221.5 Q216 194 226.5 173.5 Q237 153 253.5 142 Q270 131 294 131 Q319 131 336 143 Q353 155 364 175.5 Q375 196 380 223.5 Q385 251 386 282 L206 282 Z " />
<glyph glyph-name="omega" unicode="&#x3c9;" horiz-adv-x="781" d="M750 220 Q750 174 737 132.5 Q724 91 697.5 59.5 Q671 28 631 9.5 Q591 -9 538 -9 Q497 -9 456 4 Q415 17 389 55 L384 55 Q357 23 319.5 7 Q282 -9 239 -9 Q187 -9 148 8.5 Q109 26 82.5 56.5 Q56 87 43 128.5 Q30 170 30 218 Q30 268 44.5 310.5 Q59 353 88 384.5 Q117 416 159 435.5 Q201 455 257 459 L290 345 Q250 338 229.5 303.5 Q209 269 209 220 Q209 165 226.5 144.5 Q244 124 268 124 Q293 124 307 142 Q321 160 321 188 L321 298 L459 298 L459 186 Q459 154 475.5 139 Q492 124 510 124 Q536 124 553.5 145.5 Q571 167 571 220 Q571 269 550 303.5 Q529 338 491 345 L525 459 Q580 455 622.5 435.5 Q665 416 693 384.5 Q721 353 735.5 311 Q750 269 750 220 Z " />
<glyph glyph-name="sigma1" unicode="&#x3c2;" horiz-adv-x="472" d="M30 221 Q30 265 43.5 308 Q57 351 87.5 385 Q118 419 167 440 Q216 461 286 461 Q334 461 377 447 Q420 433 455 406 L378 289 Q361 300 341.5 308 Q322 316 297 316 Q253 316 230 291 Q207 266 207 234 Q207 218 213 204 Q219 190 233 176 Q247 162 269.5 147.5 Q292 133 326 117 Q390 86 416.5 60.5 Q443 35 443 5 Q443 -16 430 -41.5 Q417 -67 396 -93 Q375 -119 347.5 -145 Q320 -171 291 -193 L202 -121 Q210 -113 221 -102 Q232 -91 241.5 -80 Q251 -69 257.5 -58 Q264 -47 264 -39 Q264 -25 238 -14 Q212 -3 161 23 Q95 56 62.5 104 Q30 152 30 221 Z " />
<glyph glyph-name="chi" unicode="&#x3c7;" horiz-adv-x="527" d="M360 227 L521 0 L338 0 L263 125 L189 0 L6 0 L166 227 L14 446 L197 446 L263 331 L330 446 L513 446 L360 227 Z " />
<glyph glyph-name="upsilon" unicode="&#x3c5;" horiz-adv-x="564" d="M339 446 L516 446 L516 232 Q516 159 493 112 Q470 65 434 38 Q398 11 355 0.5 Q312 -10 273 -10 Q169 -10 108 41.5 Q47 93 47 192 L47 446 L223 446 L223 194 Q223 168 235.5 147 Q248 126 280 126 Q310 126 324.5 148 Q339 170 339 207 L339 446 Z " />
<glyph glyph-name="zeta" unicode="&#x3b6;" horiz-adv-x="456" d="M272 529 L58 529 L58 659 L493 659 L493 545 Q450 510 399.5 466 Q349 422 305 375.5 Q261 329 231.5 285 Q202 241 202 207 Q202 185 216 169.5 Q230 154 255 139.5 Q280 125 315 109 Q350 93 393 70 Q428 51 448 31.5 Q468 12 468 -15 Q468 -39 452.5 -67 Q437 -95 413.5 -122 Q390 -149 363.5 -173 Q337 -197 316 -213 L227 -141 Q253 -114 271 -92 Q289 -70 289 -58 Q289 -46 271.5 -35.5 Q254 -25 216 -8 Q175 10 140.5 29 Q106 48 80.5 70.5 Q55 93 40.5 120 Q26 147 26 180 Q26 224 45.5 267 Q65 310 99 353 Q133 396 177.5 439 Q222 482 273 526 L272 529 Z " />
<glyph glyph-name="Euro" unicode="&#x20ac;" horiz-adv-x="588" d="M247 316 L463 316 L463 245 L259 245 Q269 216 285 197 Q301 178 321 166.5 Q341 155 364 150 Q387 145 410 145 Q439 145 471 152.5 Q503 160 533 173 L582 38 Q544 17 500 4.5 Q456 -8 390 -8 Q333 -8 281 6.5 Q229 21 187.5 52 Q146 83 117 131 Q88 179 76 245 L29 245 L29 316 L68 316 L68 353 L29 353 L29 424 L77 424 Q89 476 115.5 521.5 Q142 567 182 600 Q222 633 275.5 652 Q329 671 395 671 Q442 671 485 662 Q528 653 560 639 L517 496 Q468 516 419 516 Q370 516 328 495.5 Q286 475 264 424 L463 424 L463 353 L247 353 L247 316 Z " />
<glyph glyph-name="semicolon" unicode="&#x3b;" horiz-adv-x="293" d="M228 341 Q228 306 203 281.5 Q178 257 144 257 Q109 257 84 281.5 Q59 306 59 341 Q59 376 84 400.5 Q109 425 144 425 Q179 425 203.5 400.5 Q228 376 228 341 Z M55 71 Q55 89 61.5 105 Q68 121 79.5 133 Q91 145 106.5 151.5 Q122 158 140 158 Q186 158 207.5 128 Q229 98 229 55 Q229 22 218.5 -11.5 Q208 -45 188 -73.5 Q168 -102 139.5 -123 Q111 -144 74 -152 L47 -96 Q83 -84 105.5 -60 Q128 -36 137 -6 Q134 -7 129 -7 Q99 -7 77 13 Q55 33 55 71 Z " />
<glyph glyph-name="eth" unicode="&#xf0;" horiz-adv-x="577" d="M260 703 Q308 675 348 644 L413 689 L449 635 L400 601 Q478 528 514.5 442.5 Q551 357 551 261 Q551 212 537 163.5 Q523 115 492 76.5 Q461 38 411.5 14 Q362 -10 291 -10 Q228 -10 179.5 7.5 Q131 25 98 55.5 Q65 86 47.5 129 Q30 172 30 223 Q30 272 48.5 314.5 Q67 357 100 389 Q133 421 178 439.5 Q223 458 276 458 Q302 458 319.5 452 Q337 446 347 437 L350 440 Q335 466 320 484.5 Q305 503 280 523 L218 483 L181 532 L230 566 Q221 574 203.5 585.5 Q186 597 169 608 L260 703 Z M291 318 Q251 318 228 290.5 Q205 263 205 225 Q205 180 227 154 Q249 128 291 128 Q333 128 355 156 Q377 184 377 225 Q377 265 354 291.5 Q331 318 291 318 Z " />
<glyph glyph-name="sfthyphen" unicode="&#xad;" horiz-adv-x="373" d="M50 301 L323 301 L323 193 L50 193 L50 301 Z " />
<glyph glyph-name="OE" unicode="&#x152;" horiz-adv-x="937" d="M899 0 L506 0 Q458 -12 401 -12 Q317 -12 250 14 Q183 40 136 86 Q89 132 64 194.5 Q39 257 39 330 Q39 402 65.5 464.5 Q92 527 139.5 573.5 Q187 620 254 647 Q321 674 402 674 Q463 674 516 659 L892 659 L892 512 L666 512 L666 409 L886 409 L886 268 L666 268 L666 148 L899 148 L899 0 Z M404 143 Q440 143 470 157 L470 501 Q455 507 438.5 511 Q422 515 404 515 Q365 515 333.5 500.5 Q302 486 280 461 Q258 436 246.5 402.5 Q235 369 235 330 Q235 290 247 255.5 Q259 221 280.5 196 Q302 171 333.5 157 Q365 143 404 143 Z " />
<glyph glyph-name="acute" unicode="&#xb4;" horiz-adv-x="527" d="M197 521 L277 658 L428 658 L298 521 L197 521 Z " />
<glyph glyph-name="circumflex" unicode="&#x2c6;" horiz-adv-x="527" d="M316 660 L433 521 L312 521 L267 582 L218 521 L101 521 L223 660 L316 660 Z " />
<glyph glyph-name="registered" unicode="&#xae;" horiz-adv-x="594" d="M305 583 Q360 583 386 554.5 Q412 526 412 490 Q412 444 372 419 L428 313 L339 313 L298 401 L276 401 L276 313 L192 313 L192 583 L305 583 Z M329 490 Q329 501 321 509.5 Q313 518 296 518 L276 518 L276 463 L297 463 Q314 463 321.5 471.5 Q329 480 329 490 Z M550 443 Q550 388 530 341 Q510 294 476 259.5 Q442 225 396.5 205.5 Q351 186 299 186 Q241 186 194.5 205.5 Q148 225 115.5 259.5 Q83 294 65.5 341 Q48 388 48 443 Q48 498 68 544.5 Q88 591 122 625 Q156 659 201.5 678 Q247 697 299 697 Q351 697 397 678 Q443 659 477 625 Q511 591 530.5 544.5 Q550 498 550 443 Z M491 443 Q491 483 477 519.5 Q463 556 437.5 583.5 Q412 611 376.5 627 Q341 643 299 643 Q257 643 221.5 627 Q186 611 160 583.5 Q134 556 119.5 519.5 Q105 483 105 443 Q105 401 119 364 Q133 327 158.5 299.5 Q184 272 219.5 256 Q255 240 299 240 Q342 240 377 256 Q412 272 437.5 299.5 Q463 327 477 364 Q491 401 491 443 Z " />
<glyph glyph-name="Alpha" unicode="&#x391;" horiz-adv-x="688" d="M436 659 L681 0 L493 0 L463 90 L219 90 L189 0 L7 0 L257 659 L436 659 Z M267 235 L416 235 L345 453 L341 453 L267 235 Z " />
<glyph glyph-name="Beta" unicode="&#x392;" horiz-adv-x="637" d="M489 355 Q546 330 571.5 286.5 Q597 243 597 195 Q597 157 582 121.5 Q567 86 540 59 Q513 32 474 16 Q435 0 387 0 L59 0 L59 660 L365 660 Q410 660 445.5 647 Q481 634 505.5 611 Q530 588 543.5 557.5 Q557 527 557 492 Q557 456 540.5 420.5 Q524 385 489 359 L489 355 Z M409 207 Q409 235 389 250.5 Q369 266 346 266 L253 266 L253 148 L351 148 Q368 148 379 153.5 Q390 159 397 168 Q404 177 406.5 187.5 Q409 198 409 207 Z M252 408 L317 408 Q336 408 354 419 Q372 430 372 459 Q372 483 356.5 497.5 Q341 512 316 512 L252 512 L252 408 Z " />
<glyph glyph-name="Gamma" unicode="&#x393;" horiz-adv-x="522" d="M254 0 L58 0 L58 659 L490 659 L490 512 L254 512 L254 0 Z " />
<glyph glyph-name="Delta" unicode="&#x394;" horiz-adv-x="688" d="M436 659 L681 0 L7 0 L257 659 L436 659 Z M236 148 L448 148 L345 452 L341 452 L236 148 Z " />
<glyph glyph-name="Epsilon" unicode="&#x395;" horiz-adv-x="527" d="M487 0 L58 0 L58 659 L480 659 L480 512 L254 512 L254 410 L474 410 L474 269 L254 269 L254 148 L487 148 L487 0 Z " />
<glyph glyph-name="Zeta" unicode="&#x396;" horiz-adv-x="584" d="M538 520 L259 147 L553 147 L553 0 L34 0 L34 139 L316 512 L46 512 L46 659 L538 659 L538 520 Z " />
<glyph glyph-name="Eta" unicode="&#x397;" horiz-adv-x="687" d="M426 0 L426 260 L254 260 L254 0 L58 0 L58 659 L254 659 L254 409 L426 409 L426 659 L623 659 L623 0 L426 0 Z " />
<glyph glyph-name="Iota" unicode="&#x399;" horiz-adv-x="319" d="M61 0 L61 659 L257 659 L257 0 L61 0 Z " />
<glyph glyph-name="Kappa" unicode="&#x39a;" horiz-adv-x="678" d="M255 361 L452 659 L661 659 L438 341 L672 0 L456 0 L255 320 L255 0 L58 0 L58 659 L255 659 L255 361 Z " />
<glyph glyph-name="Mu" unicode="&#x39c;" horiz-adv-x="815" d="M366 85 L250 303 Q249 302 247 302 L247 0 L58 0 L58 659 L247 659 L409 357 L565 659 L756 659 L756 0 L566 0 L566 299 L563 299 L449 85 L366 85 Z " />
<glyph glyph-name="Nu" unicode="&#x39d;" horiz-adv-x="721" d="M227 659 L462 336 L466 336 L466 659 L662 659 L662 0 L497 0 L258 328 L254 328 L254 0 L58 0 L58 659 L227 659 Z " />
<glyph glyph-name="Omicron" unicode="&#x39f;" horiz-adv-x="805" d="M401 -12 Q318 -12 251 14 Q184 40 137 86 Q90 132 64.5 194.5 Q39 257 39 330 Q39 402 66 464.5 Q93 527 141 573.5 Q189 620 256 646.5 Q323 673 403 673 Q484 673 551 646.5 Q618 620 665 573.5 Q712 527 738 464.5 Q764 402 764 330 Q764 257 737.5 194.5 Q711 132 663 86 Q615 40 548 14 Q481 -12 401 -12 Z M404 513 Q366 513 334.5 498.5 Q303 484 281 459.5 Q259 435 247 401.5 Q235 368 235 330 Q235 290 247 255.5 Q259 221 281 196 Q303 171 334.5 157 Q366 143 404 143 Q443 143 473.5 157.5 Q504 172 526 197 Q548 222 559.5 256.5 Q571 291 571 330 Q571 368 559.5 401.5 Q548 435 526.5 459.5 Q505 484 474 498.5 Q443 513 404 513 Z " />
<glyph glyph-name="Rho" unicode="&#x3a1;" horiz-adv-x="604" d="M58 659 L329 659 Q396 659 445 637.5 Q494 616 525.5 582 Q557 548 572.5 505.5 Q588 463 588 420 Q588 375 571.5 331.5 Q555 288 523.5 254.5 Q492 221 446 200.5 Q400 180 341 180 L254 180 L254 0 L58 0 L58 659 Z M253 511 L253 327 L303 327 Q327 327 344 334.5 Q361 342 372.5 355 Q384 368 389.5 384 Q395 400 395 417 Q395 433 389.5 450 Q384 467 373 480.5 Q362 494 344 502.5 Q326 511 302 511 L253 511 Z " />
<glyph glyph-name="Tau" unicode="&#x3a4;" horiz-adv-x="578" d="M386 512 L386 0 L190 0 L190 512 L11 512 L11 660 L566 660 L566 512 L386 512 Z " />
<glyph glyph-name="Upsilon" unicode="&#x3a5;" horiz-adv-x="648" d="M331 404 Q341 434 352.5 462.5 Q364 491 375 518 L431 659 L641 659 L422 244 L422 0 L226 0 L226 244 L6 659 L217 659 Q244 595 270.5 536 Q297 477 327 404 L331 404 Z " />
<glyph glyph-name="Chi" unicode="&#x3a7;" horiz-adv-x="697" d="M460 337 L690 0 L465 0 L348 200 L231 0 L6 0 Q63 85 120 168.5 Q177 252 235 337 Q180 418 125.5 498 Q71 578 17 659 L242 659 L348 474 L454 659 L679 659 L460 337 Z " />
<glyph glyph-name="alphatonos" unicode="&#x3ac;" horiz-adv-x="603" d="M388 36 Q329 -9 247 -9 Q195 -9 154 7 Q113 23 85 52.5 Q57 82 42 124 Q27 166 27 217 Q27 266 42.5 310 Q58 354 88.5 387.5 Q119 421 163 440.5 Q207 460 264 460 Q299 460 333.5 449.5 Q368 439 394 416 L396 418 L396 447 L554 447 L554 0 L391 0 L391 34 L388 36 Z M289 321 Q269 321 253 313.5 Q237 306 226 293 Q215 280 209 262.5 Q203 245 203 226 Q203 181 225 154 Q247 127 289 127 Q330 127 353 155 Q376 183 376 226 Q376 267 353 294 Q330 321 289 321 Z M210 519 L299 667 L448 667 L308 519 L210 519 Z " />
<glyph glyph-name="etatonos" unicode="&#x3ae;" horiz-adv-x="572" d="M216 393 Q249 431 289.5 445.5 Q330 460 364 460 Q442 460 482 415.5 Q522 371 522 292 L522 0 L345 0 L345 251 Q345 280 332.5 301 Q320 322 293 322 Q264 322 244 300 Q224 278 224 229 L224 0 L48 0 L48 446 L213 446 L213 394 L216 393 Z M194 519 L283 667 L432 667 L292 519 L194 519 Z " />
<glyph glyph-name="iotatonos" unicode="&#x3af;" horiz-adv-x="281" d="M51 0 L51 446 L229 446 L229 0 L51 0 Z M84 519 L173 667 L322 667 L182 519 L84 519 Z " />
<glyph glyph-name="iotadieresistonos" unicode="&#x390;" horiz-adv-x="281" d="M51 0 L51 446 L229 446 L229 0 L51 0 Z M54 605 Q54 575 33 551.5 Q12 528 -22 528 Q-57 528 -77.5 551.5 Q-98 575 -98 604 Q-98 639 -74.5 659.5 Q-51 680 -22 680 Q12 680 33 657.5 Q54 635 54 605 Z M391 605 Q391 575 370 551.5 Q349 528 314 528 Q279 528 259 551.5 Q239 575 239 604 Q239 639 262 659.5 Q285 680 314 680 Q348 680 369.5 657.5 Q391 635 391 605 Z M39 521 L115 687 L264 687 L137 521 L39 521 Z " />
<glyph glyph-name="iotadieresis" unicode="&#x3ca;" horiz-adv-x="281" d="M51 0 L51 446 L229 446 L229 0 L51 0 Z M119 606 Q119 576 98 552.5 Q77 529 44 529 Q9 529 -11.5 552.5 Q-32 576 -32 605 Q-32 640 -8.5 660.5 Q15 681 44 681 Q77 681 98 659 Q119 637 119 606 Z M319 606 Q319 576 298.5 552.5 Q278 529 244 529 Q209 529 189 552.5 Q169 576 169 605 Q169 640 192 660.5 Q215 681 244 681 Q278 681 298.5 659 Q319 637 319 606 Z " />
<glyph glyph-name="upsilondieresis" unicode="&#x3cb;" horiz-adv-x="564" d="M339 446 L516 446 L516 232 Q516 159 493 112 Q470 65 434 38 Q398 11 355 0.5 Q312 -10 273 -10 Q169 -10 108 41.5 Q47 93 47 192 L47 446 L223 446 L223 194 Q223 168 235.5 147 Q248 126 280 126 Q310 126 324.5 148 Q339 170 339 207 L339 446 Z M258 606 Q258 576 237 552.5 Q216 529 183 529 Q148 529 127.5 552.5 Q107 576 107 605 Q107 640 130.5 660.5 Q154 681 183 681 Q216 681 237 659 Q258 637 258 606 Z M458 606 Q458 576 437.5 552.5 Q417 529 383 529 Q348 529 328 552.5 Q308 576 308 605 Q308 640 331 660.5 Q354 681 383 681 Q417 681 437.5 659 Q458 637 458 606 Z " />
<glyph glyph-name="omicrontonos" unicode="&#x3cc;" horiz-adv-x="580" d="M290 461 Q351 461 399 443 Q447 425 480 393.5 Q513 362 530.5 318.5 Q548 275 548 225 Q548 174 530 130.5 Q512 87 478 56 Q444 25 396.5 7.5 Q349 -10 290 -10 Q229 -10 181 7.5 Q133 25 99.5 56.5 Q66 88 48 131 Q30 174 30 225 Q30 275 48.5 318.5 Q67 362 101 393.5 Q135 425 183 443 Q231 461 290 461 Z M292 322 Q251 322 228.5 293.5 Q206 265 206 227 Q206 182 228 155 Q250 128 292 128 Q333 128 356 156 Q379 184 379 227 Q379 268 356 295 Q333 322 292 322 Z M226 519 L315 667 L464 667 L324 519 L226 519 Z " />
<glyph glyph-name="upsilontonos" unicode="&#x3cd;" horiz-adv-x="574" d="M218 519 L307 667 L456 667 L316 519 L218 519 Z M348 446 L525 446 L525 232 Q525 159 502 112 Q479 65 443 38 Q407 11 364 0.5 Q321 -10 282 -10 Q178 -10 117 41.5 Q56 93 56 192 L56 446 L232 446 L232 194 Q232 168 244.5 147 Q257 126 289 126 Q319 126 333.5 148 Q348 170 348 207 L348 446 Z " />
<glyph glyph-name="upsilondieresistonos" unicode="&#x3b0;" horiz-adv-x="564" d="M339 446 L516 446 L516 232 Q516 159 493 112 Q470 65 434 38 Q398 11 355 0.5 Q312 -10 273 -10 Q169 -10 108 41.5 Q47 93 47 192 L47 446 L223 446 L223 194 Q223 168 235.5 147 Q248 126 280 126 Q310 126 324.5 148 Q339 170 339 207 L339 446 Z M193 605 Q193 575 172 551.5 Q151 528 117 528 Q82 528 61.5 551.5 Q41 575 41 604 Q41 639 64.5 659.5 Q88 680 117 680 Q151 680 172 657.5 Q193 635 193 605 Z M530 605 Q530 575 509 551.5 Q488 528 453 528 Q418 528 398 551.5 Q378 575 378 604 Q378 639 401 659.5 Q424 680 453 680 Q487 680 508.5 657.5 Q530 635 530 605 Z M178 521 L254 687 L403 687 L276 521 L178 521 Z " />
<glyph glyph-name="guilsinglleft" unicode="&#x2039;" horiz-adv-x="325" d="M307 11 L151 11 L26 205 L26 215 L152 408 L307 408 L173 213 L307 11 Z " />
<glyph glyph-name="guilsinglright" unicode="&#x203a;" horiz-adv-x="325" d="M153 213 L19 408 L174 408 L300 215 L300 205 L175 11 L19 11 L153 213 Z " />
<glyph glyph-name="logicalnot" unicode="&#xac;" horiz-adv-x="588" d="M506 75 L402 75 L402 240 L81 240 L81 339 L506 339 L506 75 Z " />
<glyph glyph-name="tilde" unicode="&#x2dc;" horiz-adv-x="527" d="M94 520 Q95 547 100 572.5 Q105 598 117 618.5 Q129 639 148 651 Q167 663 195 663 Q215 663 234.5 654 Q254 645 271.5 634.5 Q289 624 305.5 615.5 Q322 607 336 607 Q352 607 358 624 Q364 641 367 660 L444 660 Q442 597 418.5 557.5 Q395 518 342 518 Q323 518 305 526.5 Q287 535 270 545.5 Q253 556 237 564.5 Q221 573 206 573 Q196 573 190 568 Q184 563 180 555.5 Q176 548 174 538.5 Q172 529 171 520 L94 520 Z " />
<glyph glyph-name="primemod" unicode="&#x2b9;" horiz-adv-x="281" d="M17 293 L129 571 L265 571 L108 293 L17 293 Z " />
<glyph glyph-name="caron" unicode="&#x2c7;" horiz-adv-x="527" d="M220 521 L101 660 L222 660 L267 599 L316 660 L433 660 L313 521 L220 521 Z " />
<glyph glyph-name="breve" unicode="&#x2d8;" horiz-adv-x="557" d="M277 516 Q242 516 216 528 Q190 540 173.5 560 Q157 580 148.5 606.5 Q140 633 140 662 L224 662 Q225 627 241.5 613.5 Q258 600 279 600 Q301 600 315.5 616.5 Q330 633 332 662 L415 662 Q414 636 406 610 Q398 584 381.5 563 Q365 542 339 529 Q313 516 277 516 Z " />
<glyph glyph-name="dotaccent" unicode="&#x2d9;" horiz-adv-x="546" d="M379 599 Q379 580 372.5 562.5 Q366 545 353.5 532 Q341 519 324 511.5 Q307 504 286 504 Q242 504 217.5 532 Q193 560 193 597 Q193 618 201 635 Q209 652 222 664.5 Q235 677 251.5 683.5 Q268 690 286 690 Q307 690 324 682.5 Q341 675 353 662.5 Q365 650 372 633.5 Q379 617 379 599 Z " />
<glyph glyph-name="ring" unicode="&#x2da;" horiz-adv-x="533" d="M274 498 Q245 498 221 507.5 Q197 517 180 534 Q163 551 153 574 Q143 597 143 623 Q143 650 153 674 Q163 698 180.5 715.5 Q198 733 222 743.5 Q246 754 274 754 Q303 754 327.5 743.5 Q352 733 370 715.5 Q388 698 398 674 Q408 650 408 623 Q408 596 397.5 573.5 Q387 551 369 534 Q351 517 326.5 507.5 Q302 498 274 498 Z M274 673 Q256 673 243 658 Q230 643 230 623 Q230 605 242.5 592 Q255 579 274 579 Q294 579 307 592 Q320 605 320 623 Q320 643 307 658 Q294 673 274 673 Z " />
<glyph glyph-name="ogonek" unicode="&#x2db;" horiz-adv-x="534" d="M420 21 Q403 7 388 -10 Q373 -27 361.5 -45 Q350 -63 343 -80.5 Q336 -98 336 -113 Q336 -140 354 -152 Q372 -164 400 -164 Q417 -164 437 -159 Q457 -154 476 -146 L498 -205 Q466 -224 425.5 -233.5 Q385 -243 351 -243 Q288 -243 260 -218 Q232 -193 232 -152 Q232 -133 240.5 -107.5 Q249 -82 268 -55 Q287 -28 317.5 -1.5 Q348 25 393 47 L420 21 Z " />
<glyph glyph-name="hungarumlaut" unicode="&#x2dd;" horiz-adv-x="527" d="M103 521 L183 658 L334 658 L204 521 L103 521 Z M271 521 L351 658 L502 658 L372 521 L271 521 Z " />
<glyph glyph-name="Circumflex" unicode="&#xf6c0;" horiz-adv-x="805" d="M460 863 L577 724 L456 724 L411 785 L362 724 L245 724 L367 863 L460 863 Z " />
<glyph glyph-name="commaaccent" unicode="&#xf6c3;" horiz-adv-x="646" d="M249 -122 Q249 -88 272 -65 Q295 -42 327 -42 Q369 -42 389 -69.5 Q409 -97 409 -136 Q409 -166 399.5 -197 Q390 -228 371.5 -254.5 Q353 -281 326.5 -300.5 Q300 -320 266 -327 L242 -275 Q275 -264 295.5 -242 Q316 -220 324 -193 L317 -193 Q289 -193 269 -175 Q249 -157 249 -122 Z " />
<glyph glyph-name="Acute" unicode="&#xf6c9;" horiz-adv-x="819" d="M334 721 L418 866 L566 866 L437 721 L334 721 Z " />
<glyph glyph-name="Caron" unicode="&#xf6ca;" horiz-adv-x="805" d="M360 724 L240 863 L361 863 L406 802 L455 863 L572 863 L453 724 L360 724 Z " />
<glyph glyph-name="Dieresis" unicode="&#xf6cb;" horiz-adv-x="793" d="M379 796 Q379 765 358 741.5 Q337 718 303 718 Q268 718 247 741.5 Q226 765 226 794 Q226 829 250 850 Q274 871 303 871 Q336 871 357.5 848 Q379 825 379 796 Z M579 796 Q579 765 558.5 741.5 Q538 718 504 718 Q468 718 448 741.5 Q428 765 428 794 Q428 829 451.5 850 Q475 871 504 871 Q537 871 558 848 Q579 825 579 796 Z " />
<glyph glyph-name="Grave" unicode="&#xf6ce;" horiz-adv-x="805" d="M371 721 L242 866 L390 866 L474 721 L371 721 Z " />
<glyph glyph-name="Hungarumlaut" unicode="&#xf6cf;" horiz-adv-x="819" d="M266 721 L350 866 L498 866 L369 721 L266 721 Z M438 721 L522 866 L670 866 L541 721 L438 721 Z " />
<glyph glyph-name="Macron" unicode="&#xf6d0;" horiz-adv-x="805" d="M229 848 L566 848 L566 744 L229 744 L229 848 Z " />
<glyph glyph-name="ff" unicode="&#xfb00;" horiz-adv-x="653" d="M646 528 Q629 531 614 531 Q590 531 576 527 Q562 523 554.5 514.5 Q547 506 544.5 493.5 Q542 481 542 465 L542 446 L646 446 L646 317 L542 317 L542 0 L368 0 L368 317 L249 317 L249 0 L75 0 L75 317 L5 317 L5 446 L75 446 L75 474 Q75 574 122.5 622 Q170 670 280 670 Q318 670 353 664 L353 529 Q336 532 321 532 Q275 532 262 516.5 Q249 501 249 468 L249 446 L368 446 L368 474 Q368 574 415 622 Q462 670 573 670 Q611 670 646 664 L646 528 Z " />
<glyph glyph-name="fi" unicode="&#xfb01;" horiz-adv-x="578" d="M355 0 L355 317 L249 317 L249 0 L75 0 L75 317 L5 317 L5 446 L75 446 L75 474 Q75 574 122.5 622 Q170 670 280 670 Q309 670 336 667 L336 531 Q331 532 326.5 532 Q322 532 317 532 Q295 532 282 528 Q269 524 261.5 516 Q254 508 251.5 496 Q249 484 249 467 L249 446 L533 446 L533 0 L355 0 Z M540 597 Q540 578 533.5 561 Q527 544 514.5 531 Q502 518 485 510.5 Q468 503 447 503 Q403 503 378.5 531 Q354 559 354 596 Q354 617 362 634 Q370 651 383 663.5 Q396 676 412.5 682.5 Q429 689 447 689 Q489 689 514.5 661.5 Q540 634 540 597 Z " />
<glyph glyph-name="fl" unicode="&#xfb02;" horiz-adv-x="607" d="M382 0 L382 659 L559 659 L559 0 L382 0 Z M353 529 Q336 532 321 532 Q296 532 282 527.5 Q268 523 260.5 515 Q253 507 251 494 Q249 481 249 465 L249 446 L353 446 L353 317 L249 317 L249 0 L75 0 L75 317 L5 317 L5 446 L75 446 L75 474 Q75 574 122.5 622 Q170 670 280 670 Q318 670 353 664 L353 529 Z " />
<glyph glyph-name="ffi" unicode="&#xfb03;" horiz-adv-x="871" d="M629 530 Q624 531 621 531 Q618 531 614 531 Q590 531 576 527 Q562 523 554.5 514.5 Q547 506 544.5 493.5 Q542 481 542 465 L542 446 L826 446 L826 0 L648 0 L648 317 L542 317 L542 0 L368 0 L368 317 L249 317 L249 0 L75 0 L75 317 L5 317 L5 446 L75 446 L75 474 Q75 574 122.5 622 Q170 670 280 670 Q318 670 353 664 L353 529 Q336 532 321 532 Q275 532 262 516.5 Q249 501 249 468 L249 446 L368 446 L368 474 Q368 574 415 622 Q462 670 573 670 Q602 670 629 667 L629 530 Z M833 597 Q833 578 826.5 561 Q820 544 807.5 531 Q795 518 778 510.5 Q761 503 740 503 Q696 503 671.5 531 Q647 559 647 596 Q647 617 655 634 Q663 651 676 663.5 Q689 676 705.5 682.5 Q722 689 740 689 Q782 689 807.5 661.5 Q833 634 833 597 Z " />
<glyph glyph-name="ffl" unicode="&#xfb04;" horiz-adv-x="900" d="M675 0 L675 659 L852 659 L852 0 L675 0 Z M646 528 Q629 531 614 531 Q590 531 576 527 Q562 523 554.5 514.5 Q547 506 544.5 493.5 Q542 481 542 465 L542 446 L646 446 L646 317 L542 317 L542 0 L368 0 L368 317 L249 317 L249 0 L75 0 L75 317 L5 317 L5 446 L75 446 L75 474 Q75 574 122.5 622 Q170 670 280 670 Q318 670 353 664 L353 529 Q336 532 321 532 Q275 532 262 516.5 Q249 501 249 468 L249 446 L368 446 L368 474 Q368 574 415 622 Q462 670 573 670 Q611 670 646 664 L646 528 Z " />
<glyph glyph-name="paragraph" unicode="&#xb6;" horiz-adv-x="596" d="M262 239 Q213 239 172.5 256 Q132 273 102.5 302.5 Q73 332 56.5 372 Q40 412 40 458 Q40 503 57 542.5 Q74 582 103.5 611 Q133 640 173.5 657 Q214 674 262 674 L341 674 L341 239 L262 239 Z M259 -75 Q296 -72 320 -63.5 Q344 -55 358 -38 Q372 -21 377.5 4.5 Q383 30 383 66 L383 675 L549 675 L549 53 Q549 -18 529 -67 Q509 -116 474 -146.5 Q439 -177 389.5 -191.5 Q340 -206 282 -207 L259 -75 Z " />
<glyph glyph-name="quotesinglbase" unicode="&#x201a;" horiz-adv-x="254" d="M44 71 Q44 107 68 131.5 Q92 156 127 156 Q172 156 193 126.5 Q214 97 214 55 Q214 23 203.5 -9.5 Q193 -42 173.5 -70 Q154 -98 126 -118.5 Q98 -139 62 -147 L36 -92 Q71 -81 93 -57 Q115 -33 124 -4 Q121 -5 116 -5 Q87 -5 65.5 14 Q44 33 44 71 Z " />
<glyph glyph-name="quotedblbase" unicode="&#x201e;" horiz-adv-x="453" d="M44 71 Q44 107 68 131.5 Q92 156 127 156 Q172 156 193 126.5 Q214 97 214 55 Q214 23 203.5 -9.5 Q193 -42 173.5 -70 Q154 -98 126 -118.5 Q98 -139 62 -147 L36 -92 Q71 -81 93 -57 Q115 -33 124 -4 Q121 -5 116 -5 Q87 -5 65.5 14 Q44 33 44 71 Z M242 71 Q242 107 266 131.5 Q290 156 325 156 Q370 156 391 126.5 Q412 97 412 55 Q412 23 401.5 -9.5 Q391 -42 371.5 -70 Q352 -98 324 -118.5 Q296 -139 260 -147 L234 -92 Q269 -81 291 -57 Q313 -33 322 -4 Q319 -5 314 -5 Q285 -5 263.5 14 Q242 33 242 71 Z " />
<glyph glyph-name="ellipsis" unicode="&#x2026;" horiz-adv-x="772" d="M228 73 Q228 56 221 40.5 Q214 25 203 13.5 Q192 2 176.5 -4.5 Q161 -11 145 -11 Q127 -11 111 -4.5 Q95 2 83 13.5 Q71 25 64 40.5 Q57 56 57 73 Q57 109 83 134 Q109 159 145 159 Q178 159 203 134 Q228 109 228 73 Z M473 73 Q473 38 448 13.5 Q423 -11 389 -11 Q371 -11 355 -4.5 Q339 2 327.5 13.5 Q316 25 309 40.5 Q302 56 302 73 Q302 109 327.5 134 Q353 159 389 159 Q423 159 448 134 Q473 109 473 73 Z M717 73 Q717 38 692 13.5 Q667 -11 633 -11 Q615 -11 599.5 -4.5 Q584 2 572 13.5 Q560 25 553 40.5 Q546 56 546 73 Q546 91 553 106.5 Q560 122 572 134 Q584 146 599.5 152.5 Q615 159 633 159 Q668 159 692.5 134 Q717 109 717 73 Z " />
<glyph glyph-name="dagger" unicode="&#x2020;" horiz-adv-x="596" d="M58 493 L206 493 L206 670 L380 670 L380 493 L537 493 L537 351 L381 351 L381 -119 L207 -119 L207 351 L58 351 L58 493 Z " />
<glyph glyph-name="daggerdbl" unicode="&#x2021;" horiz-adv-x="596" d="M58 501 L206 501 L206 670 L379 670 L379 501 L537 501 L537 363 L380 363 L380 195 L537 195 L537 55 L380 55 L380 -119 L207 -119 L207 55 L58 55 L58 195 L207 195 L207 363 L58 363 L58 501 Z " />
<glyph glyph-name="brokenbar" unicode="&#xa6;" horiz-adv-x="369" d="M123 370 L123 738 L248 738 L248 370 L123 370 Z M248 255 L248 -149 L123 -149 L123 255 L248 255 Z " />
<glyph glyph-name="divide" unicode="&#xf7;" horiz-adv-x="588" d="M376 462 Q376 428 352.5 404.5 Q329 381 295 381 Q261 381 237.5 404.5 Q214 428 214 462 Q214 496 237.5 519.5 Q261 543 295 543 Q329 543 352.5 519.5 Q376 496 376 462 Z M79 243 L79 344 L507 344 L507 243 L79 243 Z M376 127 Q376 93 352.5 69.5 Q329 46 295 46 Q261 46 237.5 69.5 Q214 93 214 127 Q214 161 237.5 184.5 Q261 208 295 208 Q329 208 352.5 184.5 Q376 161 376 127 Z " />
<glyph glyph-name="multiply" unicode="&#xd7;" horiz-adv-x="588" d="M295 216 Q238 157 179 100 L107 172 Q164 231 223 288 L109 403 Q126 420 144 437.5 Q162 455 179 473 L293 359 L408 474 L480 401 L366 286 L479 173 Q462 155 444.5 137 Q427 119 409 102 L295 216 L295 216 Z " />
<glyph glyph-name="cedilla" unicode="&#xb8;" horiz-adv-x="443" d="M166 -99 L222 34 L279 29 L245 -52 Q305 -56 332 -84.5 Q359 -113 359 -149 Q359 -179 347 -199.5 Q335 -220 314.5 -233 Q294 -246 268.5 -252 Q243 -258 216 -258 Q192 -258 169 -254 Q146 -250 126 -242 L146 -177 Q157 -181 173.5 -184.5 Q190 -188 207 -188 Q227 -188 244 -179 Q261 -170 261 -147 Q261 -128 247 -119.5 Q233 -111 218 -111 Q210 -111 204 -112 Q198 -113 193 -115 L166 -99 Z " />
<glyph glyph-name="macron" unicode="&#xaf;" horiz-adv-x="557" d="M110 642 L443 642 L443 539 L110 539 L110 642 Z " />
<glyph glyph-name="questiondown" unicode="&#xbf;" horiz-adv-x="537" d="M241 -40 Q241 -67 261.5 -80 Q282 -93 312 -93 Q344 -93 375.5 -79 Q407 -65 432 -49 L497 -172 Q444 -212 385.5 -229 Q327 -246 273 -246 Q216 -246 173.5 -230.5 Q131 -215 103 -190 Q75 -165 61 -132.5 Q47 -100 47 -67 Q47 -32 62 -2 Q77 28 99 53.5 Q121 79 147 100.5 Q173 122 195 142 Q217 162 232 180.5 Q247 199 247 218 Q247 228 242 241 L377 264 Q396 226 396 197 Q396 157 372 126 Q348 95 318.5 68 Q289 41 265 15.5 Q241 -10 241 -40 Z M213 378 Q213 413 237.5 437 Q262 461 296 461 Q338 461 360.5 437 Q383 413 383 378 Q383 342 358.5 317.5 Q334 293 296 293 Q259 293 236 317.5 Q213 342 213 378 Z " />
<glyph glyph-name="exclamdown" unicode="&#xa1;" horiz-adv-x="339" d="M242 243 L258 -243 L80 -243 Q85 -121 89 -0.5 Q93 120 97 243 L242 243 Z M255 378 Q255 360 248 344 Q241 328 229.5 316.5 Q218 305 203 298 Q188 291 171 291 Q135 291 109 316.5 Q83 342 83 378 Q83 395 90 410 Q97 425 109 436.5 Q121 448 137 454.5 Q153 461 171 461 Q205 461 230 436.5 Q255 412 255 378 Z " />
<glyph glyph-name="florin" unicode="&#x192;" horiz-adv-x="588" d="M127 404 L218 404 L224 466 Q230 524 247.5 564.5 Q265 605 292 629.5 Q319 654 353.5 665 Q388 676 427 676 Q465 676 506 667.5 Q547 659 586 642 L542 509 Q525 515 506 519.5 Q487 524 470 524 Q444 524 425.5 509.5 Q407 495 402 454 L397 404 L505 404 L505 289 L387 289 L373 145 Q366 78 350.5 30.5 Q335 -17 309 -47.5 Q283 -78 246.5 -92 Q210 -106 162 -106 Q114 -106 73 -93 Q32 -80 7 -69 L44 70 Q63 63 82.5 58 Q102 53 117 53 Q149 53 166.5 75.5 Q184 98 191 156 L206 289 L127 289 L127 404 Z " />
<glyph glyph-name="Iotadieresis" unicode="&#x3aa;" horiz-adv-x="319" d="M61 0 L61 659 L257 659 L257 0 L61 0 Z M137 796 Q137 765 116 741.5 Q95 718 61 718 Q26 718 5 741.5 Q-16 765 -16 794 Q-16 829 8 850 Q32 871 61 871 Q94 871 115.5 848 Q137 825 137 796 Z M337 796 Q337 765 316.5 741.5 Q296 718 262 718 Q226 718 206 741.5 Q186 765 186 794 Q186 829 209.5 850 Q233 871 262 871 Q295 871 316 848 Q337 825 337 796 Z " />
<glyph glyph-name="Upsilondieresis" unicode="&#x3ab;" horiz-adv-x="648" d="M331 404 Q341 434 352.5 462.5 Q364 491 375 518 L431 659 L641 659 L422 244 L422 0 L226 0 L226 244 L6 659 L217 659 Q244 595 270.5 536 Q297 477 327 404 L331 404 Z M305 789 Q305 758 284 734.5 Q263 711 229 711 Q194 711 173 734.5 Q152 758 152 787 Q152 822 176 843 Q200 864 229 864 Q262 864 283.5 841 Q305 818 305 789 Z M505 789 Q505 758 484.5 734.5 Q464 711 430 711 Q394 711 374 734.5 Q354 758 354 787 Q354 822 377.5 843 Q401 864 430 864 Q463 864 484 841 Q505 818 505 789 Z " />
<glyph glyph-name="bullet" unicode="&#x2022;" horiz-adv-x="490" d="M93 244 Q93 275 105 303 Q117 331 138 352 Q159 373 186.5 385 Q214 397 246 397 Q278 397 306 385 Q334 373 354.5 352 Q375 331 387 303 Q399 275 399 244 Q399 212 387 184.5 Q375 157 354.5 136.5 Q334 116 306 104 Q278 92 246 92 Q214 92 186.5 104 Q159 116 138 136.5 Q117 157 105 184.5 Q93 212 93 244 Z " />
<glyph glyph-name="Alphatonos" unicode="&#x386;" horiz-adv-x="688" d="M436 659 L681 0 L493 0 L463 90 L219 90 L189 0 L7 0 L257 659 L436 659 Z M267 235 L416 235 L345 453 L341 453 L267 235 Z M-58 506 L31 654 L180 654 L40 506 L-58 506 Z " />
<glyph glyph-name="anoteleia" unicode="&#x387;" horiz-adv-x="290" d="M225 333 Q225 298 200.5 273.5 Q176 249 142 249 Q124 249 108.5 255.5 Q93 262 81.5 273.5 Q70 285 63 300.5 Q56 316 56 333 Q56 351 63 366.5 Q70 382 81.5 393.5 Q93 405 108.5 411.5 Q124 418 142 418 Q159 418 174 411.5 Q189 405 200.5 393.5 Q212 382 218.5 366.5 Q225 351 225 333 Z " />
<glyph glyph-name="Epsilontonos" unicode="&#x388;" horiz-adv-x="527" d="M487 0 L58 0 L58 659 L480 659 L480 512 L254 512 L254 410 L474 410 L474 269 L254 269 L254 148 L487 148 L487 0 Z M-216 506 L-127 654 L22 654 L-118 506 L-216 506 Z " />
<glyph glyph-name="Etatonos" unicode="&#x389;" horiz-adv-x="687" d="M426 0 L426 260 L254 260 L254 0 L58 0 L58 659 L254 659 L254 409 L426 409 L426 659 L623 659 L623 0 L426 0 Z M-216 506 L-127 654 L22 654 L-118 506 L-216 506 Z " />
<glyph glyph-name="Iotatonos" unicode="&#x38a;" horiz-adv-x="319" d="M61 0 L61 659 L257 659 L257 0 L61 0 Z M-211 506 L-122 654 L27 654 L-113 506 L-211 506 Z " />
<glyph glyph-name="Omicrontonos" unicode="&#x38c;" horiz-adv-x="805" d="M401 -12 Q318 -12 251 14 Q184 40 137 86 Q90 132 64.5 194.5 Q39 257 39 330 Q39 402 66 464.5 Q93 527 141 573.5 Q189 620 256 646.5 Q323 673 403 673 Q484 673 551 646.5 Q618 620 665 573.5 Q712 527 738 464.5 Q764 402 764 330 Q764 257 737.5 194.5 Q711 132 663 86 Q615 40 548 14 Q481 -12 401 -12 Z M404 513 Q366 513 334.5 498.5 Q303 484 281 459.5 Q259 435 247 401.5 Q235 368 235 330 Q235 290 247 255.5 Q259 221 281 196 Q303 171 334.5 157 Q366 143 404 143 Q443 143 473.5 157.5 Q504 172 526 197 Q548 222 559.5 256.5 Q571 291 571 330 Q571 368 559.5 401.5 Q548 435 526.5 459.5 Q505 484 474 498.5 Q443 513 404 513 Z M-155 506 L-66 654 L83 654 L-57 506 L-155 506 Z " />
<glyph glyph-name="Upsilontonos" unicode="&#x38e;" horiz-adv-x="648" d="M331 404 Q341 434 352.5 462.5 Q364 491 375 518 L431 659 L641 659 L422 244 L422 0 L226 0 L226 244 L6 659 L217 659 Q244 595 270.5 536 Q297 477 327 404 L331 404 Z M-247 506 L-158 654 L-9 654 L-149 506 L-247 506 Z " />
<glyph glyph-name="Omegatonos" unicode="&#x38f;" horiz-adv-x="803" d="M403 514 Q365 514 333.5 499.5 Q302 485 280 460 Q258 435 246 402.5 Q234 370 234 334 Q234 277 254.5 231 Q275 185 330 156 L330 0 L25 0 L25 147 L113 147 Q113 148 113.5 148.5 Q114 149 114 150 Q77 187 58.5 237 Q40 287 40 342 Q40 416 67 477 Q94 538 142 582 Q190 626 256.5 650 Q323 674 403 674 Q484 674 550.5 649.5 Q617 625 664 581 Q711 537 736.5 476 Q762 415 762 342 Q762 291 744 239.5 Q726 188 689 150 L689 147 L776 147 L776 0 L461 0 L461 153 Q517 179 542.5 226 Q568 273 568 334 Q568 368 557 400.5 Q546 433 525 458.5 Q504 484 473 499 Q442 514 403 514 Z M-164 506 L-75 654 L74 654 L-66 506 L-164 506 Z " />
<glyph glyph-name="omegatonos" unicode="&#x3ce;" horiz-adv-x="781" d="M750 220 Q750 174 737 132.5 Q724 91 697.5 59.5 Q671 28 631 9.5 Q591 -9 538 -9 Q497 -9 456 4 Q415 17 389 55 L384 55 Q357 23 319.5 7 Q282 -9 239 -9 Q187 -9 148 8.5 Q109 26 82.5 56.5 Q56 87 43 128.5 Q30 170 30 218 Q30 268 44.5 310.5 Q59 353 88 384.5 Q117 416 159 435.5 Q201 455 257 459 L290 345 Q250 338 229.5 303.5 Q209 269 209 220 Q209 165 226.5 144.5 Q244 124 268 124 Q293 124 307 142 Q321 160 321 188 L321 298 L459 298 L459 186 Q459 154 475.5 139 Q492 124 510 124 Q536 124 553.5 145.5 Q571 167 571 220 Q571 269 550 303.5 Q529 338 491 345 L525 459 Q580 455 622.5 435.5 Q665 416 693 384.5 Q721 353 735.5 311 Q750 269 750 220 Z M325 512 L414 660 L563 660 L423 512 L325 512 Z " />
<glyph glyph-name="epsilontonos" unicode="&#x3ad;" horiz-adv-x="423" d="M151 519 L240 667 L389 667 L249 519 L151 519 Z M331 310 Q315 320 293.5 325 Q272 330 252 330 Q228 330 213 323 Q198 316 198 301 Q198 293 205 285.5 Q212 278 233 278 L304 278 L304 181 L250 181 Q225 181 213 172.5 Q201 164 201 151 Q201 137 214 131 Q227 125 247 125 Q284 125 308.5 137.5 Q333 150 344 161 L412 46 Q398 36 380.5 26 Q363 16 339 8 Q315 0 285 -5 Q255 -10 216 -10 Q164 -10 127.5 0 Q91 10 67.5 27 Q44 44 33 67 Q22 90 22 116 Q22 128 26 144 Q30 160 39 176 Q48 192 64 207 Q80 222 104 233 L104 237 Q68 250 49.5 275 Q31 300 31 329 Q31 356 43 380.5 Q55 405 79.5 423 Q104 441 140.5 452 Q177 463 226 463 Q275 463 315.5 452 Q356 441 391 417 L331 310 Z " />
<glyph glyph-name="currency" unicode="&#xa4;" horiz-adv-x="588" d="M88 291 Q88 317 95 343 Q102 369 114 392 L54 454 Q74 473 92 492 Q110 511 130 530 L189 469 Q212 483 239 489.5 Q266 496 292 496 Q318 496 345.5 489 Q373 482 396 468 L455 529 L532 453 Q517 438 501.5 423 Q486 408 471 392 Q483 370 490 344 Q497 318 497 291 Q497 265 489.5 238.5 Q482 212 470 190 L532 131 L455 54 L395 114 Q347 86 292 86 Q237 86 189 114 L130 54 L55 131 Q70 146 84.5 161 Q99 176 114 190 Q100 213 94 238.5 Q88 264 88 291 Z M194 291 Q194 271 201.5 253 Q209 235 222.5 222 Q236 209 253.5 201.5 Q271 194 291 194 Q333 194 361.5 222 Q390 250 390 291 Q390 311 382.5 329 Q375 347 361.5 360.5 Q348 374 330 381.5 Q312 389 291 389 Q271 389 253.5 381.5 Q236 374 222.5 360.5 Q209 347 201.5 329 Q194 311 194 291 Z " />
<glyph glyph-name="Oslash" unicode="&#xd8;" horiz-adv-x="805" d="M401 -12 Q291 -12 208 34 L181 0 L100 0 L156 69 Q99 116 69 183 Q39 250 39 330 Q39 402 66 464.5 Q93 527 141 573.5 Q189 620 256 646.5 Q323 673 403 673 Q460 673 509 659.5 Q558 646 600 622 L630 660 L710 660 L650 586 Q704 538 734 472.5 Q764 407 764 330 Q764 257 737.5 194.5 Q711 132 663 86 Q615 40 548 14 Q481 -12 401 -12 Z M404 513 Q366 513 334.5 498.5 Q303 484 281 459.5 Q259 435 247 401.5 Q235 368 235 330 Q235 295 244 265 Q253 235 270 211 L492 488 Q454 513 404 513 Z M571 330 Q571 395 538 445 L315 167 Q334 156 356 149.5 Q378 143 404 143 Q443 143 473.5 157.5 Q504 172 526 197 Q548 222 559.5 256.5 Q571 291 571 330 Z " />
<glyph glyph-name="oslash" unicode="&#xf8;" horiz-adv-x="572" d="M287 461 Q331 461 367.5 451.5 Q404 442 434 425 L452 446 L522 446 L476 394 Q545 328 545 225 Q545 174 527 130.5 Q509 87 475 56 Q441 25 393.5 7.5 Q346 -10 287 -10 Q210 -10 152 18 L136 0 L65 0 L106 48 Q68 80 47.5 125 Q27 170 27 225 Q27 275 45.5 318.5 Q64 362 98 393.5 Q132 425 180 443 Q228 461 287 461 Z M289 322 Q248 322 225.5 293.5 Q203 265 203 227 Q203 193 214 172 L334 310 Q324 315 313 318.5 Q302 322 289 322 Z M376 227 Q376 248 368 269 L252 134 Q268 128 289 128 Q330 128 353 156 Q376 184 376 227 Z " />
<glyph glyph-name="ae" unicode="&#xe6;" horiz-adv-x="826" d="M575 463 Q626 463 667 447 Q708 431 737 401 Q766 371 782 327 Q798 283 798 226 L798 200 L503 200 Q505 180 514 166 Q523 152 536 143 Q549 134 565.5 130 Q582 126 600 126 Q630 126 655.5 139 Q681 152 701 175 L787 69 Q775 55 755.5 41 Q736 27 710.5 15 Q685 3 653.5 -4.5 Q622 -12 586 -12 Q519 -12 468 6.5 Q417 25 391 70 Q374 45 351 29 Q328 13 302 3.5 Q276 -6 249.5 -10 Q223 -14 198 -14 Q159 -14 127.5 -5 Q96 4 73 20.5 Q50 37 37.5 61 Q25 85 25 115 Q25 147 38 175 Q51 203 76 223.5 Q101 244 138.5 256 Q176 268 226 268 L309 268 L309 276 Q309 312 287 326 Q265 340 234 340 Q196 340 156.5 326 Q117 312 94 296 L48 402 Q109 437 163 449 Q217 461 252 461 Q306 461 348 446.5 Q390 432 412 396 Q444 429 485.5 446 Q527 463 575 463 Z M195 144 Q195 122 207.5 109.5 Q220 97 243 97 Q275 97 293.5 122 Q312 147 312 186 L312 199 L271 199 Q239 199 217 187 Q195 175 195 144 Z M574 340 Q546 340 528.5 319.5 Q511 299 506 273 L640 273 Q635 304 619 322 Q603 340 574 340 Z " />
<glyph glyph-name="thorn" unicode="&#xfe;" horiz-adv-x="606" d="M221 28 L221 -217 L46 -217 L46 659 L221 659 L221 408 Q223 406 225 406 Q254 436 291 447 Q328 458 360 458 Q416 458 457.5 439.5 Q499 421 526 389 Q553 357 566.5 315 Q580 273 580 225 Q580 171 562.5 127.5 Q545 84 514 53.5 Q483 23 441.5 6.5 Q400 -10 351 -10 Q322 -10 287 -1 Q252 8 226 32 L221 28 Z M320 123 Q358 123 382 151.5 Q406 180 406 222 Q406 267 383.5 293.5 Q361 320 320 320 Q281 320 257 291.5 Q233 263 233 220 Q233 181 255.5 152 Q278 123 320 123 Z " />
<glyph glyph-name="Thorn" unicode="&#xde;" horiz-adv-x="604" d="M58 661 L254 661 L254 581 L329 581 Q396 581 445 559.5 Q494 538 525.5 504 Q557 470 572.5 427.5 Q588 385 588 342 Q588 297 571.5 253.5 Q555 210 523.5 176.5 Q492 143 446 122.5 Q400 102 341 102 L254 102 L254 0 L58 0 L58 661 Z M254 433 L253 249 L303 249 Q327 249 344 256.5 Q361 264 372.5 277 Q384 290 389.5 306 Q395 322 395 339 Q395 355 389.5 372 Q384 389 373 402.5 Q362 416 344 424.5 Q326 433 302 433 L254 433 Z " />
<glyph glyph-name="AE" unicode="&#xc6;" horiz-adv-x="912" d="M445 110 L259 110 L198 0 L2 0 L400 659 L867 659 L867 512 L641 512 L641 409 L861 409 L861 268 L641 268 L641 148 L874 148 L874 0 L445 0 L445 110 Z M333 243 L445 243 L445 437 L441 437 L333 243 Z " />
<glyph glyph-name="Eth" unicode="&#xd0;" horiz-adv-x="696" d="M58 0 L58 290 L9 290 L9 378 L58 378 L58 659 L301 659 Q391 659 457.5 633 Q524 607 568 562.5 Q612 518 633.5 458.5 Q655 399 655 332 Q655 266 634 206 Q613 146 571 100.5 Q529 55 465.5 27.5 Q402 0 317 0 L58 0 Z M463 333 Q463 512 292 512 L253 512 L253 378 L362 378 L362 290 L253 290 L253 148 L293 148 Q379 148 421 195 Q463 242 463 333 Z " />
<glyph glyph-name="cent" unicode="&#xa2;" horiz-adv-x="580" d="M277 80 Q182 96 134.5 157.5 Q87 219 87 306 Q87 401 138.5 463 Q190 525 277 542 L277 657 L372 657 L372 547 Q416 543 450.5 528.5 Q485 514 512 494 L435 377 Q397 404 356 404 Q313 404 288 377.5 Q263 351 263 313 Q263 271 290 249 Q317 227 354 227 Q408 227 454 264 L527 143 Q505 125 465.5 104.5 Q426 84 372 78 L372 -32 L277 -32 L277 80 Z " />
<glyph glyph-name="periodcentered" unicode="&#xb7;" horiz-adv-x="290" d="M225 251 Q225 217 200.5 192.5 Q176 168 142 168 Q124 168 108.5 174.5 Q93 181 81.5 192.5 Q70 204 63 219 Q56 234 56 251 Q56 287 81.5 311.5 Q107 336 142 336 Q176 336 200.5 311.5 Q225 287 225 251 Z " />
<glyph glyph-name="Scaron" unicode="&#x160;" horiz-adv-x="579" d="M443 468 Q401 494 365 506.5 Q329 519 292 519 Q263 519 248 505.5 Q233 492 233 475 Q233 457 247.5 444 Q262 431 305 419 Q363 403 408 385.5 Q453 368 484 343.5 Q515 319 531 284 Q547 249 547 198 Q547 155 529.5 116.5 Q512 78 478.5 49 Q445 20 396 3 Q347 -14 284 -14 Q213 -14 139.5 9.5 Q66 33 2 95 L92 223 Q108 208 130 193.5 Q152 179 176.5 167 Q201 155 227 147.5 Q253 140 278 140 Q319 140 338.5 155 Q358 170 358 193 Q358 208 350.5 218 Q343 228 330 235.5 Q317 243 300 248.5 Q283 254 264 259 Q222 271 181.5 287.5 Q141 304 110 329 Q79 354 60 388 Q41 422 41 469 Q41 513 57.5 551 Q74 589 105 616.5 Q136 644 181.5 660 Q227 676 284 676 Q328 676 365 668.5 Q402 661 432.5 649 Q463 637 487 622 Q511 607 530 592 L443 468 Z M248 724 L128 863 L249 863 L294 802 L343 863 L460 863 L341 724 L248 724 Z " />
<glyph glyph-name="Zcaron" unicode="&#x17d;" horiz-adv-x="584" d="M538 520 L259 147 L553 147 L553 0 L34 0 L34 139 L316 512 L46 512 L46 659 L538 659 L538 520 Z M265 724 L145 863 L266 863 L311 802 L360 863 L477 863 L358 724 L265 724 Z " />
<glyph glyph-name="scaron" unicode="&#x161;" horiz-adv-x="434" d="M213 461 Q242 461 290 450.5 Q338 440 392 404 L328 295 Q318 301 304.5 307.5 Q291 314 277 318.5 Q263 323 249 326 Q235 329 225 329 Q205 329 205 317 Q205 310 210.5 305 Q216 300 237 294 Q272 283 303 272 Q334 261 357 243.5 Q380 226 393.5 200 Q407 174 407 135 Q407 103 393 76 Q379 49 353.5 29.5 Q328 10 292 -1 Q256 -12 211 -12 Q166 -12 111.5 3 Q57 18 10 63 L85 170 Q107 150 139.5 134.5 Q172 119 209 119 Q239 119 239 136 Q239 145 232.5 150.5 Q226 156 196 166 Q169 175 140.5 186 Q112 197 88.5 213.5 Q65 230 50.5 254.5 Q36 279 36 316 Q36 346 48 372.5 Q60 399 83 418.5 Q106 438 139 449.5 Q172 461 213 461 Z M166 521 L47 660 L168 660 L213 599 L262 660 L379 660 L259 521 L166 521 Z " />
<glyph glyph-name="zcaron" unicode="&#x17e;" horiz-adv-x="467" d="M425 322 L235 129 L435 129 L435 0 L32 0 L32 124 L220 316 L45 316 L45 446 L425 446 L425 322 Z M195 521 L76 660 L197 660 L242 599 L291 660 L408 660 L288 521 L195 521 Z " />
<glyph glyph-name="Ydieresis" unicode="&#x178;" horiz-adv-x="648" d="M331 404 Q341 434 352.5 462.5 Q364 491 375 518 L431 659 L641 659 L422 244 L422 0 L226 0 L226 244 L6 659 L217 659 Q244 595 270.5 536 Q297 477 327 404 L331 404 Z M306 792 Q306 761 285 737.5 Q264 714 230 714 Q195 714 174 737.5 Q153 761 153 790 Q153 825 177 846 Q201 867 230 867 Q263 867 284.5 844 Q306 821 306 792 Z M506 792 Q506 761 485.5 737.5 Q465 714 431 714 Q395 714 375 737.5 Q355 761 355 790 Q355 825 378.5 846 Q402 867 431 867 Q464 867 485 844 Q506 821 506 792 Z " />
<glyph glyph-name="Agrave" unicode="&#xc0;" horiz-adv-x="688" d="M436 659 L681 0 L493 0 L463 90 L219 90 L189 0 L7 0 L257 659 L436 659 Z M267 235 L416 235 L345 453 L341 453 L267 235 Z M289 721 L160 866 L308 866 L392 721 L289 721 Z " />
<glyph glyph-name="Aacute" unicode="&#xc1;" horiz-adv-x="688" d="M436 659 L681 0 L493 0 L463 90 L219 90 L189 0 L7 0 L257 659 L436 659 Z M267 235 L416 235 L345 453 L341 453 L267 235 Z M296 721 L380 866 L528 866 L399 721 L296 721 Z " />
<glyph glyph-name="Acircumflex" unicode="&#xc2;" horiz-adv-x="688" d="M436 659 L681 0 L493 0 L463 90 L219 90 L189 0 L7 0 L257 659 L436 659 Z M267 235 L416 235 L345 453 L341 453 L267 235 Z M398 862 L515 723 L394 723 L349 784 L300 723 L183 723 L305 862 L398 862 Z " />
<glyph glyph-name="Atilde" unicode="&#xc3;" horiz-adv-x="688" d="M436 659 L681 0 L493 0 L463 90 L219 90 L189 0 L7 0 L257 659 L436 659 Z M267 235 L416 235 L345 453 L341 453 L267 235 Z M169 728 Q170 755 175 780.5 Q180 806 192 826.5 Q204 847 223 859 Q242 871 270 871 Q290 871 309.5 862 Q329 853 346.5 842.5 Q364 832 380.5 823.5 Q397 815 411 815 Q427 815 433 832 Q439 849 442 868 L519 868 Q517 805 493.5 765.5 Q470 726 417 726 Q398 726 380 734.5 Q362 743 345 753.5 Q328 764 312 772.5 Q296 781 281 781 Q271 781 265 776 Q259 771 255 763.5 Q251 756 249 746.5 Q247 737 246 728 L169 728 Z " />
<glyph glyph-name="Adieresis" unicode="&#xc4;" horiz-adv-x="688" d="M436 659 L681 0 L493 0 L463 90 L219 90 L189 0 L7 0 L257 659 L436 659 Z M267 235 L416 235 L345 453 L341 453 L267 235 Z M322 796 Q322 765 301 741.5 Q280 718 246 718 Q211 718 190 741.5 Q169 765 169 794 Q169 829 193 850 Q217 871 246 871 Q279 871 300.5 848 Q322 825 322 796 Z M522 796 Q522 765 501.5 741.5 Q481 718 447 718 Q411 718 391 741.5 Q371 765 371 794 Q371 829 394.5 850 Q418 871 447 871 Q480 871 501 848 Q522 825 522 796 Z " />
<glyph glyph-name="Aring" unicode="&#xc5;" horiz-adv-x="688" d="M7 0 L255 655 Q214 690 214 748 Q214 775 224 799 Q234 823 251.5 840.5 Q269 858 293 868.5 Q317 879 345 879 Q374 879 398.5 868.5 Q423 858 441 840.5 Q459 823 469 799 Q479 775 479 748 Q479 719 468 695.5 Q457 672 437 655 L681 0 L493 0 L463 90 L219 90 L189 0 L7 0 Z M267 235 L416 235 L345 453 L341 453 L267 235 Z M345 798 Q327 798 314 783 Q301 768 301 748 Q301 730 313.5 717 Q326 704 345 704 Q365 704 378 717 Q391 730 391 748 Q391 768 378 783 Q365 798 345 798 Z " />
<glyph glyph-name="Ccedilla" unicode="&#xc7;" horiz-adv-x="652" d="M293 -112 L335 -10 Q264 -2 209 27 Q154 56 116.5 100.5 Q79 145 59.5 203 Q40 261 40 327 Q40 396 64.5 458.5 Q89 521 134.5 569 Q180 617 246 645 Q312 673 396 673 Q438 673 472.5 666 Q507 659 535 647.5 Q563 636 584.5 622.5 Q606 609 623 597 L535 462 Q508 484 477 495 Q446 506 408 506 Q373 506 342 493.5 Q311 481 287.5 457.5 Q264 434 250.5 401 Q237 368 237 326 Q237 285 250 253 Q263 221 285 198.5 Q307 176 337 164 Q367 152 401 152 Q438 152 476 163 Q514 174 556 209 L642 74 Q594 35 531.5 11 Q469 -13 393 -14 L372 -65 Q432 -69 459 -97.5 Q486 -126 486 -162 Q486 -192 474 -212.5 Q462 -233 441.5 -246 Q421 -259 395.5 -265 Q370 -271 343 -271 Q319 -271 296 -267 Q273 -263 253 -255 L273 -190 Q284 -194 300.5 -197.5 Q317 -201 334 -201 Q354 -201 371 -192 Q388 -183 388 -160 Q388 -141 374 -132.5 Q360 -124 345 -124 Q337 -124 331 -125 Q325 -126 320 -128 L293 -112 Z " />
<glyph glyph-name="Egrave" unicode="&#xc8;" horiz-adv-x="527" d="M487 0 L58 0 L58 659 L480 659 L480 512 L254 512 L254 410 L474 410 L474 269 L254 269 L254 148 L487 148 L487 0 Z M249 721 L120 866 L268 866 L352 721 L249 721 Z " />
<glyph glyph-name="Eacute" unicode="&#xc9;" horiz-adv-x="527" d="M487 0 L58 0 L58 659 L480 659 L480 512 L254 512 L254 410 L474 410 L474 269 L254 269 L254 148 L487 148 L487 0 Z M201 721 L285 866 L433 866 L304 721 L201 721 Z " />
<glyph glyph-name="Ecircumflex" unicode="&#xca;" horiz-adv-x="527" d="M487 0 L58 0 L58 659 L480 659 L480 512 L254 512 L254 410 L474 410 L474 269 L254 269 L254 148 L487 148 L487 0 Z M329 863 L446 724 L325 724 L280 785 L231 724 L114 724 L236 863 L329 863 Z " />
<glyph glyph-name="Edieresis" unicode="&#xcb;" horiz-adv-x="527" d="M487 0 L58 0 L58 659 L480 659 L480 512 L254 512 L254 410 L474 410 L474 269 L254 269 L254 148 L487 148 L487 0 Z M246 796 Q246 765 225 741.5 Q204 718 170 718 Q135 718 114 741.5 Q93 765 93 794 Q93 829 117 850 Q141 871 170 871 Q203 871 224.5 848 Q246 825 246 796 Z M446 796 Q446 765 425.5 741.5 Q405 718 371 718 Q335 718 315 741.5 Q295 765 295 794 Q295 829 318.5 850 Q342 871 371 871 Q404 871 425 848 Q446 825 446 796 Z " />
<glyph glyph-name="Igrave" unicode="&#xcc;" horiz-adv-x="319" d="M61 0 L61 659 L257 659 L257 0 L61 0 Z M117 721 L-12 866 L136 866 L220 721 L117 721 Z " />
<glyph glyph-name="Iacute" unicode="&#xcd;" horiz-adv-x="319" d="M61 0 L61 659 L257 659 L257 0 L61 0 Z M108 721 L192 866 L340 866 L211 721 L108 721 Z " />
<glyph glyph-name="Icircumflex" unicode="&#xce;" horiz-adv-x="319" d="M61 0 L61 659 L257 659 L257 0 L61 0 Z M210 863 L327 724 L206 724 L161 785 L112 724 L-5 724 L117 863 L210 863 Z " />
<glyph glyph-name="Idieresis" unicode="&#xcf;" horiz-adv-x="319" d="M61 0 L61 659 L257 659 L257 0 L61 0 Z M137 796 Q137 765 116 741.5 Q95 718 61 718 Q26 718 5 741.5 Q-16 765 -16 794 Q-16 829 8 850 Q32 871 61 871 Q94 871 115.5 848 Q137 825 137 796 Z M337 796 Q337 765 316.5 741.5 Q296 718 262 718 Q226 718 206 741.5 Q186 765 186 794 Q186 829 209.5 850 Q233 871 262 871 Q295 871 316 848 Q337 825 337 796 Z " />
<glyph glyph-name="Ntilde" unicode="&#xd1;" horiz-adv-x="721" d="M227 659 L462 336 L466 336 L466 659 L662 659 L662 0 L497 0 L258 328 L254 328 L254 0 L58 0 L58 659 L227 659 Z M178 726 Q179 753 184 778.5 Q189 804 201 824.5 Q213 845 232 857 Q251 869 279 869 Q299 869 318.5 860 Q338 851 355.5 840.5 Q373 830 389.5 821.5 Q406 813 420 813 Q436 813 442 830 Q448 847 451 866 L528 866 Q526 803 502.5 763.5 Q479 724 426 724 Q407 724 389 732.5 Q371 741 354 751.5 Q337 762 321 770.5 Q305 779 290 779 Q280 779 274 774 Q268 769 264 761.5 Q260 754 258 744.5 Q256 735 255 726 L178 726 Z " />
<glyph glyph-name="Ograve" unicode="&#xd2;" horiz-adv-x="805" d="M401 -12 Q318 -12 251 14 Q184 40 137 86 Q90 132 64.5 194.5 Q39 257 39 330 Q39 402 66 464.5 Q93 527 141 573.5 Q189 620 256 646.5 Q323 673 403 673 Q484 673 551 646.5 Q618 620 665 573.5 Q712 527 738 464.5 Q764 402 764 330 Q764 257 737.5 194.5 Q711 132 663 86 Q615 40 548 14 Q481 -12 401 -12 Z M404 513 Q366 513 334.5 498.5 Q303 484 281 459.5 Q259 435 247 401.5 Q235 368 235 330 Q235 290 247 255.5 Q259 221 281 196 Q303 171 334.5 157 Q366 143 404 143 Q443 143 473.5 157.5 Q504 172 526 197 Q548 222 559.5 256.5 Q571 291 571 330 Q571 368 559.5 401.5 Q548 435 526.5 459.5 Q505 484 474 498.5 Q443 513 404 513 Z M360 721 L231 866 L379 866 L463 721 L360 721 Z " />
<glyph glyph-name="Oacute" unicode="&#xd3;" horiz-adv-x="805" d="M401 -12 Q318 -12 251 14 Q184 40 137 86 Q90 132 64.5 194.5 Q39 257 39 330 Q39 402 66 464.5 Q93 527 141 573.5 Q189 620 256 646.5 Q323 673 403 673 Q484 673 551 646.5 Q618 620 665 573.5 Q712 527 738 464.5 Q764 402 764 330 Q764 257 737.5 194.5 Q711 132 663 86 Q615 40 548 14 Q481 -12 401 -12 Z M404 513 Q366 513 334.5 498.5 Q303 484 281 459.5 Q259 435 247 401.5 Q235 368 235 330 Q235 290 247 255.5 Q259 221 281 196 Q303 171 334.5 157 Q366 143 404 143 Q443 143 473.5 157.5 Q504 172 526 197 Q548 222 559.5 256.5 Q571 291 571 330 Q571 368 559.5 401.5 Q548 435 526.5 459.5 Q505 484 474 498.5 Q443 513 404 513 Z M355 721 L439 866 L587 866 L458 721 L355 721 Z " />
<glyph glyph-name="Ocircumflex" unicode="&#xd4;" horiz-adv-x="805" d="M401 -12 Q318 -12 251 14 Q184 40 137 86 Q90 132 64.5 194.5 Q39 257 39 330 Q39 402 66 464.5 Q93 527 141 573.5 Q189 620 256 646.5 Q323 673 403 673 Q484 673 551 646.5 Q618 620 665 573.5 Q712 527 738 464.5 Q764 402 764 330 Q764 257 737.5 194.5 Q711 132 663 86 Q615 40 548 14 Q481 -12 401 -12 Z M404 513 Q366 513 334.5 498.5 Q303 484 281 459.5 Q259 435 247 401.5 Q235 368 235 330 Q235 290 247 255.5 Q259 221 281 196 Q303 171 334.5 157 Q366 143 404 143 Q443 143 473.5 157.5 Q504 172 526 197 Q548 222 559.5 256.5 Q571 291 571 330 Q571 368 559.5 401.5 Q548 435 526.5 459.5 Q505 484 474 498.5 Q443 513 404 513 Z M466 863 L583 724 L462 724 L417 785 L368 724 L251 724 L373 863 L466 863 Z " />
<glyph glyph-name="Otilde" unicode="&#xd5;" horiz-adv-x="805" d="M401 -12 Q318 -12 251 14 Q184 40 137 86 Q90 132 64.5 194.5 Q39 257 39 330 Q39 402 66 464.5 Q93 527 141 573.5 Q189 620 256 646.5 Q323 673 403 673 Q484 673 551 646.5 Q618 620 665 573.5 Q712 527 738 464.5 Q764 402 764 330 Q764 257 737.5 194.5 Q711 132 663 86 Q615 40 548 14 Q481 -12 401 -12 Z M404 513 Q366 513 334.5 498.5 Q303 484 281 459.5 Q259 435 247 401.5 Q235 368 235 330 Q235 290 247 255.5 Q259 221 281 196 Q303 171 334.5 157 Q366 143 404 143 Q443 143 473.5 157.5 Q504 172 526 197 Q548 222 559.5 256.5 Q571 291 571 330 Q571 368 559.5 401.5 Q548 435 526.5 459.5 Q505 484 474 498.5 Q443 513 404 513 Z M229 728 Q230 755 235 780.5 Q240 806 252 826.5 Q264 847 283 859 Q302 871 330 871 Q350 871 369.5 862 Q389 853 406.5 842.5 Q424 832 440.5 823.5 Q457 815 471 815 Q487 815 493 832 Q499 849 502 868 L579 868 Q577 805 553.5 765.5 Q530 726 477 726 Q458 726 440 734.5 Q422 743 405 753.5 Q388 764 372 772.5 Q356 781 341 781 Q331 781 325 776 Q319 771 315 763.5 Q311 756 309 746.5 Q307 737 306 728 L229 728 Z " />
<glyph glyph-name="Odieresis" unicode="&#xd6;" horiz-adv-x="805" d="M401 -12 Q318 -12 251 14 Q184 40 137 86 Q90 132 64.5 194.5 Q39 257 39 330 Q39 402 66 464.5 Q93 527 141 573.5 Q189 620 256 646.5 Q323 673 403 673 Q484 673 551 646.5 Q618 620 665 573.5 Q712 527 738 464.5 Q764 402 764 330 Q764 257 737.5 194.5 Q711 132 663 86 Q615 40 548 14 Q481 -12 401 -12 Z M404 513 Q366 513 334.5 498.5 Q303 484 281 459.5 Q259 435 247 401.5 Q235 368 235 330 Q235 290 247 255.5 Q259 221 281 196 Q303 171 334.5 157 Q366 143 404 143 Q443 143 473.5 157.5 Q504 172 526 197 Q548 222 559.5 256.5 Q571 291 571 330 Q571 368 559.5 401.5 Q548 435 526.5 459.5 Q505 484 474 498.5 Q443 513 404 513 Z M379 796 Q379 765 358 741.5 Q337 718 303 718 Q268 718 247 741.5 Q226 765 226 794 Q226 829 250 850 Q274 871 303 871 Q336 871 357.5 848 Q379 825 379 796 Z M579 796 Q579 765 558.5 741.5 Q538 718 504 718 Q468 718 448 741.5 Q428 765 428 794 Q428 829 451.5 850 Q475 871 504 871 Q537 871 558 848 Q579 825 579 796 Z " />
<glyph glyph-name="Ugrave" unicode="&#xd9;" horiz-adv-x="714" d="M459 659 L655 659 L655 274 Q655 212 637 160 Q619 108 582 69.5 Q545 31 489 9.5 Q433 -12 357 -12 Q278 -12 221.5 9 Q165 30 128.5 67.5 Q92 105 75 156 Q58 207 58 268 L58 659 L255 659 L255 266 Q255 244 261 222.5 Q267 201 280 184.5 Q293 168 312 157.5 Q331 147 358 147 Q384 147 403 157 Q422 167 434.5 183 Q447 199 453 219 Q459 239 459 260 L459 659 Z M325 721 L196 866 L344 866 L428 721 L325 721 Z " />
<glyph glyph-name="Uacute" unicode="&#xda;" horiz-adv-x="714" d="M459 659 L655 659 L655 274 Q655 212 637 160 Q619 108 582 69.5 Q545 31 489 9.5 Q433 -12 357 -12 Q278 -12 221.5 9 Q165 30 128.5 67.5 Q92 105 75 156 Q58 207 58 268 L58 659 L255 659 L255 266 Q255 244 261 222.5 Q267 201 280 184.5 Q293 168 312 157.5 Q331 147 358 147 Q384 147 403 157 Q422 167 434.5 183 Q447 199 453 219 Q459 239 459 260 L459 659 Z M299 721 L383 866 L531 866 L402 721 L299 721 Z " />
<glyph glyph-name="Ucircumflex" unicode="&#xdb;" horiz-adv-x="714" d="M459 659 L655 659 L655 274 Q655 212 637 160 Q619 108 582 69.5 Q545 31 489 9.5 Q433 -12 357 -12 Q278 -12 221.5 9 Q165 30 128.5 67.5 Q92 105 75 156 Q58 207 58 268 L58 659 L255 659 L255 266 Q255 244 261 222.5 Q267 201 280 184.5 Q293 168 312 157.5 Q331 147 358 147 Q384 147 403 157 Q422 167 434.5 183 Q447 199 453 219 Q459 239 459 260 L459 659 Z M409 861 L530 724 L405 724 L359 784 L308 724 L188 724 L314 861 L409 861 Z " />
<glyph glyph-name="Udieresis" unicode="&#xdc;" horiz-adv-x="714" d="M459 659 L655 659 L655 274 Q655 212 637 160 Q619 108 582 69.5 Q545 31 489 9.5 Q433 -12 357 -12 Q278 -12 221.5 9 Q165 30 128.5 67.5 Q92 105 75 156 Q58 207 58 268 L58 659 L255 659 L255 266 Q255 244 261 222.5 Q267 201 280 184.5 Q293 168 312 157.5 Q331 147 358 147 Q384 147 403 157 Q422 167 434.5 183 Q447 199 453 219 Q459 239 459 260 L459 659 Z M333 796 Q333 765 312 741.5 Q291 718 257 718 Q222 718 201 741.5 Q180 765 180 794 Q180 829 204 850 Q228 871 257 871 Q290 871 311.5 848 Q333 825 333 796 Z M533 796 Q533 765 512.5 741.5 Q492 718 458 718 Q422 718 402 741.5 Q382 765 382 794 Q382 829 405.5 850 Q429 871 458 871 Q491 871 512 848 Q533 825 533 796 Z " />
<glyph glyph-name="Yacute" unicode="&#xdd;" horiz-adv-x="648" d="M331 404 Q341 434 352.5 462.5 Q364 491 375 518 L431 659 L641 659 L422 244 L422 0 L226 0 L226 244 L6 659 L217 659 Q244 595 270.5 536 Q297 477 327 404 L331 404 Z M266 719 L350 864 L498 864 L369 719 L266 719 Z " />
<glyph glyph-name="agrave" unicode="&#xe0;" horiz-adv-x="603" d="M388 36 Q329 -9 247 -9 Q195 -9 154 7 Q113 23 85 52.5 Q57 82 42 124 Q27 166 27 217 Q27 266 42.5 310 Q58 354 88.5 387.5 Q119 421 163 440.5 Q207 460 264 460 Q299 460 333.5 449.5 Q368 439 394 416 L396 418 L396 447 L554 447 L554 0 L391 0 L391 34 L388 36 Z M289 321 Q269 321 253 313.5 Q237 306 226 293 Q215 280 209 262.5 Q203 245 203 226 Q203 181 225 154 Q247 127 289 127 Q330 127 353 155 Q376 183 376 226 Q376 267 353 294 Q330 321 289 321 Z M261 521 L131 658 L282 658 L362 521 L261 521 Z " />
<glyph glyph-name="aacute" unicode="&#xe1;" horiz-adv-x="603" d="M388 36 Q329 -9 247 -9 Q195 -9 154 7 Q113 23 85 52.5 Q57 82 42 124 Q27 166 27 217 Q27 266 42.5 310 Q58 354 88.5 387.5 Q119 421 163 440.5 Q207 460 264 460 Q299 460 333.5 449.5 Q368 439 394 416 L396 418 L396 447 L554 447 L554 0 L391 0 L391 34 L388 36 Z M289 321 Q269 321 253 313.5 Q237 306 226 293 Q215 280 209 262.5 Q203 245 203 226 Q203 181 225 154 Q247 127 289 127 Q330 127 353 155 Q376 183 376 226 Q376 267 353 294 Q330 321 289 321 Z M221 521 L301 658 L452 658 L322 521 L221 521 Z " />
<glyph glyph-name="acircumflex" unicode="&#xe2;" horiz-adv-x="603" d="M388 36 Q329 -9 247 -9 Q195 -9 154 7 Q113 23 85 52.5 Q57 82 42 124 Q27 166 27 217 Q27 266 42.5 310 Q58 354 88.5 387.5 Q119 421 163 440.5 Q207 460 264 460 Q299 460 333.5 449.5 Q368 439 394 416 L396 418 L396 447 L554 447 L554 0 L391 0 L391 34 L388 36 Z M289 321 Q269 321 253 313.5 Q237 306 226 293 Q215 280 209 262.5 Q203 245 203 226 Q203 181 225 154 Q247 127 289 127 Q330 127 353 155 Q376 183 376 226 Q376 267 353 294 Q330 321 289 321 Z M354 660 L471 521 L350 521 L305 582 L256 521 L139 521 L261 660 L354 660 Z " />
<glyph glyph-name="atilde" unicode="&#xe3;" horiz-adv-x="603" d="M388 36 Q329 -9 247 -9 Q195 -9 154 7 Q113 23 85 52.5 Q57 82 42 124 Q27 166 27 217 Q27 266 42.5 310 Q58 354 88.5 387.5 Q119 421 163 440.5 Q207 460 264 460 Q299 460 333.5 449.5 Q368 439 394 416 L396 418 L396 447 L554 447 L554 0 L391 0 L391 34 L388 36 Z M289 321 Q269 321 253 313.5 Q237 306 226 293 Q215 280 209 262.5 Q203 245 203 226 Q203 181 225 154 Q247 127 289 127 Q330 127 353 155 Q376 183 376 226 Q376 267 353 294 Q330 321 289 321 Z M119 521 Q120 548 125 573.5 Q130 599 142 619.5 Q154 640 173 652 Q192 664 220 664 Q240 664 259.5 655 Q279 646 296.5 635.5 Q314 625 330.5 616.5 Q347 608 361 608 Q377 608 383 625 Q389 642 392 661 L469 661 Q467 598 443.5 558.5 Q420 519 367 519 Q348 519 330 527.5 Q312 536 295 546.5 Q278 557 262 565.5 Q246 574 231 574 Q221 574 215 569 Q209 564 205 556.5 Q201 549 199 539.5 Q197 530 196 521 L119 521 Z " />
<glyph glyph-name="adieresis" unicode="&#xe4;" horiz-adv-x="603" d="M388 36 Q329 -9 247 -9 Q195 -9 154 7 Q113 23 85 52.5 Q57 82 42 124 Q27 166 27 217 Q27 266 42.5 310 Q58 354 88.5 387.5 Q119 421 163 440.5 Q207 460 264 460 Q299 460 333.5 449.5 Q368 439 394 416 L396 418 L396 447 L554 447 L554 0 L391 0 L391 34 L388 36 Z M289 321 Q269 321 253 313.5 Q237 306 226 293 Q215 280 209 262.5 Q203 245 203 226 Q203 181 225 154 Q247 127 289 127 Q330 127 353 155 Q376 183 376 226 Q376 267 353 294 Q330 321 289 321 Z M280 606 Q280 576 259 552.5 Q238 529 205 529 Q170 529 149.5 552.5 Q129 576 129 605 Q129 640 152.5 660.5 Q176 681 205 681 Q238 681 259 659 Q280 637 280 606 Z M480 606 Q480 576 459.5 552.5 Q439 529 405 529 Q370 529 350 552.5 Q330 576 330 605 Q330 640 353 660.5 Q376 681 405 681 Q439 681 459.5 659 Q480 637 480 606 Z " />
<glyph glyph-name="aring" unicode="&#xe5;" horiz-adv-x="603" d="M388 36 Q329 -9 247 -9 Q195 -9 154 7 Q113 23 85 52.5 Q57 82 42 124 Q27 166 27 217 Q27 266 42.5 310 Q58 354 88.5 387.5 Q119 421 163 440.5 Q207 460 264 460 Q299 460 333.5 449.5 Q368 439 394 416 L396 418 L396 447 L554 447 L554 0 L391 0 L391 34 L388 36 Z M289 321 Q269 321 253 313.5 Q237 306 226 293 Q215 280 209 262.5 Q203 245 203 226 Q203 181 225 154 Q247 127 289 127 Q330 127 353 155 Q376 183 376 226 Q376 267 353 294 Q330 321 289 321 Z M296 500 Q267 500 243 509.5 Q219 519 202 536 Q185 553 175 576 Q165 599 165 625 Q165 652 175 676 Q185 700 202.5 717.5 Q220 735 244 745.5 Q268 756 296 756 Q325 756 349.5 745.5 Q374 735 392 717.5 Q410 700 420 676 Q430 652 430 625 Q430 598 419.5 575.5 Q409 553 391 536 Q373 519 348.5 509.5 Q324 500 296 500 Z M296 675 Q278 675 265 660 Q252 645 252 625 Q252 607 264.5 594 Q277 581 296 581 Q316 581 329 594 Q342 607 342 625 Q342 645 329 660 Q316 675 296 675 Z " />
<glyph glyph-name="ccedilla" unicode="&#xe7;" horiz-adv-x="474" d="M190 -99 L228 -9 Q178 -3 140.5 16.5 Q103 36 77.5 66 Q52 96 39.5 134.5 Q27 173 27 218 Q27 273 45.5 318 Q64 363 98 395 Q132 427 178.5 444 Q225 461 281 461 Q337 461 378.5 445.5 Q420 430 452 406 L375 289 Q337 316 296 316 Q253 316 228 289.5 Q203 263 203 225 Q203 183 230 161 Q257 139 294 139 Q348 139 394 176 L467 55 Q455 45 437 33.5 Q419 22 396 12.5 Q373 3 345.5 -4 Q318 -11 286 -12 L269 -52 Q329 -56 356 -84.5 Q383 -113 383 -149 Q383 -179 371 -199.5 Q359 -220 338.5 -233 Q318 -246 292.5 -252 Q267 -258 240 -258 Q216 -258 193 -254 Q170 -250 150 -242 L170 -177 Q181 -181 197.5 -184.5 Q214 -188 231 -188 Q251 -188 268 -179 Q285 -170 285 -147 Q285 -128 271 -119.5 Q257 -111 242 -111 Q234 -111 228 -112 Q222 -113 217 -115 L190 -99 Z " />
<glyph glyph-name="egrave" unicode="&#xe8;" horiz-adv-x="523" d="M264 463 Q371 463 433 401.5 Q495 340 495 226 L495 200 L200 200 Q202 180 211 166 Q220 152 233 143 Q246 134 262.5 130 Q279 126 297 126 Q327 126 352.5 139 Q378 152 398 175 L484 69 Q472 55 452.5 41 Q433 27 407.5 15 Q382 3 350.5 -4.5 Q319 -12 283 -12 Q217 -12 168.5 7.5 Q120 27 88.5 60 Q57 93 42 136 Q27 179 27 226 Q27 275 43.5 318 Q60 361 90.5 393 Q121 425 165 444 Q209 463 264 463 Z M271 340 Q243 340 225.5 319.5 Q208 299 203 273 L337 273 Q332 304 316 322 Q300 340 271 340 Z M238 521 L108 658 L259 658 L339 521 L238 521 Z " />
<glyph glyph-name="eacute" unicode="&#xe9;" horiz-adv-x="523" d="M264 463 Q371 463 433 401.5 Q495 340 495 226 L495 200 L200 200 Q202 180 211 166 Q220 152 233 143 Q246 134 262.5 130 Q279 126 297 126 Q327 126 352.5 139 Q378 152 398 175 L484 69 Q472 55 452.5 41 Q433 27 407.5 15 Q382 3 350.5 -4.5 Q319 -12 283 -12 Q217 -12 168.5 7.5 Q120 27 88.5 60 Q57 93 42 136 Q27 179 27 226 Q27 275 43.5 318 Q60 361 90.5 393 Q121 425 165 444 Q209 463 264 463 Z M271 340 Q243 340 225.5 319.5 Q208 299 203 273 L337 273 Q332 304 316 322 Q300 340 271 340 Z M200 521 L280 658 L431 658 L301 521 L200 521 Z " />
<glyph glyph-name="ecircumflex" unicode="&#xea;" horiz-adv-x="523" d="M264 463 Q371 463 433 401.5 Q495 340 495 226 L495 200 L200 200 Q202 180 211 166 Q220 152 233 143 Q246 134 262.5 130 Q279 126 297 126 Q327 126 352.5 139 Q378 152 398 175 L484 69 Q472 55 452.5 41 Q433 27 407.5 15 Q382 3 350.5 -4.5 Q319 -12 283 -12 Q217 -12 168.5 7.5 Q120 27 88.5 60 Q57 93 42 136 Q27 179 27 226 Q27 275 43.5 318 Q60 361 90.5 393 Q121 425 165 444 Q209 463 264 463 Z M271 340 Q243 340 225.5 319.5 Q208 299 203 273 L337 273 Q332 304 316 322 Q300 340 271 340 Z M321 660 L438 521 L317 521 L272 582 L223 521 L106 521 L228 660 L321 660 Z " />
<glyph glyph-name="edieresis" unicode="&#xeb;" horiz-adv-x="523" d="M264 463 Q371 463 433 401.5 Q495 340 495 226 L495 200 L200 200 Q202 180 211 166 Q220 152 233 143 Q246 134 262.5 130 Q279 126 297 126 Q327 126 352.5 139 Q378 152 398 175 L484 69 Q472 55 452.5 41 Q433 27 407.5 15 Q382 3 350.5 -4.5 Q319 -12 283 -12 Q217 -12 168.5 7.5 Q120 27 88.5 60 Q57 93 42 136 Q27 179 27 226 Q27 275 43.5 318 Q60 361 90.5 393 Q121 425 165 444 Q209 463 264 463 Z M271 340 Q243 340 225.5 319.5 Q208 299 203 273 L337 273 Q332 304 316 322 Q300 340 271 340 Z M247 606 Q247 576 226 552.5 Q205 529 172 529 Q137 529 116.5 552.5 Q96 576 96 605 Q96 640 119.5 660.5 Q143 681 172 681 Q205 681 226 659 Q247 637 247 606 Z M447 606 Q447 576 426.5 552.5 Q406 529 372 529 Q337 529 317 552.5 Q297 576 297 605 Q297 640 320 660.5 Q343 681 372 681 Q406 681 426.5 659 Q447 637 447 606 Z " />
<glyph glyph-name="dotlessi" unicode="&#x131;" horiz-adv-x="283" d="M52 0 L52 446 L230 446 L230 0 L52 0 Z " />
<glyph glyph-name="igrave" unicode="&#xec;" horiz-adv-x="283" d="M98 521 L-32 658 L119 658 L199 521 L98 521 Z M52 0 L52 446 L230 446 L230 0 L52 0 Z " />
<glyph glyph-name="iacute" unicode="&#xed;" horiz-adv-x="283" d="M83 521 L163 658 L314 658 L184 521 L83 521 Z M52 0 L52 446 L230 446 L230 0 L52 0 Z " />
<glyph glyph-name="icircumflex" unicode="&#xee;" horiz-adv-x="283" d="M52 0 L52 446 L230 446 L230 0 L52 0 Z M195 660 L312 521 L191 521 L146 582 L97 521 L-20 521 L102 660 L195 660 Z " />
<glyph glyph-name="idieresis" unicode="&#xef;" horiz-adv-x="283" d="M121 606 Q121 576 100 552.5 Q79 529 46 529 Q11 529 -9.5 552.5 Q-30 576 -30 605 Q-30 640 -6.5 660.5 Q17 681 46 681 Q79 681 100 659 Q121 637 121 606 Z M321 606 Q321 576 300.5 552.5 Q280 529 246 529 Q211 529 191 552.5 Q171 576 171 605 Q171 640 194 660.5 Q217 681 246 681 Q280 681 300.5 659 Q321 637 321 606 Z M52 0 L52 446 L230 446 L230 0 L52 0 Z " />
<glyph glyph-name="ntilde" unicode="&#xf1;" horiz-adv-x="571" d="M216 393 Q249 431 289.5 445.5 Q330 460 364 460 Q442 460 482 415.5 Q522 371 522 292 L522 0 L345 0 L345 251 Q345 280 332.5 301 Q320 322 293 322 Q264 322 244 300 Q224 278 224 229 L224 0 L48 0 L48 446 L213 446 L213 394 L216 393 Z M96 524 Q97 551 102 576.5 Q107 602 119 622.5 Q131 643 150 655 Q169 667 197 667 Q217 667 236.5 658 Q256 649 273.5 638.5 Q291 628 307.5 619.5 Q324 611 338 611 Q354 611 360 628 Q366 645 369 664 L446 664 Q444 601 420.5 561.5 Q397 522 344 522 Q325 522 307 530.5 Q289 539 272 549.5 Q255 560 239 568.5 Q223 577 208 577 Q198 577 192 572 Q186 567 182 559.5 Q178 552 176 542.5 Q174 533 173 524 L96 524 Z " />
<glyph glyph-name="ograve" unicode="&#xf2;" horiz-adv-x="572" d="M287 461 Q348 461 396 443 Q444 425 477 393.5 Q510 362 527.5 318.5 Q545 275 545 225 Q545 174 527 130.5 Q509 87 475 56 Q441 25 393.5 7.5 Q346 -10 287 -10 Q226 -10 178 7.5 Q130 25 96.5 56.5 Q63 88 45 131 Q27 174 27 225 Q27 275 45.5 318.5 Q64 362 98 393.5 Q132 425 180 443 Q228 461 287 461 Z M289 322 Q248 322 225.5 293.5 Q203 265 203 227 Q203 182 225 155 Q247 128 289 128 Q330 128 353 156 Q376 184 376 227 Q376 268 353 295 Q330 322 289 322 Z M255 521 L125 658 L276 658 L356 521 L255 521 Z " />
<glyph glyph-name="oacute" unicode="&#xf3;" horiz-adv-x="572" d="M287 461 Q348 461 396 443 Q444 425 477 393.5 Q510 362 527.5 318.5 Q545 275 545 225 Q545 174 527 130.5 Q509 87 475 56 Q441 25 393.5 7.5 Q346 -10 287 -10 Q226 -10 178 7.5 Q130 25 96.5 56.5 Q63 88 45 131 Q27 174 27 225 Q27 275 45.5 318.5 Q64 362 98 393.5 Q132 425 180 443 Q228 461 287 461 Z M289 322 Q248 322 225.5 293.5 Q203 265 203 227 Q203 182 225 155 Q247 128 289 128 Q330 128 353 156 Q376 184 376 227 Q376 268 353 295 Q330 322 289 322 Z M219 521 L299 658 L450 658 L320 521 L219 521 Z " />
<glyph glyph-name="ocircumflex" unicode="&#xf4;" horiz-adv-x="572" d="M287 461 Q348 461 396 443 Q444 425 477 393.5 Q510 362 527.5 318.5 Q545 275 545 225 Q545 174 527 130.5 Q509 87 475 56 Q441 25 393.5 7.5 Q346 -10 287 -10 Q226 -10 178 7.5 Q130 25 96.5 56.5 Q63 88 45 131 Q27 174 27 225 Q27 275 45.5 318.5 Q64 362 98 393.5 Q132 425 180 443 Q228 461 287 461 Z M289 322 Q248 322 225.5 293.5 Q203 265 203 227 Q203 182 225 155 Q247 128 289 128 Q330 128 353 156 Q376 184 376 227 Q376 268 353 295 Q330 322 289 322 Z M337 660 L454 521 L333 521 L288 582 L239 521 L122 521 L244 660 L337 660 Z " />
<glyph glyph-name="otilde" unicode="&#xf5;" horiz-adv-x="572" d="M287 461 Q348 461 396 443 Q444 425 477 393.5 Q510 362 527.5 318.5 Q545 275 545 225 Q545 174 527 130.5 Q509 87 475 56 Q441 25 393.5 7.5 Q346 -10 287 -10 Q226 -10 178 7.5 Q130 25 96.5 56.5 Q63 88 45 131 Q27 174 27 225 Q27 275 45.5 318.5 Q64 362 98 393.5 Q132 425 180 443 Q228 461 287 461 Z M289 322 Q248 322 225.5 293.5 Q203 265 203 227 Q203 182 225 155 Q247 128 289 128 Q330 128 353 156 Q376 184 376 227 Q376 268 353 295 Q330 322 289 322 Z M110 520 Q111 547 116 572.5 Q121 598 133 618.5 Q145 639 164 651 Q183 663 211 663 Q231 663 250.5 654 Q270 645 287.5 634.5 Q305 624 321.5 615.5 Q338 607 352 607 Q368 607 374 624 Q380 641 383 660 L460 660 Q458 597 434.5 557.5 Q411 518 358 518 Q339 518 321 526.5 Q303 535 286 545.5 Q269 556 253 564.5 Q237 573 222 573 Q212 573 206 568 Q200 563 196 555.5 Q192 548 190 538.5 Q188 529 187 520 L110 520 Z " />
<glyph glyph-name="odieresis" unicode="&#xf6;" horiz-adv-x="572" d="M287 461 Q348 461 396 443 Q444 425 477 393.5 Q510 362 527.5 318.5 Q545 275 545 225 Q545 174 527 130.5 Q509 87 475 56 Q441 25 393.5 7.5 Q346 -10 287 -10 Q226 -10 178 7.5 Q130 25 96.5 56.5 Q63 88 45 131 Q27 174 27 225 Q27 275 45.5 318.5 Q64 362 98 393.5 Q132 425 180 443 Q228 461 287 461 Z M289 322 Q248 322 225.5 293.5 Q203 265 203 227 Q203 182 225 155 Q247 128 289 128 Q330 128 353 156 Q376 184 376 227 Q376 268 353 295 Q330 322 289 322 Z M262 606 Q262 576 241 552.5 Q220 529 187 529 Q152 529 131.5 552.5 Q111 576 111 605 Q111 640 134.5 660.5 Q158 681 187 681 Q220 681 241 659 Q262 637 262 606 Z M462 606 Q462 576 441.5 552.5 Q421 529 387 529 Q352 529 332 552.5 Q312 576 312 605 Q312 640 335 660.5 Q358 681 387 681 Q421 681 441.5 659 Q462 637 462 606 Z " />
<glyph glyph-name="ugrave" unicode="&#xf9;" horiz-adv-x="564" d="M339 52 Q308 16 272.5 4.5 Q237 -7 202 -7 Q48 -7 48 165 L48 446 L224 446 L224 191 Q224 168 237 147 Q250 126 276 126 Q305 126 321.5 148.5 Q338 171 338 216 L338 446 L515 446 L515 0 L342 0 L342 51 L339 52 Z M250 521 L120 658 L271 658 L351 521 L250 521 Z " />
<glyph glyph-name="uacute" unicode="&#xfa;" horiz-adv-x="564" d="M339 52 Q308 16 272.5 4.5 Q237 -7 202 -7 Q48 -7 48 165 L48 446 L224 446 L224 191 Q224 168 237 147 Q250 126 276 126 Q305 126 321.5 148.5 Q338 171 338 216 L338 446 L515 446 L515 0 L342 0 L342 51 L339 52 Z M212 521 L292 658 L443 658 L313 521 L212 521 Z " />
<glyph glyph-name="ucircumflex" unicode="&#xfb;" horiz-adv-x="564" d="M339 52 Q308 16 272.5 4.5 Q237 -7 202 -7 Q48 -7 48 165 L48 446 L224 446 L224 191 Q224 168 237 147 Q250 126 276 126 Q305 126 321.5 148.5 Q338 171 338 216 L338 446 L515 446 L515 0 L342 0 L342 51 L339 52 Z M330 660 L447 521 L326 521 L281 582 L232 521 L115 521 L237 660 L330 660 Z " />
<glyph glyph-name="udieresis" unicode="&#xfc;" horiz-adv-x="564" d="M339 52 Q308 16 272.5 4.5 Q237 -7 202 -7 Q48 -7 48 165 L48 446 L224 446 L224 191 Q224 168 237 147 Q250 126 276 126 Q305 126 321.5 148.5 Q338 171 338 216 L338 446 L515 446 L515 0 L342 0 L342 51 L339 52 Z M256 606 Q256 576 235 552.5 Q214 529 181 529 Q146 529 125.5 552.5 Q105 576 105 605 Q105 640 128.5 660.5 Q152 681 181 681 Q214 681 235 659 Q256 637 256 606 Z M456 606 Q456 576 435.5 552.5 Q415 529 381 529 Q346 529 326 552.5 Q306 576 306 605 Q306 640 329 660.5 Q352 681 381 681 Q415 681 435.5 659 Q456 637 456 606 Z " />
<glyph glyph-name="yacute" unicode="&#xfd;" horiz-adv-x="536" d="M128 -217 L210 0 L166 0 L8 446 L183 446 L229 291 Q232 283 236.5 267.5 Q241 252 246.5 235 Q252 218 256.5 202 Q261 186 264 177 L267 177 Q270 187 276 206 Q282 225 288.5 245.5 Q295 266 301 284.5 Q307 303 310 314 L349 446 L528 446 L293 -217 L128 -217 Z M213 521 L293 658 L444 658 L314 521 L213 521 Z " />
<glyph glyph-name="ydieresis" unicode="&#xff;" horiz-adv-x="536" d="M128 -217 L210 0 L166 0 L8 446 L183 446 L229 291 Q232 283 236.5 267.5 Q241 252 246.5 235 Q252 218 256.5 202 Q261 186 264 177 L267 177 Q270 187 276 206 Q282 225 288.5 245.5 Q295 266 301 284.5 Q307 303 310 314 L349 446 L528 446 L293 -217 L128 -217 Z M243 604 Q243 574 222 550.5 Q201 527 168 527 Q133 527 112.5 550.5 Q92 574 92 603 Q92 638 115.5 658.5 Q139 679 168 679 Q201 679 222 657 Q243 635 243 604 Z M443 604 Q443 574 422.5 550.5 Q402 527 368 527 Q333 527 313 550.5 Q293 574 293 603 Q293 638 316 658.5 Q339 679 368 679 Q402 679 422.5 657 Q443 635 443 604 Z " />
<glyph glyph-name="dollar" unicode="&#x24;" horiz-adv-x="588" d="M455 468 Q390 509 337 516 L337 413 Q390 398 431 380.5 Q472 363 500.5 338.5 Q529 314 544 280 Q559 246 559 198 Q559 158 544.5 122.5 Q530 87 501.5 58.5 Q473 30 432 11.5 Q391 -7 337 -12 L337 -111 L276 -111 L276 -13 Q209 -11 141.5 12.5 Q74 36 14 95 L104 223 Q119 209 139 195 Q159 181 181.5 169.5 Q204 158 228 150 Q252 142 276 140 L276 258 L268 261 Q228 274 189.5 291 Q151 308 120.5 332.5 Q90 357 71.5 390.5 Q53 424 53 469 Q53 511 68 547.5 Q83 584 111.5 611.5 Q140 639 181.5 655.5 Q223 672 276 675 L276 776 L337 776 L337 674 Q409 667 459 642.5 Q509 618 542 592 L455 468 Z M370 193 Q370 210 361 219.5 Q352 229 337 237 L337 147 Q354 154 362 166 Q370 178 370 193 Z M245 475 Q245 462 251.5 452 Q258 442 276 434 L276 514 Q261 509 253 498 Q245 487 245 475 Z " />
<glyph glyph-name="Amacron" unicode="&#x100;" horiz-adv-x="688" d="M436 659 L681 0 L493 0 L463 90 L219 90 L189 0 L7 0 L257 659 L436 659 Z M267 235 L416 235 L345 453 L341 453 L267 235 Z M175 848 L512 848 L512 744 L175 744 L175 848 Z " />
<glyph glyph-name="amacron" unicode="&#x101;" horiz-adv-x="603" d="M388 36 Q329 -9 247 -9 Q195 -9 154 7 Q113 23 85 52.5 Q57 82 42 124 Q27 166 27 217 Q27 266 42.5 310 Q58 354 88.5 387.5 Q119 421 163 440.5 Q207 460 264 460 Q299 460 333.5 449.5 Q368 439 394 416 L396 418 L396 447 L554 447 L554 0 L391 0 L391 34 L388 36 Z M289 321 Q269 321 253 313.5 Q237 306 226 293 Q215 280 209 262.5 Q203 245 203 226 Q203 181 225 154 Q247 127 289 127 Q330 127 353 155 Q376 183 376 226 Q376 267 353 294 Q330 321 289 321 Z M142 642 L475 642 L475 539 L142 539 L142 642 Z " />
<glyph glyph-name="Abreve" unicode="&#x102;" horiz-adv-x="688" d="M436 659 L681 0 L493 0 L463 90 L219 90 L189 0 L7 0 L257 659 L436 659 Z M267 235 L416 235 L345 453 L341 453 L267 235 Z M347 721 Q312 721 286 733 Q260 745 243.5 765 Q227 785 218.5 811.5 Q210 838 210 867 L294 867 Q295 832 311.5 818.5 Q328 805 349 805 Q371 805 385.5 821.5 Q400 838 402 867 L485 867 Q484 841 476 815 Q468 789 451.5 768 Q435 747 409 734 Q383 721 347 721 Z " />
<glyph glyph-name="abreve" unicode="&#x103;" horiz-adv-x="603" d="M388 36 Q329 -9 247 -9 Q195 -9 154 7 Q113 23 85 52.5 Q57 82 42 124 Q27 166 27 217 Q27 266 42.5 310 Q58 354 88.5 387.5 Q119 421 163 440.5 Q207 460 264 460 Q299 460 333.5 449.5 Q368 439 394 416 L396 418 L396 447 L554 447 L554 0 L391 0 L391 34 L388 36 Z M289 321 Q269 321 253 313.5 Q237 306 226 293 Q215 280 209 262.5 Q203 245 203 226 Q203 181 225 154 Q247 127 289 127 Q330 127 353 155 Q376 183 376 226 Q376 267 353 294 Q330 321 289 321 Z M312 516 Q277 516 251 528 Q225 540 208.5 560 Q192 580 183.5 606.5 Q175 633 175 662 L259 662 Q260 627 276.5 613.5 Q293 600 314 600 Q336 600 350.5 616.5 Q365 633 367 662 L450 662 Q449 636 441 610 Q433 584 416.5 563 Q400 542 374 529 Q348 516 312 516 Z " />
<glyph glyph-name="Aogonek" unicode="&#x104;" horiz-adv-x="688" d="M436 659 L681 0 L550 0 Q521 -28 500.5 -61 Q480 -94 480 -122 Q480 -149 498 -161 Q516 -173 544 -173 Q561 -173 581 -168 Q601 -163 620 -155 L642 -214 Q610 -233 569.5 -242.5 Q529 -252 495 -252 Q432 -252 404 -227 Q376 -202 376 -161 Q376 -144 382 -123 Q388 -102 401.5 -79.5 Q415 -57 436.5 -34 Q458 -11 489 10 L463 90 L219 90 L189 0 L7 0 L257 659 L436 659 Z M267 235 L416 235 L345 453 L341 453 L267 235 Z " />
<glyph glyph-name="aogonek" unicode="&#x105;" horiz-adv-x="603" d="M388 36 Q329 -9 247 -9 Q195 -9 154 7 Q113 23 85 52.5 Q57 82 42 124 Q27 166 27 217 Q27 266 42.5 310 Q58 354 88.5 387.5 Q119 421 163 440.5 Q207 460 264 460 Q299 460 333.5 449.5 Q368 439 394 416 L396 418 L396 447 L554 447 L554 0 L462 0 Q436 -26 419 -56 Q402 -86 402 -112 Q402 -139 420 -151 Q438 -163 466 -163 Q483 -163 503 -158 Q523 -153 542 -145 L564 -204 Q532 -223 491.5 -232.5 Q451 -242 417 -242 Q354 -242 326 -217 Q298 -192 298 -151 Q298 -120 319 -77 Q340 -34 391 6 L391 34 L388 36 Z M289 321 Q269 321 253 313.5 Q237 306 226 293 Q215 280 209 262.5 Q203 245 203 226 Q203 181 225 154 Q247 127 289 127 Q330 127 353 155 Q376 183 376 226 Q376 267 353 294 Q330 321 289 321 Z " />
<glyph glyph-name="Cacute" unicode="&#x106;" horiz-adv-x="652" d="M642 74 Q594 35 531 10.5 Q468 -14 392 -14 Q308 -14 242.5 12 Q177 38 132 84 Q87 130 63.5 192.5 Q40 255 40 327 Q40 396 64.5 458.5 Q89 521 134.5 569 Q180 617 246 645 Q312 673 396 673 Q438 673 472.5 666 Q507 659 535 647.5 Q563 636 584.5 622.5 Q606 609 623 597 L535 462 Q508 484 477 495 Q446 506 408 506 Q373 506 342 493.5 Q311 481 287.5 457.5 Q264 434 250.5 401 Q237 368 237 326 Q237 285 250 253 Q263 221 285 198.5 Q307 176 337 164 Q367 152 401 152 Q438 152 476 163 Q514 174 556 209 L642 74 Z M311 721 L395 866 L543 866 L414 721 L311 721 Z " />
<glyph glyph-name="cacute" unicode="&#x107;" horiz-adv-x="474" d="M281 461 Q337 461 378.5 445.5 Q420 430 452 406 L375 289 Q337 316 296 316 Q253 316 228 289.5 Q203 263 203 225 Q203 183 230 161 Q257 139 294 139 Q348 139 394 176 L467 55 Q455 44 436 32.5 Q417 21 393 11 Q369 1 339.5 -5.5 Q310 -12 276 -12 Q214 -12 167.5 5.5 Q121 23 89.5 53.5 Q58 84 42.5 126 Q27 168 27 218 Q27 273 45.5 318 Q64 363 98 395 Q132 427 178.5 444 Q225 461 281 461 Z M195 521 L275 658 L426 658 L296 521 L195 521 Z " />
<glyph glyph-name="Ccircumflex" unicode="&#x108;" horiz-adv-x="652" d="M642 74 Q594 35 531 10.5 Q468 -14 392 -14 Q308 -14 242.5 12 Q177 38 132 84 Q87 130 63.5 192.5 Q40 255 40 327 Q40 396 64.5 458.5 Q89 521 134.5 569 Q180 617 246 645 Q312 673 396 673 Q438 673 472.5 666 Q507 659 535 647.5 Q563 636 584.5 622.5 Q606 609 623 597 L535 462 Q508 484 477 495 Q446 506 408 506 Q373 506 342 493.5 Q311 481 287.5 457.5 Q264 434 250.5 401 Q237 368 237 326 Q237 285 250 253 Q263 221 285 198.5 Q307 176 337 164 Q367 152 401 152 Q438 152 476 163 Q514 174 556 209 L642 74 Z M439 870 L556 731 L435 731 L390 792 L341 731 L224 731 L346 870 L439 870 Z " />
<glyph glyph-name="ccircumflex" unicode="&#x109;" horiz-adv-x="474" d="M281 461 Q337 461 378.5 445.5 Q420 430 452 406 L375 289 Q337 316 296 316 Q253 316 228 289.5 Q203 263 203 225 Q203 183 230 161 Q257 139 294 139 Q348 139 394 176 L467 55 Q455 44 436 32.5 Q417 21 393 11 Q369 1 339.5 -5.5 Q310 -12 276 -12 Q214 -12 167.5 5.5 Q121 23 89.5 53.5 Q58 84 42.5 126 Q27 168 27 218 Q27 273 45.5 318 Q64 363 98 395 Q132 427 178.5 444 Q225 461 281 461 Z M319 660 L436 521 L315 521 L270 582 L221 521 L104 521 L226 660 L319 660 Z " />
<glyph glyph-name="Cdotaccent" unicode="&#x10a;" horiz-adv-x="652" d="M642 74 Q594 35 531 10.5 Q468 -14 392 -14 Q308 -14 242.5 12 Q177 38 132 84 Q87 130 63.5 192.5 Q40 255 40 327 Q40 396 64.5 458.5 Q89 521 134.5 569 Q180 617 246 645 Q312 673 396 673 Q438 673 472.5 666 Q507 659 535 647.5 Q563 636 584.5 622.5 Q606 609 623 597 L535 462 Q508 484 477 495 Q446 506 408 506 Q373 506 342 493.5 Q311 481 287.5 457.5 Q264 434 250.5 401 Q237 368 237 326 Q237 285 250 253 Q263 221 285 198.5 Q307 176 337 164 Q367 152 401 152 Q438 152 476 163 Q514 174 556 209 L642 74 Z M492 811 Q492 792 485.5 774.5 Q479 757 466.5 744 Q454 731 437 723.5 Q420 716 399 716 Q355 716 330.5 744 Q306 772 306 809 Q306 830 314 847 Q322 864 335 876.5 Q348 889 364.5 895.5 Q381 902 399 902 Q420 902 437 894.5 Q454 887 466 874.5 Q478 862 485 845.5 Q492 829 492 811 Z " />
<glyph glyph-name="cdotaccent" unicode="&#x10b;" horiz-adv-x="474" d="M281 461 Q337 461 378.5 445.5 Q420 430 452 406 L375 289 Q337 316 296 316 Q253 316 228 289.5 Q203 263 203 225 Q203 183 230 161 Q257 139 294 139 Q348 139 394 176 L467 55 Q455 44 436 32.5 Q417 21 393 11 Q369 1 339.5 -5.5 Q310 -12 276 -12 Q214 -12 167.5 5.5 Q121 23 89.5 53.5 Q58 84 42.5 126 Q27 168 27 218 Q27 273 45.5 318 Q64 363 98 395 Q132 427 178.5 444 Q225 461 281 461 Z M372 604 Q372 585 365.5 567.5 Q359 550 346.5 537 Q334 524 317 516.5 Q300 509 279 509 Q235 509 210.5 537 Q186 565 186 602 Q186 623 194 640 Q202 657 215 669.5 Q228 682 244.5 688.5 Q261 695 279 695 Q300 695 317 687.5 Q334 680 346 667.5 Q358 655 365 638.5 Q372 622 372 604 Z " />
<glyph glyph-name="Ccaron" unicode="&#x10c;" horiz-adv-x="652" d="M642 74 Q594 35 531 10.5 Q468 -14 392 -14 Q308 -14 242.5 12 Q177 38 132 84 Q87 130 63.5 192.5 Q40 255 40 327 Q40 396 64.5 458.5 Q89 521 134.5 569 Q180 617 246 645 Q312 673 396 673 Q438 673 472.5 666 Q507 659 535 647.5 Q563 636 584.5 622.5 Q606 609 623 597 L535 462 Q508 484 477 495 Q446 506 408 506 Q373 506 342 493.5 Q311 481 287.5 457.5 Q264 434 250.5 401 Q237 368 237 326 Q237 285 250 253 Q263 221 285 198.5 Q307 176 337 164 Q367 152 401 152 Q438 152 476 163 Q514 174 556 209 L642 74 Z M347 731 L227 870 L348 870 L393 809 L442 870 L559 870 L440 731 L347 731 Z " />
<glyph glyph-name="ccaron" unicode="&#x10d;" horiz-adv-x="474" d="M281 461 Q337 461 378.5 445.5 Q420 430 452 406 L375 289 Q337 316 296 316 Q253 316 228 289.5 Q203 263 203 225 Q203 183 230 161 Q257 139 294 139 Q348 139 394 176 L467 55 Q455 44 436 32.5 Q417 21 393 11 Q369 1 339.5 -5.5 Q310 -12 276 -12 Q214 -12 167.5 5.5 Q121 23 89.5 53.5 Q58 84 42.5 126 Q27 168 27 218 Q27 273 45.5 318 Q64 363 98 395 Q132 427 178.5 444 Q225 461 281 461 Z M228 524 L109 663 L230 663 L275 602 L324 663 L441 663 L321 524 L228 524 Z " />
<glyph glyph-name="Dcaron" unicode="&#x10e;" horiz-adv-x="696" d="M463 333 Q463 418 423.5 465 Q384 512 306 512 L253 512 L253 148 L283 148 Q324 148 357 157.5 Q390 167 413.5 188.5 Q437 210 450 245.5 Q463 281 463 333 Z M58 0 L58 659 L301 659 Q391 659 457.5 633 Q524 607 568 562.5 Q612 518 633.5 458.5 Q655 399 655 332 Q655 266 634 206 Q613 146 571 100.5 Q529 55 465.5 27.5 Q402 0 317 0 L58 0 Z M263 724 L143 863 L264 863 L309 802 L358 863 L475 863 L356 724 L263 724 Z " />
<glyph glyph-name="dcaron" unicode="&#x10f;" horiz-adv-x="759" d="M390 34 Q359 8 321 -1 Q283 -10 251 -10 Q197 -10 156 7 Q115 24 87.5 54 Q60 84 46 125.5 Q32 167 32 216 Q32 271 49 316 Q66 361 96.5 393 Q127 425 168.5 442.5 Q210 460 260 460 Q286 460 318 453.5 Q350 447 379 426 L384 429 Q384 464 384 491.5 Q384 519 384.5 544.5 Q385 570 385 597 Q385 624 385 659 L555 659 Q555 570 555 489.5 Q555 409 555.5 329.5 Q556 250 556 169.5 Q556 89 556 0 L392 0 L392 33 L390 34 Z M604 587 Q604 621 627 644 Q650 667 682 667 Q724 667 744 639.5 Q764 612 764 573 Q764 543 754.5 512 Q745 481 726.5 454.5 Q708 428 681.5 408.5 Q655 389 621 382 L597 434 Q630 445 650.5 467 Q671 489 679 516 L672 516 Q644 516 624 534 Q604 552 604 587 Z M377 226 Q377 265 355 294 Q333 323 289 323 Q251 323 227.5 294.5 Q204 266 204 224 Q204 179 227 153 Q250 127 290 127 Q328 127 352.5 155 Q377 183 377 226 Z " />
<glyph glyph-name="Dcroat" unicode="&#x110;" horiz-adv-x="696" d="M58 0 L58 290 L9 290 L9 378 L58 378 L58 659 L301 659 Q391 659 457.5 633 Q524 607 568 562.5 Q612 518 633.5 458.5 Q655 399 655 332 Q655 266 634 206 Q613 146 571 100.5 Q529 55 465.5 27.5 Q402 0 317 0 L58 0 Z M463 333 Q463 512 292 512 L253 512 L253 378 L362 378 L362 290 L253 290 L253 148 L293 148 Q379 148 421 195 Q463 242 463 333 Z " />
<glyph glyph-name="dcroat" unicode="&#x111;" horiz-adv-x="598" d="M386 34 Q355 8 317 -1 Q279 -10 247 -10 Q193 -10 152 7 Q111 24 83.5 54 Q56 84 42 125.5 Q28 167 28 216 Q28 271 45 316 Q62 361 92.5 393 Q123 425 164.5 442.5 Q206 460 256 460 Q282 460 314 453.5 Q346 447 375 426 L380 429 L380 519 L265 519 L265 593 L381 593 L381 659 L551 659 L551 593 L602 593 L602 519 L551 519 Q551 454 551 391 Q551 328 551.5 264.5 Q552 201 552 135.5 Q552 70 552 0 L388 0 L388 33 L386 34 Z M373 226 Q373 265 351 294 Q329 323 285 323 Q247 323 223.5 294.5 Q200 266 200 224 Q200 179 223 153 Q246 127 286 127 Q324 127 348.5 155 Q373 183 373 226 Z " />
<glyph glyph-name="Emacron" unicode="&#x112;" horiz-adv-x="527" d="M487 0 L58 0 L58 659 L480 659 L480 512 L254 512 L254 410 L474 410 L474 269 L254 269 L254 148 L487 148 L487 0 Z M104 849 L441 849 L441 745 L104 745 L104 849 Z " />
<glyph glyph-name="emacron" unicode="&#x113;" horiz-adv-x="523" d="M264 463 Q371 463 433 401.5 Q495 340 495 226 L495 200 L200 200 Q202 180 211 166 Q220 152 233 143 Q246 134 262.5 130 Q279 126 297 126 Q327 126 352.5 139 Q378 152 398 175 L484 69 Q472 55 452.5 41 Q433 27 407.5 15 Q382 3 350.5 -4.5 Q319 -12 283 -12 Q217 -12 168.5 7.5 Q120 27 88.5 60 Q57 93 42 136 Q27 179 27 226 Q27 275 43.5 318 Q60 361 90.5 393 Q121 425 165 444 Q209 463 264 463 Z M271 340 Q243 340 225.5 319.5 Q208 299 203 273 L337 273 Q332 304 316 322 Q300 340 271 340 Z M103 642 L436 642 L436 539 L103 539 L103 642 Z " />
<glyph glyph-name="Ebreve" unicode="&#x114;" horiz-adv-x="527" d="M487 0 L58 0 L58 659 L480 659 L480 512 L254 512 L254 410 L474 410 L474 269 L254 269 L254 148 L487 148 L487 0 Z M278 721 Q243 721 217 733 Q191 745 174.5 765 Q158 785 149.5 811.5 Q141 838 141 867 L225 867 Q226 832 242.5 818.5 Q259 805 280 805 Q302 805 316.5 821.5 Q331 838 333 867 L416 867 Q415 841 407 815 Q399 789 382.5 768 Q366 747 340 734 Q314 721 278 721 Z " />
<glyph glyph-name="ebreve" unicode="&#x115;" horiz-adv-x="523" d="M264 463 Q371 463 433 401.5 Q495 340 495 226 L495 200 L200 200 Q202 180 211 166 Q220 152 233 143 Q246 134 262.5 130 Q279 126 297 126 Q327 126 352.5 139 Q378 152 398 175 L484 69 Q472 55 452.5 41 Q433 27 407.5 15 Q382 3 350.5 -4.5 Q319 -12 283 -12 Q217 -12 168.5 7.5 Q120 27 88.5 60 Q57 93 42 136 Q27 179 27 226 Q27 275 43.5 318 Q60 361 90.5 393 Q121 425 165 444 Q209 463 264 463 Z M271 340 Q243 340 225.5 319.5 Q208 299 203 273 L337 273 Q332 304 316 322 Q300 340 271 340 Z M273 516 Q238 516 212 528 Q186 540 169.5 560 Q153 580 144.5 606.5 Q136 633 136 662 L220 662 Q221 627 237.5 613.5 Q254 600 275 600 Q297 600 311.5 616.5 Q326 633 328 662 L411 662 Q410 636 402 610 Q394 584 377.5 563 Q361 542 335 529 Q309 516 273 516 Z " />
<glyph glyph-name="Edotaccent" unicode="&#x116;" horiz-adv-x="527" d="M487 0 L58 0 L58 659 L480 659 L480 512 L254 512 L254 410 L474 410 L474 269 L254 269 L254 148 L487 148 L487 0 Z M368 804 Q368 785 361.5 767.5 Q355 750 342.5 737 Q330 724 313 716.5 Q296 709 275 709 Q231 709 206.5 737 Q182 765 182 802 Q182 823 190 840 Q198 857 211 869.5 Q224 882 240.5 888.5 Q257 895 275 895 Q296 895 313 887.5 Q330 880 342 867.5 Q354 855 361 838.5 Q368 822 368 804 Z " />
<glyph glyph-name="edotaccent" unicode="&#x117;" horiz-adv-x="523" d="M264 463 Q371 463 433 401.5 Q495 340 495 226 L495 200 L200 200 Q202 180 211 166 Q220 152 233 143 Q246 134 262.5 130 Q279 126 297 126 Q327 126 352.5 139 Q378 152 398 175 L484 69 Q472 55 452.5 41 Q433 27 407.5 15 Q382 3 350.5 -4.5 Q319 -12 283 -12 Q217 -12 168.5 7.5 Q120 27 88.5 60 Q57 93 42 136 Q27 179 27 226 Q27 275 43.5 318 Q60 361 90.5 393 Q121 425 165 444 Q209 463 264 463 Z M271 340 Q243 340 225.5 319.5 Q208 299 203 273 L337 273 Q332 304 316 322 Q300 340 271 340 Z M365 603 Q365 584 358.5 566.5 Q352 549 339.5 536 Q327 523 310 515.5 Q293 508 272 508 Q228 508 203.5 536 Q179 564 179 601 Q179 622 187 639 Q195 656 208 668.5 Q221 681 237.5 687.5 Q254 694 272 694 Q293 694 310 686.5 Q327 679 339 666.5 Q351 654 358 637.5 Q365 621 365 603 Z " />
<glyph glyph-name="Eogonek" unicode="&#x118;" horiz-adv-x="527" d="M487 0 L424 0 Q395 -27 375.5 -60 Q356 -93 356 -120 Q356 -147 374 -159 Q392 -171 420 -171 Q437 -171 457 -166 Q477 -161 496 -153 L518 -212 Q486 -231 445.5 -240.5 Q405 -250 371 -250 Q308 -250 280 -225 Q252 -200 252 -159 Q252 -128 273.5 -84 Q295 -40 348 0 L58 0 L58 659 L480 659 L480 512 L254 512 L254 410 L474 410 L474 269 L254 269 L254 148 L487 148 L487 0 Z " />
<glyph glyph-name="eogonek" unicode="&#x119;" horiz-adv-x="523" d="M264 463 Q371 463 433 401.5 Q495 340 495 226 L495 200 L200 200 Q202 180 211 166 Q220 152 233 143 Q246 134 262.5 130 Q279 126 297 126 Q327 126 352.5 139 Q378 152 398 175 L484 69 Q472 55 453 41.5 Q434 28 410 16 Q379 -12 357.5 -46 Q336 -80 336 -109 Q336 -136 354 -148 Q372 -160 400 -160 Q417 -160 437 -155 Q457 -150 476 -142 L498 -201 Q466 -220 425.5 -229.5 Q385 -239 351 -239 Q288 -239 260 -214 Q232 -189 232 -148 Q232 -121 247.5 -84.5 Q263 -48 301 -11 Q296 -12 292 -12 Q288 -12 283 -12 Q217 -12 168.5 7.5 Q120 27 88.5 60 Q57 93 42 136 Q27 179 27 226 Q27 275 43.5 318 Q60 361 90.5 393 Q121 425 165 444 Q209 463 264 463 Z M271 340 Q243 340 225.5 319.5 Q208 299 203 273 L337 273 Q332 304 316 322 Q300 340 271 340 Z " />
<glyph glyph-name="Ecaron" unicode="&#x11a;" horiz-adv-x="527" d="M487 0 L58 0 L58 659 L480 659 L480 512 L254 512 L254 410 L474 410 L474 269 L254 269 L254 148 L487 148 L487 0 Z M222 724 L102 863 L223 863 L268 802 L317 863 L434 863 L315 724 L222 724 Z " />
<glyph glyph-name="ecaron" unicode="&#x11b;" horiz-adv-x="523" d="M264 463 Q371 463 433 401.5 Q495 340 495 226 L495 200 L200 200 Q202 180 211 166 Q220 152 233 143 Q246 134 262.5 130 Q279 126 297 126 Q327 126 352.5 139 Q378 152 398 175 L484 69 Q472 55 452.5 41 Q433 27 407.5 15 Q382 3 350.5 -4.5 Q319 -12 283 -12 Q217 -12 168.5 7.5 Q120 27 88.5 60 Q57 93 42 136 Q27 179 27 226 Q27 275 43.5 318 Q60 361 90.5 393 Q121 425 165 444 Q209 463 264 463 Z M271 340 Q243 340 225.5 319.5 Q208 299 203 273 L337 273 Q332 304 316 322 Q300 340 271 340 Z M221 521 L102 660 L223 660 L268 599 L317 660 L434 660 L314 521 L221 521 Z " />
<glyph glyph-name="Gcircumflex" unicode="&#x11c;" horiz-adv-x="774" d="M425 391 L739 391 L739 320 Q739 251 716.5 190 Q694 129 650.5 84 Q607 39 544 12.5 Q481 -14 401 -14 Q318 -14 251 12.5 Q184 39 137 85.5 Q90 132 64.5 194.5 Q39 257 39 330 Q39 391 61.5 452 Q84 513 128.5 562 Q173 611 240 642 Q307 673 396 673 Q447 673 491 662.5 Q535 652 571 634 Q607 616 635.5 592.5 Q664 569 685 543 L554 437 Q534 466 497.5 486 Q461 506 410 506 Q372 506 339.5 493 Q307 480 284 456.5 Q261 433 248 400.5 Q235 368 235 330 Q235 290 247 257 Q259 224 281.5 201 Q304 178 336 165 Q368 152 407 152 Q466 152 504.5 176.5 Q543 201 557 250 L425 250 L425 391 Z M443 864 L560 725 L439 725 L394 786 L345 725 L228 725 L350 864 L443 864 Z " />
<glyph glyph-name="gcircumflex" unicode="&#x11d;" horiz-adv-x="602" d="M396 420 L396 447 L555 447 L555 67 Q555 13 543 -40.5 Q531 -94 499 -137.5 Q467 -181 409.5 -208 Q352 -235 262 -235 Q184 -235 128.5 -215.5 Q73 -196 22 -159 L97 -35 Q124 -56 163.5 -73 Q203 -90 246 -90 Q311 -90 346.5 -60 Q382 -30 382 20 L382 41 Q381 41 380.5 41.5 Q380 42 379 42 Q356 19 320 8 Q284 -3 251 -3 Q147 -3 87.5 56 Q28 115 28 220 Q28 270 44 313.5 Q60 357 90.5 389.5 Q121 422 164.5 441 Q208 460 263 460 Q295 460 329 451 Q363 442 393 418 L396 420 Z M370 226 Q370 271 347 295.5 Q324 320 285 320 Q245 320 221.5 294 Q198 268 198 226 Q198 187 220 159.5 Q242 132 283 132 Q326 132 348 160.5 Q370 189 370 226 Z M351 660 L468 521 L347 521 L302 582 L253 521 L136 521 L258 660 L351 660 Z " />
<glyph glyph-name="Gbreve" unicode="&#x11e;" horiz-adv-x="774" d="M425 391 L739 391 L739 320 Q739 251 716.5 190 Q694 129 650.5 84 Q607 39 544 12.5 Q481 -14 401 -14 Q318 -14 251 12.5 Q184 39 137 85.5 Q90 132 64.5 194.5 Q39 257 39 330 Q39 391 61.5 452 Q84 513 128.5 562 Q173 611 240 642 Q307 673 396 673 Q447 673 491 662.5 Q535 652 571 634 Q607 616 635.5 592.5 Q664 569 685 543 L554 437 Q534 466 497.5 486 Q461 506 410 506 Q372 506 339.5 493 Q307 480 284 456.5 Q261 433 248 400.5 Q235 368 235 330 Q235 290 247 257 Q259 224 281.5 201 Q304 178 336 165 Q368 152 407 152 Q466 152 504.5 176.5 Q543 201 557 250 L425 250 L425 391 Z M392 721 Q357 721 331 733 Q305 745 288.5 765 Q272 785 263.5 811.5 Q255 838 255 867 L339 867 Q340 832 356.5 818.5 Q373 805 394 805 Q416 805 430.5 821.5 Q445 838 447 867 L530 867 Q529 841 521 815 Q513 789 496.5 768 Q480 747 454 734 Q428 721 392 721 Z " />
<glyph glyph-name="gbreve" unicode="&#x11f;" horiz-adv-x="602" d="M396 420 L396 447 L555 447 L555 67 Q555 13 543 -40.5 Q531 -94 499 -137.5 Q467 -181 409.5 -208 Q352 -235 262 -235 Q184 -235 128.5 -215.5 Q73 -196 22 -159 L97 -35 Q124 -56 163.5 -73 Q203 -90 246 -90 Q311 -90 346.5 -60 Q382 -30 382 20 L382 41 Q381 41 380.5 41.5 Q380 42 379 42 Q356 19 320 8 Q284 -3 251 -3 Q147 -3 87.5 56 Q28 115 28 220 Q28 270 44 313.5 Q60 357 90.5 389.5 Q121 422 164.5 441 Q208 460 263 460 Q295 460 329 451 Q363 442 393 418 L396 420 Z M370 226 Q370 271 347 295.5 Q324 320 285 320 Q245 320 221.5 294 Q198 268 198 226 Q198 187 220 159.5 Q242 132 283 132 Q326 132 348 160.5 Q370 189 370 226 Z M301 516 Q266 516 240 528 Q214 540 197.5 560 Q181 580 172.5 606.5 Q164 633 164 662 L248 662 Q249 627 265.5 613.5 Q282 600 303 600 Q325 600 339.5 616.5 Q354 633 356 662 L439 662 Q438 636 430 610 Q422 584 405.5 563 Q389 542 363 529 Q337 516 301 516 Z " />
<glyph glyph-name="Gdotaccent" unicode="&#x120;" horiz-adv-x="774" d="M425 391 L739 391 L739 320 Q739 251 716.5 190 Q694 129 650.5 84 Q607 39 544 12.5 Q481 -14 401 -14 Q318 -14 251 12.5 Q184 39 137 85.5 Q90 132 64.5 194.5 Q39 257 39 330 Q39 391 61.5 452 Q84 513 128.5 562 Q173 611 240 642 Q307 673 396 673 Q447 673 491 662.5 Q535 652 571 634 Q607 616 635.5 592.5 Q664 569 685 543 L554 437 Q534 466 497.5 486 Q461 506 410 506 Q372 506 339.5 493 Q307 480 284 456.5 Q261 433 248 400.5 Q235 368 235 330 Q235 290 247 257 Q259 224 281.5 201 Q304 178 336 165 Q368 152 407 152 Q466 152 504.5 176.5 Q543 201 557 250 L425 250 L425 391 Z M499 811 Q499 792 492.5 774.5 Q486 757 473.5 744 Q461 731 444 723.5 Q427 716 406 716 Q362 716 337.5 744 Q313 772 313 809 Q313 830 321 847 Q329 864 342 876.5 Q355 889 371.5 895.5 Q388 902 406 902 Q427 902 444 894.5 Q461 887 473 874.5 Q485 862 492 845.5 Q499 829 499 811 Z " />
<glyph glyph-name="gdotaccent" unicode="&#x121;" horiz-adv-x="602" d="M396 420 L396 447 L555 447 L555 67 Q555 13 543 -40.5 Q531 -94 499 -137.5 Q467 -181 409.5 -208 Q352 -235 262 -235 Q184 -235 128.5 -215.5 Q73 -196 22 -159 L97 -35 Q124 -56 163.5 -73 Q203 -90 246 -90 Q311 -90 346.5 -60 Q382 -30 382 20 L382 41 Q381 41 380.5 41.5 Q380 42 379 42 Q356 19 320 8 Q284 -3 251 -3 Q147 -3 87.5 56 Q28 115 28 220 Q28 270 44 313.5 Q60 357 90.5 389.5 Q121 422 164.5 441 Q208 460 263 460 Q295 460 329 451 Q363 442 393 418 L396 420 Z M370 226 Q370 271 347 295.5 Q324 320 285 320 Q245 320 221.5 294 Q198 268 198 226 Q198 187 220 159.5 Q242 132 283 132 Q326 132 348 160.5 Q370 189 370 226 Z M395 602 Q395 583 388.5 565.5 Q382 548 369.5 535 Q357 522 340 514.5 Q323 507 302 507 Q258 507 233.5 535 Q209 563 209 600 Q209 621 217 638 Q225 655 238 667.5 Q251 680 267.5 686.5 Q284 693 302 693 Q323 693 340 685.5 Q357 678 369 665.5 Q381 653 388 636.5 Q395 620 395 602 Z " />
<glyph glyph-name="Gcommaaccent" unicode="&#x122;" horiz-adv-x="774" d="M425 391 L739 391 L739 320 Q739 251 716.5 190 Q694 129 650.5 84 Q607 39 544 12.5 Q481 -14 401 -14 Q318 -14 251 12.5 Q184 39 137 85.5 Q90 132 64.5 194.5 Q39 257 39 330 Q39 391 61.5 452 Q84 513 128.5 562 Q173 611 240 642 Q307 673 396 673 Q447 673 491 662.5 Q535 652 571 634 Q607 616 635.5 592.5 Q664 569 685 543 L554 437 Q534 466 497.5 486 Q461 506 410 506 Q372 506 339.5 493 Q307 480 284 456.5 Q261 433 248 400.5 Q235 368 235 330 Q235 290 247 257 Q259 224 281.5 201 Q304 178 336 165 Q368 152 407 152 Q466 152 504.5 176.5 Q543 201 557 250 L425 250 L425 391 Z M322 -132 Q322 -98 345 -75 Q368 -52 400 -52 Q442 -52 462 -79.5 Q482 -107 482 -146 Q482 -176 472.5 -207 Q463 -238 444.5 -264.5 Q426 -291 399.5 -310.5 Q373 -330 339 -337 L315 -285 Q348 -274 368.5 -252 Q389 -230 397 -203 L390 -203 Q362 -203 342 -185 Q322 -167 322 -132 Z " />
<glyph glyph-name="gcommaaccent" unicode="&#x123;" horiz-adv-x="602" d="M396 420 L396 447 L555 447 L555 67 Q555 13 543 -40.5 Q531 -94 499 -137.5 Q467 -181 409.5 -208 Q352 -235 262 -235 Q184 -235 128.5 -215.5 Q73 -196 22 -159 L97 -35 Q124 -56 163.5 -73 Q203 -90 246 -90 Q311 -90 346.5 -60 Q382 -30 382 20 L382 41 Q381 41 380.5 41.5 Q380 42 379 42 Q356 19 320 8 Q284 -3 251 -3 Q147 -3 87.5 56 Q28 115 28 220 Q28 270 44 313.5 Q60 357 90.5 389.5 Q121 422 164.5 441 Q208 460 263 460 Q295 460 329 451 Q363 442 393 418 L396 420 Z M378 587 Q378 553 355 530 Q332 507 300 507 Q258 507 238 534.5 Q218 562 218 601 Q218 631 227.5 662 Q237 693 255.5 719.5 Q274 746 300.5 765 Q327 784 361 792 L385 740 Q352 729 331.5 707 Q311 685 303 658 L310 658 Q338 658 358 640 Q378 622 378 587 Z M370 226 Q370 271 347 295.5 Q324 320 285 320 Q245 320 221.5 294 Q198 268 198 226 Q198 187 220 159.5 Q242 132 283 132 Q326 132 348 160.5 Q370 189 370 226 Z " />
<glyph glyph-name="Hcircumflex" unicode="&#x124;" horiz-adv-x="687" d="M426 0 L426 260 L254 260 L254 0 L58 0 L58 659 L254 659 L254 409 L426 409 L426 659 L623 659 L623 0 L426 0 Z M403 863 L520 724 L399 724 L354 785 L305 724 L188 724 L310 863 L403 863 Z " />
<glyph glyph-name="hcircumflex" unicode="&#x125;" horiz-adv-x="569" d="M343 0 L343 251 Q343 280 331 301 Q319 322 290 322 Q261 322 241.5 300 Q222 278 222 229 L222 0 L45 0 L45 659 L216 659 L216 400 Q217 400 217.5 399.5 Q218 399 219 399 Q251 435 286.5 447 Q322 459 357 459 Q435 459 477 415.5 Q519 372 519 292 L519 0 L343 0 Z M182 856 L299 717 L178 717 L133 778 L84 717 L-33 717 L89 856 L182 856 Z " />
<glyph glyph-name="Hbar" unicode="&#x126;" horiz-adv-x="687" d="M16 576 L58 576 L58 659 L254 659 L254 576 L426 576 L426 659 L623 659 L623 576 L672 576 L672 502 L623 502 L623 0 L426 0 L426 260 L254 260 L254 0 L58 0 L58 502 L16 502 L16 576 Z M426 409 L426 502 L254 502 L254 409 L426 409 Z " />
<glyph glyph-name="hbar" unicode="&#x127;" horiz-adv-x="568" d="M343 0 L343 251 Q343 277 329 299.5 Q315 322 290 322 Q261 322 241.5 300 Q222 278 222 229 L222 0 L45 0 L45 518 L3 518 L3 592 L45 592 L45 658 L216 658 L216 592 L342 592 L342 518 L216 518 L216 400 Q217 400 217.5 399.5 Q218 399 219 399 Q251 436 287 448.5 Q323 461 357 461 Q435 461 477 417 Q519 373 519 292 L519 0 L343 0 Z " />
<glyph glyph-name="Itilde" unicode="&#x128;" horiz-adv-x="319" d="M61 0 L61 659 L257 659 L257 0 L61 0 Z M-17 717 Q-16 744 -11 769.5 Q-6 795 6 815.5 Q18 836 37 848 Q56 860 84 860 Q104 860 123.5 851 Q143 842 160.5 831.5 Q178 821 194.5 812.5 Q211 804 225 804 Q241 804 247 821 Q253 838 256 857 L333 857 Q331 794 307.5 754.5 Q284 715 231 715 Q212 715 194 723.5 Q176 732 159 742.5 Q142 753 126 761.5 Q110 770 95 770 Q85 770 79 765 Q73 760 69 752.5 Q65 745 63 735.5 Q61 726 60 717 L-17 717 Z " />
<glyph glyph-name="itilde" unicode="&#x129;" horiz-adv-x="283" d="M-34 522 Q-33 549 -28 574.5 Q-23 600 -11 620.5 Q1 641 20 653 Q39 665 67 665 Q87 665 106.5 656 Q126 647 143.5 636.5 Q161 626 177.5 617.5 Q194 609 208 609 Q224 609 230 626 Q236 643 239 662 L316 662 Q314 599 290.5 559.5 Q267 520 214 520 Q195 520 177 528.5 Q159 537 142 547.5 Q125 558 109 566.5 Q93 575 78 575 Q68 575 62 570 Q56 565 52 557.5 Q48 550 46 540.5 Q44 531 43 522 L-34 522 Z M52 0 L52 446 L230 446 L230 0 L52 0 Z " />
<glyph glyph-name="Imacron" unicode="&#x12a;" horiz-adv-x="319" d="M61 0 L61 659 L257 659 L257 0 L61 0 Z M-6 848 L331 848 L331 744 L-6 744 L-6 848 Z " />
<glyph glyph-name="imacron" unicode="&#x12b;" horiz-adv-x="283" d="M-25 642 L308 642 L308 539 L-25 539 L-25 642 Z M52 0 L52 446 L230 446 L230 0 L52 0 Z " />
<glyph glyph-name="Ibreve" unicode="&#x12c;" horiz-adv-x="361" d="M81 0 L81 659 L277 659 L277 0 L81 0 Z M182 723 Q147 723 121 735 Q95 747 78.5 767 Q62 787 53.5 813.5 Q45 840 45 869 L129 869 Q130 834 146.5 820.5 Q163 807 184 807 Q206 807 220.5 823.5 Q235 840 237 869 L320 869 Q319 843 311 817 Q303 791 286.5 770 Q270 749 244 736 Q218 723 182 723 Z " />
<glyph glyph-name="ibreve" unicode="&#x12d;" horiz-adv-x="283" d="M144 516 Q109 516 83 528 Q57 540 40.5 560 Q24 580 15.5 606.5 Q7 633 7 662 L91 662 Q92 627 108.5 613.5 Q125 600 146 600 Q168 600 182.5 616.5 Q197 633 199 662 L282 662 Q281 636 273 610 Q265 584 248.5 563 Q232 542 206 529 Q180 516 144 516 Z M52 0 L52 446 L230 446 L230 0 L52 0 Z " />
<glyph glyph-name="Iogonek" unicode="&#x12e;" horiz-adv-x="319" d="M194 0 Q165 -28 145 -60.5 Q125 -93 125 -121 Q125 -148 143 -160 Q161 -172 189 -172 Q206 -172 226 -167 Q246 -162 265 -154 L287 -213 Q255 -232 214.5 -241.5 Q174 -251 140 -251 Q77 -251 49 -226 Q21 -201 21 -160 Q21 -128 42.5 -84.5 Q64 -41 118 0 L61 0 L61 659 L257 659 L257 0 L194 0 Z " />
<glyph glyph-name="iogonek" unicode="&#x12f;" horiz-adv-x="283" d="M171 0 Q142 -28 122 -60.5 Q102 -93 102 -121 Q102 -148 120 -160 Q138 -172 166 -172 Q183 -172 203 -167 Q223 -162 242 -154 L264 -213 Q232 -232 191.5 -241.5 Q151 -251 117 -251 Q54 -251 26 -226 Q-2 -201 -2 -160 Q-2 -128 19.5 -84.5 Q41 -41 95 0 L52 0 L52 446 L230 446 L230 0 L171 0 Z M236 606 Q236 567 210 538 Q184 509 140 509 Q95 509 70 537.5 Q45 566 45 604 Q45 626 53 643.5 Q61 661 74.5 673.5 Q88 686 105 693 Q122 700 140 700 Q183 700 209.5 672 Q236 644 236 606 Z " />
<glyph glyph-name="Idotaccent" unicode="&#x130;" horiz-adv-x="319" d="M61 0 L61 659 L257 659 L257 0 L61 0 Z M256 803 Q256 784 249.5 766.5 Q243 749 230.5 736 Q218 723 201 715.5 Q184 708 163 708 Q119 708 94.5 736 Q70 764 70 801 Q70 822 78 839 Q86 856 99 868.5 Q112 881 128.5 887.5 Q145 894 163 894 Q184 894 201 886.5 Q218 879 230 866.5 Q242 854 249 837.5 Q256 821 256 803 Z " />
<glyph glyph-name="IJ" unicode="&#x132;" horiz-adv-x="852" d="M61 0 L61 659 L257 659 L257 0 L61 0 Z M471 270 Q472 236 478 213.5 Q484 191 493.5 177.5 Q503 164 515 158 Q527 152 542 152 Q570 152 584.5 169 Q599 186 599 215 L599 659 L796 659 L796 239 Q796 189 783.5 143.5 Q771 98 742 63.5 Q713 29 665.5 8.5 Q618 -12 547 -12 Q481 -12 433.5 6.5 Q386 25 355 58 Q324 91 308.5 136 Q293 181 290 234 L471 270 Z " />
<glyph glyph-name="ij" unicode="&#x133;" horiz-adv-x="547" d="M50 0 L50 446 L228 446 L228 0 L50 0 Z M234 606 Q234 567 208 538 Q182 509 138 509 Q93 509 68 537.5 Q43 566 43 604 Q43 626 51 643.5 Q59 661 72.5 673.5 Q86 686 103 693 Q120 700 138 700 Q181 700 207.5 672 Q234 644 234 606 Z M193 -81 Q236 -81 261.5 -74.5 Q287 -68 300.5 -53 Q314 -38 318.5 -13 Q323 12 323 49 L323 446 L499 446 L499 31 Q499 -113 426.5 -176.5 Q354 -240 218 -236 L193 -81 Z M507 606 Q507 567 481 538 Q455 509 411 509 Q366 509 341 537.5 Q316 566 316 604 Q316 626 324 643.5 Q332 661 345.5 673.5 Q359 686 376 693 Q393 700 411 700 Q454 700 480.5 672 Q507 644 507 606 Z " />
<glyph glyph-name="Jcircumflex" unicode="&#x134;" horiz-adv-x="574" d="M191 271 Q192 237 198 214.5 Q204 192 213.5 178.5 Q223 165 235 159 Q247 153 262 153 Q290 153 304.5 170 Q319 187 319 216 L319 660 L516 660 L516 240 Q516 190 503.5 144.5 Q491 99 462 64.5 Q433 30 385.5 9.5 Q338 -11 267 -11 Q201 -11 153.5 7.5 Q106 26 75 59 Q44 92 28.5 137 Q13 182 10 235 L191 271 Z M467 863 L584 724 L463 724 L418 785 L369 724 L252 724 L374 863 L467 863 Z " />
<glyph glyph-name="jcircumflex" unicode="&#x135;" horiz-adv-x="279" d="M-78 -81 Q-35 -81 -9.5 -74.5 Q16 -68 29.5 -53 Q43 -38 47.5 -13 Q52 12 52 49 L52 446 L228 446 L228 31 Q228 -113 155.5 -176.5 Q83 -240 -53 -236 L-78 -81 Z M186 660 L303 521 L182 521 L137 582 L88 521 L-29 521 L93 660 L186 660 Z " />
<glyph glyph-name="Kcommaaccent" unicode="&#x136;" horiz-adv-x="678" d="M255 361 L452 659 L661 659 L438 341 L672 0 L456 0 L255 320 L255 0 L58 0 L58 659 L255 659 L255 361 Z M254 -117 Q254 -83 277 -60 Q300 -37 332 -37 Q374 -37 394 -64.5 Q414 -92 414 -131 Q414 -161 404.5 -192 Q395 -223 376.5 -249.5 Q358 -276 331.5 -295.5 Q305 -315 271 -322 L247 -270 Q280 -259 300.5 -237 Q321 -215 329 -188 L322 -188 Q294 -188 274 -170 Q254 -152 254 -117 Z " />
<glyph glyph-name="kcommaaccent" unicode="&#x137;" horiz-adv-x="559" d="M401 232 L554 0 L354 0 L229 213 L229 0 L46 0 L46 659 L229 659 L229 248 L351 446 L546 446 L401 232 Z M195 -121 Q195 -87 218 -64 Q241 -41 273 -41 Q315 -41 335 -68.5 Q355 -96 355 -135 Q355 -165 345.5 -196 Q336 -227 317.5 -253.5 Q299 -280 272.5 -299.5 Q246 -319 212 -326 L188 -274 Q221 -263 241.5 -241 Q262 -219 270 -192 L263 -192 Q235 -192 215 -174 Q195 -156 195 -121 Z " />
<glyph glyph-name="kgreenlandic" unicode="&#x138;" horiz-adv-x="559" d="M401 232 L554 0 L354 0 L229 213 L229 0 L46 0 L46 446 L229 446 L229 248 L351 446 L546 446 L401 232 Z " />
<glyph glyph-name="Lacute" unicode="&#x139;" horiz-adv-x="507" d="M255 659 L255 148 L497 148 L497 0 L59 0 L59 659 L255 659 Z M96 721 L180 866 L328 866 L199 721 L96 721 Z " />
<glyph glyph-name="lacute" unicode="&#x13a;" horiz-adv-x="275" d="M49 0 L49 659 L226 659 L226 0 L49 0 Z M86 710 L170 855 L318 855 L189 710 L86 710 Z " />
<glyph glyph-name="Lcommaaccent" unicode="&#x13b;" horiz-adv-x="507" d="M255 659 L255 148 L497 148 L497 0 L59 0 L59 659 L255 659 Z M208 -122 Q208 -88 231 -65 Q254 -42 286 -42 Q328 -42 348 -69.5 Q368 -97 368 -136 Q368 -166 358.5 -197 Q349 -228 330.5 -254.5 Q312 -281 285.5 -300.5 Q259 -320 225 -327 L201 -275 Q234 -264 254.5 -242 Q275 -220 283 -193 L276 -193 Q248 -193 228 -175 Q208 -157 208 -122 Z " />
<glyph glyph-name="lcommaaccent" unicode="&#x13c;" horiz-adv-x="275" d="M49 0 L49 659 L226 659 L226 0 L49 0 Z M60 -122 Q60 -88 83 -65 Q106 -42 138 -42 Q180 -42 200 -69.5 Q220 -97 220 -136 Q220 -166 210.5 -197 Q201 -228 182.5 -254.5 Q164 -281 137.5 -300.5 Q111 -320 77 -327 L53 -275 Q86 -264 106.5 -242 Q127 -220 135 -193 L128 -193 Q100 -193 80 -175 Q60 -157 60 -122 Z " />
<glyph glyph-name="Lcaron" unicode="&#x13d;" horiz-adv-x="507" d="M255 659 L255 148 L497 148 L497 0 L59 0 L59 659 L255 659 Z M355 592 Q355 626 378 649 Q401 672 433 672 Q475 672 495 644.5 Q515 617 515 578 Q515 548 505.5 517 Q496 486 477.5 459.5 Q459 433 432.5 413.5 Q406 394 372 387 L348 439 Q381 450 401.5 472 Q422 494 430 521 L423 521 Q395 521 375 539 Q355 557 355 592 Z " />
<glyph glyph-name="lcaron" unicode="&#x13e;" horiz-adv-x="443" d="M68 0 L68 659 L245 659 L245 0 L68 0 Z M288 588 Q288 622 311 645 Q334 668 366 668 Q408 668 428 640.5 Q448 613 448 574 Q448 544 438.5 513 Q429 482 410.5 455.5 Q392 429 365.5 409.5 Q339 390 305 383 L281 435 Q314 446 334.5 468 Q355 490 363 517 L356 517 Q328 517 308 535 Q288 553 288 588 Z " />
<glyph glyph-name="Ldot" unicode="&#x13f;" horiz-adv-x="507" d="M255 659 L255 148 L497 148 L497 0 L59 0 L59 659 L255 659 Z M508 365 Q508 346 501.5 328.5 Q495 311 482.5 298 Q470 285 453 277.5 Q436 270 415 270 Q371 270 346.5 298 Q322 326 322 363 Q322 384 330 401 Q338 418 351 430.5 Q364 443 380.5 449.5 Q397 456 415 456 Q436 456 453 448.5 Q470 441 482 428.5 Q494 416 501 399.5 Q508 383 508 365 Z " />
<glyph glyph-name="ldot" unicode="&#x140;" horiz-adv-x="463" d="M68 0 L68 659 L245 659 L245 0 L68 0 Z M465 364 Q465 345 458.5 327.5 Q452 310 439.5 297 Q427 284 410 276.5 Q393 269 372 269 Q328 269 303.5 297 Q279 325 279 362 Q279 383 287 400 Q295 417 308 429.5 Q321 442 337.5 448.5 Q354 455 372 455 Q393 455 410 447.5 Q427 440 439 427.5 Q451 415 458 398.5 Q465 382 465 364 Z " />
<glyph glyph-name="Lslash" unicode="&#x141;" horiz-adv-x="507" d="M255 659 L255 392 L347 426 L371 356 L255 314 L255 148 L497 148 L497 0 L59 0 L59 242 L13 226 L-11 296 L59 321 L59 659 L255 659 Z " />
<glyph glyph-name="lslash" unicode="&#x142;" horiz-adv-x="274" d="M49 0 L49 263 L6 248 L-18 318 L49 342 L49 659 L226 659 L226 407 L270 423 L294 353 L226 328 L226 0 L49 0 Z " />
<glyph glyph-name="Nacute" unicode="&#x143;" horiz-adv-x="721" d="M227 659 L462 336 L466 336 L466 659 L662 659 L662 0 L497 0 L258 328 L254 328 L254 0 L58 0 L58 659 L227 659 Z M282 720 L366 865 L514 865 L385 720 L282 720 Z " />
<glyph glyph-name="nacute" unicode="&#x144;" horiz-adv-x="572" d="M216 393 Q249 431 289.5 445.5 Q330 460 364 460 Q442 460 482 415.5 Q522 371 522 292 L522 0 L345 0 L345 251 Q345 280 332.5 301 Q320 322 293 322 Q264 322 244 300 Q224 278 224 229 L224 0 L48 0 L48 446 L213 446 L213 394 L216 393 Z M188 521 L268 658 L419 658 L289 521 L188 521 Z " />
<glyph glyph-name="Ncommaaccent" unicode="&#x145;" horiz-adv-x="721" d="M227 659 L462 336 L466 336 L466 659 L662 659 L662 0 L497 0 L258 328 L254 328 L254 0 L58 0 L58 659 L227 659 Z M301 -117 Q301 -83 324 -60 Q347 -37 379 -37 Q421 -37 441 -64.5 Q461 -92 461 -131 Q461 -161 451.5 -192 Q442 -223 423.5 -249.5 Q405 -276 378.5 -295.5 Q352 -315 318 -322 L294 -270 Q327 -259 347.5 -237 Q368 -215 376 -188 L369 -188 Q341 -188 321 -170 Q301 -152 301 -117 Z " />
<glyph glyph-name="ncommaaccent" unicode="&#x146;" horiz-adv-x="572" d="M216 393 Q249 431 289.5 445.5 Q330 460 364 460 Q442 460 482 415.5 Q522 371 522 292 L522 0 L345 0 L345 251 Q345 280 332.5 301 Q320 322 293 322 Q264 322 244 300 Q224 278 224 229 L224 0 L48 0 L48 446 L213 446 L213 394 L216 393 Z M206 -120 Q206 -86 229 -63 Q252 -40 284 -40 Q326 -40 346 -67.5 Q366 -95 366 -134 Q366 -164 356.5 -195 Q347 -226 328.5 -252.5 Q310 -279 283.5 -298.5 Q257 -318 223 -325 L199 -273 Q232 -262 252.5 -240 Q273 -218 281 -191 L274 -191 Q246 -191 226 -173 Q206 -155 206 -120 Z " />
<glyph glyph-name="Ncaron" unicode="&#x147;" horiz-adv-x="721" d="M227 659 L462 336 L466 336 L466 659 L662 659 L662 0 L497 0 L258 328 L254 328 L254 0 L58 0 L58 659 L227 659 Z M321 724 L201 863 L322 863 L367 802 L416 863 L533 863 L414 724 L321 724 Z " />
<glyph glyph-name="ncaron" unicode="&#x148;" horiz-adv-x="572" d="M216 393 Q249 431 289.5 445.5 Q330 460 364 460 Q442 460 482 415.5 Q522 371 522 292 L522 0 L345 0 L345 251 Q345 280 332.5 301 Q320 322 293 322 Q264 322 244 300 Q224 278 224 229 L224 0 L48 0 L48 446 L213 446 L213 394 L216 393 Z M222 521 L103 660 L224 660 L269 599 L318 660 L435 660 L315 521 L222 521 Z " />
<glyph glyph-name="napostrophe" unicode="&#x149;" horiz-adv-x="649" d="M293 393 Q326 431 366.5 445.5 Q407 460 441 460 Q519 460 559 415.5 Q599 371 599 292 L599 0 L422 0 L422 251 Q422 280 409.5 301 Q397 322 370 322 Q341 322 321 300 Q301 278 301 229 L301 0 L125 0 L125 446 L290 446 L290 394 L293 393 Z M2 661 Q2 695 25 718 Q48 741 80 741 Q122 741 142 713.5 Q162 686 162 647 Q162 617 152.5 586 Q143 555 124.5 528.5 Q106 502 79.5 482.5 Q53 463 19 456 L-5 508 Q28 519 48.5 541 Q69 563 77 590 L70 590 Q42 590 22 608 Q2 626 2 661 Z " />
<glyph glyph-name="Eng" unicode="&#x14a;" horiz-adv-x="721" d="M227 659 L462 336 L466 336 L466 659 L662 659 L662 29 Q662 -47 641 -99.5 Q620 -152 581 -185.5 Q542 -219 487 -234 Q432 -249 365 -250 L343 -108 Q418 -102 445 -69 Q472 -36 472 21 L472 34 L258 328 L254 328 L254 0 L58 0 L58 659 L227 659 Z " />
<glyph glyph-name="eng" unicode="&#x14b;" horiz-adv-x="572" d="M216 393 Q249 431 289.5 445.5 Q330 460 364 460 Q442 460 482 415.5 Q522 371 522 292 L522 37 Q522 -37 502 -88.5 Q482 -140 445 -172 Q408 -204 356 -219 Q304 -234 240 -236 L219 -102 Q256 -99 280.5 -89.5 Q305 -80 319.5 -63.5 Q334 -47 339.5 -22.5 Q345 2 345 35 L345 251 Q345 280 332.5 301 Q320 322 293 322 Q264 322 244 300 Q224 278 224 229 L224 0 L48 0 L48 446 L213 446 L213 394 L216 393 Z " />
<glyph glyph-name="Omacron" unicode="&#x14c;" horiz-adv-x="805" d="M401 -12 Q318 -12 251 14 Q184 40 137 86 Q90 132 64.5 194.5 Q39 257 39 330 Q39 402 66 464.5 Q93 527 141 573.5 Q189 620 256 646.5 Q323 673 403 673 Q484 673 551 646.5 Q618 620 665 573.5 Q712 527 738 464.5 Q764 402 764 330 Q764 257 737.5 194.5 Q711 132 663 86 Q615 40 548 14 Q481 -12 401 -12 Z M404 513 Q366 513 334.5 498.5 Q303 484 281 459.5 Q259 435 247 401.5 Q235 368 235 330 Q235 290 247 255.5 Q259 221 281 196 Q303 171 334.5 157 Q366 143 404 143 Q443 143 473.5 157.5 Q504 172 526 197 Q548 222 559.5 256.5 Q571 291 571 330 Q571 368 559.5 401.5 Q548 435 526.5 459.5 Q505 484 474 498.5 Q443 513 404 513 Z M233 849 L570 849 L570 745 L233 745 L233 849 Z " />
<glyph glyph-name="omacron" unicode="&#x14d;" horiz-adv-x="572" d="M287 461 Q348 461 396 443 Q444 425 477 393.5 Q510 362 527.5 318.5 Q545 275 545 225 Q545 174 527 130.5 Q509 87 475 56 Q441 25 393.5 7.5 Q346 -10 287 -10 Q226 -10 178 7.5 Q130 25 96.5 56.5 Q63 88 45 131 Q27 174 27 225 Q27 275 45.5 318.5 Q64 362 98 393.5 Q132 425 180 443 Q228 461 287 461 Z M289 322 Q248 322 225.5 293.5 Q203 265 203 227 Q203 182 225 155 Q247 128 289 128 Q330 128 353 156 Q376 184 376 227 Q376 268 353 295 Q330 322 289 322 Z M122 642 L455 642 L455 539 L122 539 L122 642 Z " />
<glyph glyph-name="Obreve" unicode="&#x14e;" horiz-adv-x="805" d="M401 -12 Q318 -12 251 14 Q184 40 137 86 Q90 132 64.5 194.5 Q39 257 39 330 Q39 402 66 464.5 Q93 527 141 573.5 Q189 620 256 646.5 Q323 673 403 673 Q484 673 551 646.5 Q618 620 665 573.5 Q712 527 738 464.5 Q764 402 764 330 Q764 257 737.5 194.5 Q711 132 663 86 Q615 40 548 14 Q481 -12 401 -12 Z M404 513 Q366 513 334.5 498.5 Q303 484 281 459.5 Q259 435 247 401.5 Q235 368 235 330 Q235 290 247 255.5 Q259 221 281 196 Q303 171 334.5 157 Q366 143 404 143 Q443 143 473.5 157.5 Q504 172 526 197 Q548 222 559.5 256.5 Q571 291 571 330 Q571 368 559.5 401.5 Q548 435 526.5 459.5 Q505 484 474 498.5 Q443 513 404 513 Z M404 721 Q369 721 343 733 Q317 745 300.5 765 Q284 785 275.5 811.5 Q267 838 267 867 L351 867 Q352 832 368.5 818.5 Q385 805 406 805 Q428 805 442.5 821.5 Q457 838 459 867 L542 867 Q541 841 533 815 Q525 789 508.5 768 Q492 747 466 734 Q440 721 404 721 Z " />
<glyph glyph-name="obreve" unicode="&#x14f;" horiz-adv-x="572" d="M287 461 Q348 461 396 443 Q444 425 477 393.5 Q510 362 527.5 318.5 Q545 275 545 225 Q545 174 527 130.5 Q509 87 475 56 Q441 25 393.5 7.5 Q346 -10 287 -10 Q226 -10 178 7.5 Q130 25 96.5 56.5 Q63 88 45 131 Q27 174 27 225 Q27 275 45.5 318.5 Q64 362 98 393.5 Q132 425 180 443 Q228 461 287 461 Z M289 322 Q248 322 225.5 293.5 Q203 265 203 227 Q203 182 225 155 Q247 128 289 128 Q330 128 353 156 Q376 184 376 227 Q376 268 353 295 Q330 322 289 322 Z M288 516 Q253 516 227 528 Q201 540 184.5 560 Q168 580 159.5 606.5 Q151 633 151 662 L235 662 Q236 627 252.5 613.5 Q269 600 290 600 Q312 600 326.5 616.5 Q341 633 343 662 L426 662 Q425 636 417 610 Q409 584 392.5 563 Q376 542 350 529 Q324 516 288 516 Z " />
<glyph glyph-name="Ohungarumlaut" unicode="&#x150;" horiz-adv-x="805" d="M401 -12 Q318 -12 251 14 Q184 40 137 86 Q90 132 64.5 194.5 Q39 257 39 330 Q39 402 66 464.5 Q93 527 141 573.5 Q189 620 256 646.5 Q323 673 403 673 Q484 673 551 646.5 Q618 620 665 573.5 Q712 527 738 464.5 Q764 402 764 330 Q764 257 737.5 194.5 Q711 132 663 86 Q615 40 548 14 Q481 -12 401 -12 Z M404 513 Q366 513 334.5 498.5 Q303 484 281 459.5 Q259 435 247 401.5 Q235 368 235 330 Q235 290 247 255.5 Q259 221 281 196 Q303 171 334.5 157 Q366 143 404 143 Q443 143 473.5 157.5 Q504 172 526 197 Q548 222 559.5 256.5 Q571 291 571 330 Q571 368 559.5 401.5 Q548 435 526.5 459.5 Q505 484 474 498.5 Q443 513 404 513 Z M259 721 L343 866 L491 866 L362 721 L259 721 Z M431 721 L515 866 L663 866 L534 721 L431 721 Z " />
<glyph glyph-name="ohungarumlaut" unicode="&#x151;" horiz-adv-x="572" d="M287 461 Q348 461 396 443 Q444 425 477 393.5 Q510 362 527.5 318.5 Q545 275 545 225 Q545 174 527 130.5 Q509 87 475 56 Q441 25 393.5 7.5 Q346 -10 287 -10 Q226 -10 178 7.5 Q130 25 96.5 56.5 Q63 88 45 131 Q27 174 27 225 Q27 275 45.5 318.5 Q64 362 98 393.5 Q132 425 180 443 Q228 461 287 461 Z M289 322 Q248 322 225.5 293.5 Q203 265 203 227 Q203 182 225 155 Q247 128 289 128 Q330 128 353 156 Q376 184 376 227 Q376 268 353 295 Q330 322 289 322 Z M136 521 L216 658 L367 658 L237 521 L136 521 Z M304 521 L384 658 L535 658 L405 521 L304 521 Z " />
<glyph glyph-name="Racute" unicode="&#x154;" horiz-adv-x="647" d="M326 209 L254 209 L254 0 L58 0 L58 659 L333 659 Q400 659 449 640 Q498 621 530 589.5 Q562 558 577.5 518 Q593 478 593 435 Q593 379 567 330 Q541 281 496 252 L631 0 L425 0 L326 209 Z M402 433 Q402 464 380.5 488 Q359 512 311 512 L253 512 L253 354 L314 354 Q338 354 354.5 361 Q371 368 381.5 379 Q392 390 397 404.5 Q402 419 402 433 Z M233 721 L317 866 L465 866 L336 721 L233 721 Z " />
<glyph glyph-name="racute" unicode="&#x155;" horiz-adv-x="413" d="M209 385 Q229 424 261.5 441.5 Q294 459 332 459 Q370 459 404 445 L404 286 Q387 295 365.5 301 Q344 307 323 307 Q281 307 252.5 278 Q224 249 224 187 L224 0 L48 0 L48 446 L207 446 L207 385 L209 385 Z M100 521 L180 658 L331 658 L201 521 L100 521 Z " />
<glyph glyph-name="Rcommaaccent" unicode="&#x156;" horiz-adv-x="647" d="M326 209 L254 209 L254 0 L58 0 L58 659 L333 659 Q400 659 449 640 Q498 621 530 589.5 Q562 558 577.5 518 Q593 478 593 435 Q593 379 567 330 Q541 281 496 252 L631 0 L425 0 L326 209 Z M245 -116 Q245 -82 268 -59 Q291 -36 323 -36 Q365 -36 385 -63.5 Q405 -91 405 -130 Q405 -160 395.5 -191 Q386 -222 367.5 -248.5 Q349 -275 322.5 -294.5 Q296 -314 262 -321 L238 -269 Q271 -258 291.5 -236 Q312 -214 320 -187 L313 -187 Q285 -187 265 -169 Q245 -151 245 -116 Z M402 433 Q402 464 380.5 488 Q359 512 311 512 L253 512 L253 354 L314 354 Q338 354 354.5 361 Q371 368 381.5 379 Q392 390 397 404.5 Q402 419 402 433 Z " />
<glyph glyph-name="rcommaaccent" unicode="&#x157;" horiz-adv-x="413" d="M209 385 Q229 424 261.5 441.5 Q294 459 332 459 Q370 459 404 445 L404 286 Q387 295 365.5 301 Q344 307 323 307 Q281 307 252.5 278 Q224 249 224 187 L224 0 L48 0 L48 446 L207 446 L207 385 L209 385 Z M58 -122 Q58 -88 81 -65 Q104 -42 136 -42 Q178 -42 198 -69.5 Q218 -97 218 -136 Q218 -166 208.5 -197 Q199 -228 180.5 -254.5 Q162 -281 135.5 -300.5 Q109 -320 75 -327 L51 -275 Q84 -264 104.5 -242 Q125 -220 133 -193 L126 -193 Q98 -193 78 -175 Q58 -157 58 -122 Z " />
<glyph glyph-name="Rcaron" unicode="&#x158;" horiz-adv-x="647" d="M326 209 L254 209 L254 0 L58 0 L58 659 L333 659 Q400 659 449 640 Q498 621 530 589.5 Q562 558 577.5 518 Q593 478 593 435 Q593 379 567 330 Q541 281 496 252 L631 0 L425 0 L326 209 Z M402 433 Q402 464 380.5 488 Q359 512 311 512 L253 512 L253 354 L314 354 Q338 354 354.5 361 Q371 368 381.5 379 Q392 390 397 404.5 Q402 419 402 433 Z M264 724 L144 863 L265 863 L310 802 L359 863 L476 863 L357 724 L264 724 Z " />
<glyph glyph-name="rcaron" unicode="&#x159;" horiz-adv-x="413" d="M209 385 Q229 424 261.5 441.5 Q294 459 332 459 Q370 459 404 445 L404 286 Q387 295 365.5 301 Q344 307 323 307 Q281 307 252.5 278 Q224 249 224 187 L224 0 L48 0 L48 446 L207 446 L207 385 L209 385 Z M147 521 L28 660 L149 660 L194 599 L243 660 L360 660 L240 521 L147 521 Z " />
<glyph glyph-name="Sacute" unicode="&#x15a;" horiz-adv-x="579" d="M443 468 Q401 494 365 506.5 Q329 519 292 519 Q263 519 248 505.5 Q233 492 233 475 Q233 457 247.5 444 Q262 431 305 419 Q363 403 408 385.5 Q453 368 484 343.5 Q515 319 531 284 Q547 249 547 198 Q547 155 529.5 116.5 Q512 78 478.5 49 Q445 20 396 3 Q347 -14 284 -14 Q213 -14 139.5 9.5 Q66 33 2 95 L92 223 Q108 208 130 193.5 Q152 179 176.5 167 Q201 155 227 147.5 Q253 140 278 140 Q319 140 338.5 155 Q358 170 358 193 Q358 208 350.5 218 Q343 228 330 235.5 Q317 243 300 248.5 Q283 254 264 259 Q222 271 181.5 287.5 Q141 304 110 329 Q79 354 60 388 Q41 422 41 469 Q41 513 57.5 551 Q74 589 105 616.5 Q136 644 181.5 660 Q227 676 284 676 Q328 676 365 668.5 Q402 661 432.5 649 Q463 637 487 622 Q511 607 530 592 L443 468 Z M210 720 L294 865 L442 865 L313 720 L210 720 Z " />
<glyph glyph-name="sacute" unicode="&#x15b;" horiz-adv-x="434" d="M213 461 Q242 461 290 450.5 Q338 440 392 404 L328 295 Q318 301 304.5 307.5 Q291 314 277 318.5 Q263 323 249 326 Q235 329 225 329 Q205 329 205 317 Q205 310 210.5 305 Q216 300 237 294 Q272 283 303 272 Q334 261 357 243.5 Q380 226 393.5 200 Q407 174 407 135 Q407 103 393 76 Q379 49 353.5 29.5 Q328 10 292 -1 Q256 -12 211 -12 Q166 -12 111.5 3 Q57 18 10 63 L85 170 Q107 150 139.5 134.5 Q172 119 209 119 Q239 119 239 136 Q239 145 232.5 150.5 Q226 156 196 166 Q169 175 140.5 186 Q112 197 88.5 213.5 Q65 230 50.5 254.5 Q36 279 36 316 Q36 346 48 372.5 Q60 399 83 418.5 Q106 438 139 449.5 Q172 461 213 461 Z M133 521 L213 658 L364 658 L234 521 L133 521 Z " />
<glyph glyph-name="Scircumflex" unicode="&#x15c;" horiz-adv-x="579" d="M443 468 Q401 494 365 506.5 Q329 519 292 519 Q263 519 248 505.5 Q233 492 233 475 Q233 457 247.5 444 Q262 431 305 419 Q363 403 408 385.5 Q453 368 484 343.5 Q515 319 531 284 Q547 249 547 198 Q547 155 529.5 116.5 Q512 78 478.5 49 Q445 20 396 3 Q347 -14 284 -14 Q213 -14 139.5 9.5 Q66 33 2 95 L92 223 Q108 208 130 193.5 Q152 179 176.5 167 Q201 155 227 147.5 Q253 140 278 140 Q319 140 338.5 155 Q358 170 358 193 Q358 208 350.5 218 Q343 228 330 235.5 Q317 243 300 248.5 Q283 254 264 259 Q222 271 181.5 287.5 Q141 304 110 329 Q79 354 60 388 Q41 422 41 469 Q41 513 57.5 551 Q74 589 105 616.5 Q136 644 181.5 660 Q227 676 284 676 Q328 676 365 668.5 Q402 661 432.5 649 Q463 637 487 622 Q511 607 530 592 L443 468 Z M349 865 L466 726 L345 726 L300 787 L251 726 L134 726 L256 865 L349 865 Z " />
<glyph glyph-name="scircumflex" unicode="&#x15d;" horiz-adv-x="434" d="M213 461 Q242 461 290 450.5 Q338 440 392 404 L328 295 Q318 301 304.5 307.5 Q291 314 277 318.5 Q263 323 249 326 Q235 329 225 329 Q205 329 205 317 Q205 310 210.5 305 Q216 300 237 294 Q272 283 303 272 Q334 261 357 243.5 Q380 226 393.5 200 Q407 174 407 135 Q407 103 393 76 Q379 49 353.5 29.5 Q328 10 292 -1 Q256 -12 211 -12 Q166 -12 111.5 3 Q57 18 10 63 L85 170 Q107 150 139.5 134.5 Q172 119 209 119 Q239 119 239 136 Q239 145 232.5 150.5 Q226 156 196 166 Q169 175 140.5 186 Q112 197 88.5 213.5 Q65 230 50.5 254.5 Q36 279 36 316 Q36 346 48 372.5 Q60 399 83 418.5 Q106 438 139 449.5 Q172 461 213 461 Z M270 660 L387 521 L266 521 L221 582 L172 521 L55 521 L177 660 L270 660 Z " />
<glyph glyph-name="Scedilla" unicode="&#x15e;" horiz-adv-x="579" d="M212 -100 L249 -12 Q185 -7 122 16.5 Q59 40 2 95 L92 223 Q108 208 130 193.5 Q152 179 176.5 167 Q201 155 227 147.5 Q253 140 278 140 Q319 140 338.5 155 Q358 170 358 193 Q358 208 350.5 218 Q343 228 330 235.5 Q317 243 300 248.5 Q283 254 264 259 Q222 271 181.5 287.5 Q141 304 110 329 Q79 354 60 388 Q41 422 41 469 Q41 513 57.5 551 Q74 589 105 616.5 Q136 644 181.5 660 Q227 676 284 676 Q328 676 365 668.5 Q402 661 432.5 649 Q463 637 487 622 Q511 607 530 592 L443 468 Q401 494 365 506.5 Q329 519 292 519 Q263 519 248 505.5 Q233 492 233 475 Q233 457 247.5 444 Q262 431 305 419 Q363 403 408 385.5 Q453 368 484 343.5 Q515 319 531 284 Q547 249 547 198 Q547 157 531.5 120 Q516 83 485.5 54.5 Q455 26 410 8 Q365 -10 307 -13 L291 -53 Q351 -57 378 -85.5 Q405 -114 405 -150 Q405 -180 393 -200.5 Q381 -221 360.5 -234 Q340 -247 314.5 -253 Q289 -259 262 -259 Q238 -259 215 -255 Q192 -251 172 -243 L192 -178 Q203 -182 219.5 -185.5 Q236 -189 253 -189 Q273 -189 290 -180 Q307 -171 307 -148 Q307 -129 293 -120.5 Q279 -112 264 -112 Q256 -112 250 -113 Q244 -114 239 -116 L212 -100 Z " />
<glyph glyph-name="scedilla" unicode="&#x15f;" horiz-adv-x="434" d="M125 -99 L163 -8 Q125 -3 85 13 Q45 29 10 63 L85 170 Q107 150 139.5 134.5 Q172 119 209 119 Q239 119 239 136 Q239 145 232.5 150.5 Q226 156 196 166 Q169 175 140.5 186 Q112 197 88.5 213.5 Q65 230 50.5 254.5 Q36 279 36 316 Q36 346 48 372.5 Q60 399 83 418.5 Q106 438 139 449.5 Q172 461 213 461 Q242 461 290 450.5 Q338 440 392 404 L328 295 Q318 301 304.5 307.5 Q291 314 277 318.5 Q263 323 249 326 Q235 329 225 329 Q205 329 205 317 Q205 310 210.5 305 Q216 300 237 294 Q272 283 303 272 Q334 261 357 243.5 Q380 226 393.5 200 Q407 174 407 135 Q407 104 394 77.5 Q381 51 356.5 31.5 Q332 12 297.5 0.5 Q263 -11 221 -12 L204 -52 Q264 -56 291 -84.5 Q318 -113 318 -149 Q318 -179 306 -199.5 Q294 -220 273.5 -233 Q253 -246 227.5 -252 Q202 -258 175 -258 Q151 -258 128 -254 Q105 -250 85 -242 L105 -177 Q116 -181 132.5 -184.5 Q149 -188 166 -188 Q186 -188 203 -179 Q220 -170 220 -147 Q220 -128 206 -119.5 Q192 -111 177 -111 Q169 -111 163 -112 Q157 -113 152 -115 L125 -99 Z " />
<glyph glyph-name="Tcommaaccent" unicode="&#x162;" horiz-adv-x="578" d="M211 -99 L252 0 L190 0 L190 512 L11 512 L11 660 L566 660 L566 512 L386 512 L386 0 L312 0 L290 -52 Q350 -56 377 -84.5 Q404 -113 404 -149 Q404 -179 392 -199.5 Q380 -220 359.5 -233 Q339 -246 313.5 -252 Q288 -258 261 -258 Q237 -258 214 -254 Q191 -250 171 -242 L191 -177 Q202 -181 218.5 -184.5 Q235 -188 252 -188 Q272 -188 289 -179 Q306 -170 306 -147 Q306 -128 292 -119.5 Q278 -111 263 -111 Q255 -111 249 -112 Q243 -113 238 -115 L211 -99 Z " />
<glyph glyph-name="tcommaaccent" unicode="&#x163;" horiz-adv-x="401" d="M115 -99 L158 4 Q79 41 79 159 L79 318 L13 318 L13 427 Q71 434 101 477.5 Q131 521 139 613 L254 613 L254 446 L369 446 L369 318 L254 318 L254 187 Q254 160 266 149.5 Q278 139 297 139 Q323 139 354 156 L401 34 Q378 19 337 3 Q296 -13 248 -13 Q229 -13 211 -10 L194 -52 Q254 -56 281 -84.5 Q308 -113 308 -149 Q308 -179 296 -199.5 Q284 -220 263.5 -233 Q243 -246 217.5 -252 Q192 -258 165 -258 Q141 -258 118 -254 Q95 -250 75 -242 L95 -177 Q106 -181 122.5 -184.5 Q139 -188 156 -188 Q176 -188 193 -179 Q210 -170 210 -147 Q210 -128 196 -119.5 Q182 -111 167 -111 Q159 -111 153 -112 Q147 -113 142 -115 L115 -99 Z " />
<glyph glyph-name="Tcaron" unicode="&#x164;" horiz-adv-x="578" d="M386 512 L386 0 L190 0 L190 512 L11 512 L11 660 L566 660 L566 512 L386 512 Z M245 724 L125 863 L246 863 L291 802 L340 863 L457 863 L338 724 L245 724 Z " />
<glyph glyph-name="tcaron" unicode="&#x165;" horiz-adv-x="401" d="M254 613 L254 446 L369 446 L369 318 L254 318 L254 187 Q254 160 266 149.5 Q278 139 297 139 Q323 139 354 156 L401 34 Q378 19 337 3 Q296 -13 248 -13 Q160 -13 119.5 30.5 Q79 74 79 159 L79 318 L13 318 L13 427 Q71 434 101 477.5 Q131 521 139 613 L254 613 Z M326 691 Q326 725 349 748 Q372 771 404 771 Q446 771 466 743.5 Q486 716 486 677 Q486 647 476.5 616 Q467 585 448.5 558.5 Q430 532 403.5 512.5 Q377 493 343 486 L319 538 Q352 549 372.5 571 Q393 593 401 620 L394 620 Q366 620 346 638 Q326 656 326 691 Z " />
<glyph glyph-name="Tbar" unicode="&#x166;" horiz-adv-x="578" d="M386 512 L386 365 L506 365 L506 289 L386 289 L386 0 L190 0 L190 289 L69 289 L69 365 L190 365 L190 512 L11 512 L11 660 L566 660 L566 512 L386 512 Z " />
<glyph glyph-name="tbar" unicode="&#x167;" horiz-adv-x="395" d="M254 613 L254 446 L369 446 L369 318 L254 318 L254 268 L346 268 L346 198 L254 198 L254 187 Q254 160 266 149.5 Q278 139 297 139 Q323 139 354 156 L401 34 Q378 19 337 3 Q296 -13 248 -13 Q160 -13 119.5 30.5 Q79 74 79 159 L79 198 L25 198 L25 268 L79 268 L79 318 L13 318 L13 427 Q71 434 101 477.5 Q131 521 139 613 L254 613 Z " />
<glyph glyph-name="Utilde" unicode="&#x168;" horiz-adv-x="714" d="M459 659 L655 659 L655 274 Q655 212 637 160 Q619 108 582 69.5 Q545 31 489 9.5 Q433 -12 357 -12 Q278 -12 221.5 9 Q165 30 128.5 67.5 Q92 105 75 156 Q58 207 58 268 L58 659 L255 659 L255 266 Q255 244 261 222.5 Q267 201 280 184.5 Q293 168 312 157.5 Q331 147 358 147 Q384 147 403 157 Q422 167 434.5 183 Q447 199 453 219 Q459 239 459 260 L459 659 Z M181 720 Q182 747 187 772.5 Q192 798 204 818.5 Q216 839 235 851 Q254 863 282 863 Q302 863 321.5 854 Q341 845 358.5 834.5 Q376 824 392.5 815.5 Q409 807 423 807 Q439 807 445 824 Q451 841 454 860 L531 860 Q529 797 505.5 757.5 Q482 718 429 718 Q410 718 392 726.5 Q374 735 357 745.5 Q340 756 324 764.5 Q308 773 293 773 Q283 773 277 768 Q271 763 267 755.5 Q263 748 261 738.5 Q259 729 258 720 L181 720 Z " />
<glyph glyph-name="utilde" unicode="&#x169;" horiz-adv-x="564" d="M339 52 Q308 16 272.5 4.5 Q237 -7 202 -7 Q48 -7 48 165 L48 446 L224 446 L224 191 Q224 168 237 147 Q250 126 276 126 Q305 126 321.5 148.5 Q338 171 338 216 L338 446 L515 446 L515 0 L342 0 L342 51 L339 52 Z M104 520 Q105 547 110 572.5 Q115 598 127 618.5 Q139 639 158 651 Q177 663 205 663 Q225 663 244.5 654 Q264 645 281.5 634.5 Q299 624 315.5 615.5 Q332 607 346 607 Q362 607 368 624 Q374 641 377 660 L454 660 Q452 597 428.5 557.5 Q405 518 352 518 Q333 518 315 526.5 Q297 535 280 545.5 Q263 556 247 564.5 Q231 573 216 573 Q206 573 200 568 Q194 563 190 555.5 Q186 548 184 538.5 Q182 529 181 520 L104 520 Z " />
<glyph glyph-name="Umacron" unicode="&#x16a;" horiz-adv-x="714" d="M459 659 L655 659 L655 274 Q655 212 637 160 Q619 108 582 69.5 Q545 31 489 9.5 Q433 -12 357 -12 Q278 -12 221.5 9 Q165 30 128.5 67.5 Q92 105 75 156 Q58 207 58 268 L58 659 L255 659 L255 266 Q255 244 261 222.5 Q267 201 280 184.5 Q293 168 312 157.5 Q331 147 358 147 Q384 147 403 157 Q422 167 434.5 183 Q447 199 453 219 Q459 239 459 260 L459 659 Z M191 848 L528 848 L528 744 L191 744 L191 848 Z " />
<glyph glyph-name="umacron" unicode="&#x16b;" horiz-adv-x="564" d="M339 52 Q308 16 272.5 4.5 Q237 -7 202 -7 Q48 -7 48 165 L48 446 L224 446 L224 191 Q224 168 237 147 Q250 126 276 126 Q305 126 321.5 148.5 Q338 171 338 216 L338 446 L515 446 L515 0 L342 0 L342 51 L339 52 Z M115 642 L448 642 L448 539 L115 539 L115 642 Z " />
<glyph glyph-name="Ubreve" unicode="&#x16c;" horiz-adv-x="714" d="M459 659 L655 659 L655 274 Q655 212 637 160 Q619 108 582 69.5 Q545 31 489 9.5 Q433 -12 357 -12 Q278 -12 221.5 9 Q165 30 128.5 67.5 Q92 105 75 156 Q58 207 58 268 L58 659 L255 659 L255 266 Q255 244 261 222.5 Q267 201 280 184.5 Q293 168 312 157.5 Q331 147 358 147 Q384 147 403 157 Q422 167 434.5 183 Q447 199 453 219 Q459 239 459 260 L459 659 Z M365 721 Q330 721 304 733 Q278 745 261.5 765 Q245 785 236.5 811.5 Q228 838 228 867 L312 867 Q313 832 329.5 818.5 Q346 805 367 805 Q389 805 403.5 821.5 Q418 838 420 867 L503 867 Q502 841 494 815 Q486 789 469.5 768 Q453 747 427 734 Q401 721 365 721 Z " />
<glyph glyph-name="ubreve" unicode="&#x16d;" horiz-adv-x="564" d="M339 52 Q308 16 272.5 4.5 Q237 -7 202 -7 Q48 -7 48 165 L48 446 L224 446 L224 191 Q224 168 237 147 Q250 126 276 126 Q305 126 321.5 148.5 Q338 171 338 216 L338 446 L515 446 L515 0 L342 0 L342 51 L339 52 Z M281 514 Q246 514 220 526 Q194 538 177.5 558 Q161 578 152.5 604.5 Q144 631 144 660 L228 660 Q229 625 245.5 611.5 Q262 598 283 598 Q305 598 319.5 614.5 Q334 631 336 660 L419 660 Q418 634 410 608 Q402 582 385.5 561 Q369 540 343 527 Q317 514 281 514 Z " />
<glyph glyph-name="Uring" unicode="&#x16e;" horiz-adv-x="714" d="M459 659 L655 659 L655 274 Q655 212 637 160 Q619 108 582 69.5 Q545 31 489 9.5 Q433 -12 357 -12 Q278 -12 221.5 9 Q165 30 128.5 67.5 Q92 105 75 156 Q58 207 58 268 L58 659 L255 659 L255 266 Q255 244 261 222.5 Q267 201 280 184.5 Q293 168 312 157.5 Q331 147 358 147 Q384 147 403 157 Q422 167 434.5 183 Q447 199 453 219 Q459 239 459 260 L459 659 Z M357 699 Q328 699 304 708.5 Q280 718 263 735 Q246 752 236 775 Q226 798 226 824 Q226 851 236 875 Q246 899 263.5 916.5 Q281 934 305 944.5 Q329 955 357 955 Q386 955 410.5 944.5 Q435 934 453 916.5 Q471 899 481 875 Q491 851 491 824 Q491 797 480.5 774.5 Q470 752 452 735 Q434 718 409.5 708.5 Q385 699 357 699 Z M357 874 Q339 874 326 859 Q313 844 313 824 Q313 806 325.5 793 Q338 780 357 780 Q377 780 390 793 Q403 806 403 824 Q403 844 390 859 Q377 874 357 874 Z " />
<glyph glyph-name="uring" unicode="&#x16f;" horiz-adv-x="564" d="M339 52 Q308 16 272.5 4.5 Q237 -7 202 -7 Q48 -7 48 165 L48 446 L224 446 L224 191 Q224 168 237 147 Q250 126 276 126 Q305 126 321.5 148.5 Q338 171 338 216 L338 446 L515 446 L515 0 L342 0 L342 51 L339 52 Z M278 496 Q249 496 225 505.5 Q201 515 184 532 Q167 549 157 572 Q147 595 147 621 Q147 648 157 672 Q167 696 184.5 713.5 Q202 731 226 741.5 Q250 752 278 752 Q307 752 331.5 741.5 Q356 731 374 713.5 Q392 696 402 672 Q412 648 412 621 Q412 594 401.5 571.5 Q391 549 373 532 Q355 515 330.5 505.5 Q306 496 278 496 Z M278 671 Q260 671 247 656 Q234 641 234 621 Q234 603 246.5 590 Q259 577 278 577 Q298 577 311 590 Q324 603 324 621 Q324 641 311 656 Q298 671 278 671 Z " />
<glyph glyph-name="Uhungarumlaut" unicode="&#x170;" horiz-adv-x="714" d="M459 659 L655 659 L655 274 Q655 212 637 160 Q619 108 582 69.5 Q545 31 489 9.5 Q433 -12 357 -12 Q278 -12 221.5 9 Q165 30 128.5 67.5 Q92 105 75 156 Q58 207 58 268 L58 659 L255 659 L255 266 Q255 244 261 222.5 Q267 201 280 184.5 Q293 168 312 157.5 Q331 147 358 147 Q384 147 403 157 Q422 167 434.5 183 Q447 199 453 219 Q459 239 459 260 L459 659 Z M215 721 L299 866 L447 866 L318 721 L215 721 Z M387 721 L471 866 L619 866 L490 721 L387 721 Z " />
<glyph glyph-name="uhungarumlaut" unicode="&#x171;" horiz-adv-x="564" d="M339 52 Q308 16 272.5 4.5 Q237 -7 202 -7 Q48 -7 48 165 L48 446 L224 446 L224 191 Q224 168 237 147 Q250 126 276 126 Q305 126 321.5 148.5 Q338 171 338 216 L338 446 L515 446 L515 0 L342 0 L342 51 L339 52 Z M124 521 L204 658 L355 658 L225 521 L124 521 Z M292 521 L372 658 L523 658 L393 521 L292 521 Z " />
<glyph glyph-name="Uogonek" unicode="&#x172;" horiz-adv-x="714" d="M459 659 L655 659 L655 274 Q655 217 639.5 168 Q624 119 592.5 81.5 Q561 44 513 20 Q465 -4 401 -10 Q374 -37 355.5 -68.5 Q337 -100 337 -126 Q337 -153 355 -165 Q373 -177 401 -177 Q418 -177 438 -172 Q458 -167 477 -159 L499 -218 Q467 -237 426.5 -246.5 Q386 -256 352 -256 Q289 -256 261 -231 Q233 -206 233 -165 Q233 -135 253 -92.5 Q273 -50 322 -10 Q253 -6 203 16.5 Q153 39 120.5 76 Q88 113 73 162 Q58 211 58 268 L58 659 L255 659 L255 266 Q255 244 261 222.5 Q267 201 280 184.5 Q293 168 312 157.5 Q331 147 358 147 Q384 147 403 157 Q422 167 434.5 183 Q447 199 453 219 Q459 239 459 260 L459 659 Z " />
<glyph glyph-name="uogonek" unicode="&#x173;" horiz-adv-x="564" d="M339 52 Q308 16 272.5 4.5 Q237 -7 202 -7 Q48 -7 48 165 L48 446 L224 446 L224 191 Q224 168 237 147 Q250 126 276 126 Q305 126 321.5 148.5 Q338 171 338 216 L338 446 L515 446 L515 0 L412 0 Q386 -26 368.5 -56.5 Q351 -87 351 -113 Q351 -140 369 -152 Q387 -164 415 -164 Q432 -164 452 -159 Q472 -154 491 -146 L513 -205 Q481 -224 440.5 -233.5 Q400 -243 366 -243 Q303 -243 275 -218 Q247 -193 247 -152 Q247 -121 268.5 -77.5 Q290 -34 342 6 L342 51 L339 52 Z " />
<glyph glyph-name="Wcircumflex" unicode="&#x174;" horiz-adv-x="998" d="M692 309 L797 659 L991 659 Q940 493 889 329.5 Q838 166 786 0 L600 0 L498 365 L396 0 L211 0 Q159 166 108 329.5 Q57 493 6 659 L202 659 L307 309 L311 309 L410 659 L589 659 L689 309 L692 309 Z M546 863 L663 724 L542 724 L497 785 L448 724 L331 724 L453 863 L546 863 Z " />
<glyph glyph-name="wcircumflex" unicode="&#x175;" horiz-adv-x="777" d="M536 217 L601 446 L778 446 L632 0 L455 0 L389 215 L324 0 L147 0 L-1 446 L179 446 L243 216 L247 216 L315 446 L464 446 L532 217 L536 217 Z M436 660 L553 521 L432 521 L387 582 L338 521 L221 521 L343 660 L436 660 Z " />
<glyph glyph-name="Ycircumflex" unicode="&#x176;" horiz-adv-x="648" d="M331 404 Q341 434 352.5 462.5 Q364 491 375 518 L431 659 L641 659 L422 244 L422 0 L226 0 L226 244 L6 659 L217 659 Q244 595 270.5 536 Q297 477 327 404 L331 404 Z M377 863 L494 724 L373 724 L328 785 L279 724 L162 724 L284 863 L377 863 Z " />
<glyph glyph-name="ycircumflex" unicode="&#x177;" horiz-adv-x="536" d="M128 -217 L210 0 L166 0 L8 446 L183 446 L229 291 Q232 283 236.5 267.5 Q241 252 246.5 235 Q252 218 256.5 202 Q261 186 264 177 L267 177 Q270 187 276 206 Q282 225 288.5 245.5 Q295 266 301 284.5 Q307 303 310 314 L349 446 L528 446 L293 -217 L128 -217 Z M312 660 L429 521 L308 521 L263 582 L214 521 L97 521 L219 660 L312 660 Z " />
<glyph glyph-name="Zacute" unicode="&#x179;" horiz-adv-x="584" d="M538 520 L259 147 L553 147 L553 0 L34 0 L34 139 L316 512 L46 512 L46 659 L538 659 L538 520 Z M224 721 L308 866 L456 866 L327 721 L224 721 Z " />
<glyph glyph-name="zacute" unicode="&#x17a;" horiz-adv-x="467" d="M425 322 L235 129 L435 129 L435 0 L32 0 L32 124 L220 316 L45 316 L45 446 L425 446 L425 322 Z M175 521 L255 658 L406 658 L276 521 L175 521 Z " />
<glyph glyph-name="Zdotaccent" unicode="&#x17b;" horiz-adv-x="584" d="M538 520 L259 147 L553 147 L553 0 L34 0 L34 139 L316 512 L46 512 L46 659 L538 659 L538 520 Z M392 805 Q392 786 385.5 768.5 Q379 751 366.5 738 Q354 725 337 717.5 Q320 710 299 710 Q255 710 230.5 738 Q206 766 206 803 Q206 824 214 841 Q222 858 235 870.5 Q248 883 264.5 889.5 Q281 896 299 896 Q320 896 337 888.5 Q354 881 366 868.5 Q378 856 385 839.5 Q392 823 392 805 Z " />
<glyph glyph-name="zdotaccent" unicode="&#x17c;" horiz-adv-x="467" d="M425 322 L235 129 L435 129 L435 0 L32 0 L32 124 L220 316 L45 316 L45 446 L425 446 L425 322 Z M332 599 Q332 580 325.5 562.5 Q319 545 306.5 532 Q294 519 277 511.5 Q260 504 239 504 Q195 504 170.5 532 Q146 560 146 597 Q146 618 154 635 Q162 652 175 664.5 Q188 677 204.5 683.5 Q221 690 239 690 Q260 690 277 682.5 Q294 675 306 662.5 Q318 650 325 633.5 Q332 617 332 599 Z " />
<glyph glyph-name="AEacute" unicode="&#x1fc;" horiz-adv-x="912" d="M445 110 L259 110 L198 0 L2 0 L400 659 L867 659 L867 512 L641 512 L641 409 L861 409 L861 268 L641 268 L641 148 L874 148 L874 0 L445 0 L445 110 Z M333 243 L445 243 L445 437 L441 437 L333 243 Z M494 721 L578 866 L726 866 L597 721 L494 721 Z " />
<glyph glyph-name="aeacute" unicode="&#x1fd;" horiz-adv-x="826" d="M575 463 Q626 463 667 447 Q708 431 737 401 Q766 371 782 327 Q798 283 798 226 L798 200 L503 200 Q505 180 514 166 Q523 152 536 143 Q549 134 565.5 130 Q582 126 600 126 Q630 126 655.5 139 Q681 152 701 175 L787 69 Q775 55 755.5 41 Q736 27 710.5 15 Q685 3 653.5 -4.5 Q622 -12 586 -12 Q519 -12 468 6.5 Q417 25 391 70 Q374 45 351 29 Q328 13 302 3.5 Q276 -6 249.5 -10 Q223 -14 198 -14 Q159 -14 127.5 -5 Q96 4 73 20.5 Q50 37 37.5 61 Q25 85 25 115 Q25 147 38 175 Q51 203 76 223.5 Q101 244 138.5 256 Q176 268 226 268 L309 268 L309 276 Q309 312 287 326 Q265 340 234 340 Q196 340 156.5 326 Q117 312 94 296 L48 402 Q109 437 163 449 Q217 461 252 461 Q306 461 348 446.5 Q390 432 412 396 Q444 429 485.5 446 Q527 463 575 463 Z M195 144 Q195 122 207.5 109.5 Q220 97 243 97 Q275 97 293.5 122 Q312 147 312 186 L312 199 L271 199 Q239 199 217 187 Q195 175 195 144 Z M574 340 Q546 340 528.5 319.5 Q511 299 506 273 L640 273 Q635 304 619 322 Q603 340 574 340 Z M347 521 L427 658 L578 658 L448 521 L347 521 Z " />
<glyph glyph-name="Oslashacute" unicode="&#x1fe;" horiz-adv-x="805" d="M356 725 L440 870 L588 870 L459 725 L356 725 Z M401 -12 Q291 -12 208 34 L181 0 L100 0 L156 69 Q99 116 69 183 Q39 250 39 330 Q39 402 66 464.5 Q93 527 141 573.5 Q189 620 256 646.5 Q323 673 403 673 Q460 673 509 659.5 Q558 646 600 622 L630 660 L710 660 L650 586 Q704 538 734 472.5 Q764 407 764 330 Q764 257 737.5 194.5 Q711 132 663 86 Q615 40 548 14 Q481 -12 401 -12 Z M404 513 Q366 513 334.5 498.5 Q303 484 281 459.5 Q259 435 247 401.5 Q235 368 235 330 Q235 295 244 265 Q253 235 270 211 L492 488 Q454 513 404 513 Z M571 330 Q571 395 538 445 L315 167 Q334 156 356 149.5 Q378 143 404 143 Q443 143 473.5 157.5 Q504 172 526 197 Q548 222 559.5 256.5 Q571 291 571 330 Z " />
<glyph glyph-name="Scommaaccent" unicode="&#x218;" horiz-adv-x="579" d="M443 468 Q401 494 365 506.5 Q329 519 292 519 Q263 519 248 505.5 Q233 492 233 475 Q233 457 247.5 444 Q262 431 305 419 Q363 403 408 385.5 Q453 368 484 343.5 Q515 319 531 284 Q547 249 547 198 Q547 155 529.5 116.5 Q512 78 478.5 49 Q445 20 396 3 Q347 -14 284 -14 Q213 -14 139.5 9.5 Q66 33 2 95 L92 223 Q108 208 130 193.5 Q152 179 176.5 167 Q201 155 227 147.5 Q253 140 278 140 Q319 140 338.5 155 Q358 170 358 193 Q358 208 350.5 218 Q343 228 330 235.5 Q317 243 300 248.5 Q283 254 264 259 Q222 271 181.5 287.5 Q141 304 110 329 Q79 354 60 388 Q41 422 41 469 Q41 513 57.5 551 Q74 589 105 616.5 Q136 644 181.5 660 Q227 676 284 676 Q328 676 365 668.5 Q402 661 432.5 649 Q463 637 487 622 Q511 607 530 592 L443 468 Z M195 -122 Q195 -88 218 -65 Q241 -42 273 -42 Q315 -42 335 -69.5 Q355 -97 355 -136 Q355 -166 345.5 -197 Q336 -228 317.5 -254.5 Q299 -281 272.5 -300.5 Q246 -320 212 -327 L188 -275 Q221 -264 241.5 -242 Q262 -220 270 -193 L263 -193 Q235 -193 215 -175 Q195 -157 195 -122 Z " />
<glyph glyph-name="scommaaccent" unicode="&#x219;" horiz-adv-x="434" d="M213 461 Q242 461 290 450.5 Q338 440 392 404 L328 295 Q318 301 304.5 307.5 Q291 314 277 318.5 Q263 323 249 326 Q235 329 225 329 Q205 329 205 317 Q205 310 210.5 305 Q216 300 237 294 Q272 283 303 272 Q334 261 357 243.5 Q380 226 393.5 200 Q407 174 407 135 Q407 103 393 76 Q379 49 353.5 29.5 Q328 10 292 -1 Q256 -12 211 -12 Q166 -12 111.5 3 Q57 18 10 63 L85 170 Q107 150 139.5 134.5 Q172 119 209 119 Q239 119 239 136 Q239 145 232.5 150.5 Q226 156 196 166 Q169 175 140.5 186 Q112 197 88.5 213.5 Q65 230 50.5 254.5 Q36 279 36 316 Q36 346 48 372.5 Q60 399 83 418.5 Q106 438 139 449.5 Q172 461 213 461 Z M132 -122 Q132 -88 155 -65 Q178 -42 210 -42 Q252 -42 272 -69.5 Q292 -97 292 -136 Q292 -166 282.5 -197 Q273 -228 254.5 -254.5 Q236 -281 209.5 -300.5 Q183 -320 149 -327 L125 -275 Q158 -264 178.5 -242 Q199 -220 207 -193 L200 -193 Q172 -193 152 -175 Q132 -157 132 -122 Z " />
<glyph glyph-name="uni021A" unicode="&#x21a;" horiz-adv-x="578" d="M386 512 L386 0 L190 0 L190 512 L11 512 L11 660 L566 660 L566 512 L386 512 Z M205 -118 Q205 -84 228 -61 Q251 -38 283 -38 Q325 -38 345 -65.5 Q365 -93 365 -132 Q365 -162 355.5 -193 Q346 -224 327.5 -250.5 Q309 -277 282.5 -296.5 Q256 -316 222 -323 L198 -271 Q231 -260 251.5 -238 Q272 -216 280 -189 L273 -189 Q245 -189 225 -171 Q205 -153 205 -118 Z " />
<glyph glyph-name="uni021B" unicode="&#x21b;" horiz-adv-x="401" d="M254 613 L254 446 L369 446 L369 318 L254 318 L254 187 Q254 160 266 149.5 Q278 139 297 139 Q323 139 354 156 L401 34 Q378 19 337 3 Q296 -13 248 -13 Q160 -13 119.5 30.5 Q79 74 79 159 L79 318 L13 318 L13 427 Q71 434 101 477.5 Q131 521 139 613 L254 613 Z M106 -122 Q106 -88 129 -65 Q152 -42 184 -42 Q226 -42 246 -69.5 Q266 -97 266 -136 Q266 -166 256.5 -197 Q247 -228 228.5 -254.5 Q210 -281 183.5 -300.5 Q157 -320 123 -327 L99 -275 Q132 -264 152.5 -242 Q173 -220 181 -193 L174 -193 Q146 -193 126 -175 Q106 -157 106 -122 Z " />
<glyph glyph-name="ordfeminine" unicode="&#xaa;" horiz-adv-x="392" d="M250 318 Q231 304 209.5 298.5 Q188 293 162 293 Q92 293 53.5 334 Q15 375 15 444 Q15 477 25.5 506 Q36 535 56 557.5 Q76 580 105.5 593 Q135 606 173 606 Q194 606 215.5 600 Q237 594 254 582 L255 583 L255 597 L367 597 L367 299 L251 299 L251 317 L250 318 Z M190 506 Q167 506 153 489.5 Q139 473 139 450 Q139 423 152 407 Q165 391 190 391 Q214 391 228 407.5 Q242 424 242 450 Q242 474 228 490 Q214 506 190 506 Z " />
<glyph glyph-name="oslashacute" unicode="&#x1ff;" horiz-adv-x="577" d="M234 521 L314 658 L465 658 L335 521 L234 521 Z M287 461 Q331 461 367.5 451.5 Q404 442 434 425 L452 446 L522 446 L476 394 Q545 328 545 225 Q545 174 527 130.5 Q509 87 475 56 Q441 25 393.5 7.5 Q346 -10 287 -10 Q210 -10 152 18 L136 0 L65 0 L106 48 Q68 80 47.5 125 Q27 170 27 225 Q27 275 45.5 318.5 Q64 362 98 393.5 Q132 425 180 443 Q228 461 287 461 Z M289 322 Q248 322 225.5 293.5 Q203 265 203 227 Q203 193 214 172 L334 310 Q324 315 313 318.5 Q302 322 289 322 Z M376 227 Q376 248 368 269 L252 134 Q268 128 289 128 Q330 128 353 156 Q376 184 376 227 Z " />
<glyph glyph-name="twosuperior" unicode="&#xb2;" horiz-adv-x="379" d="M19 707 Q23 713 34.5 727 Q46 741 66 755 Q86 769 116 780 Q146 791 187 791 Q220 791 248 783 Q276 775 297 760 Q318 745 330 722.5 Q342 700 342 672 Q342 630 313.5 598.5 Q285 567 229 535 Q205 521 184.5 509 Q164 497 158 480 L343 480 L343 388 L14 388 L14 407 Q14 442 23.5 469 Q33 496 48.5 517 Q64 538 85.5 554.5 Q107 571 131 585 Q156 600 173.5 610.5 Q191 621 201.5 630 Q212 639 216.5 647 Q221 655 221 665 Q221 677 210.5 687 Q200 697 176 697 Q151 697 129.5 681.5 Q108 666 94 648 L19 707 Z " />
<glyph glyph-name="threesuperior" unicode="&#xb3;" horiz-adv-x="379" d="M50 506 Q75 493 102 484.5 Q129 476 158 476 Q193 476 214 489.5 Q235 503 235 528 Q235 541 228.5 550 Q222 559 212.5 564.5 Q203 570 191 572.5 Q179 575 168 575 Q145 575 122 570 L94 622 L183 691 L40 691 L40 782 L341 782 L341 706 L253 634 Q268 631 285.5 623.5 Q303 616 317.5 602.5 Q332 589 342 569 Q352 549 352 521 Q352 491 339 465.5 Q326 440 301.5 421.5 Q277 403 242.5 392.5 Q208 382 165 382 Q110 382 72 396 Q34 410 11 424 L50 506 Z " />
<glyph glyph-name="onesuperior" unicode="&#xb9;" horiz-adv-x="365" d="M66 711 Q110 716 136.5 731.5 Q163 747 171 787 L267 787 L267 388 L140 388 L140 627 L66 627 L66 711 Z " />
<glyph glyph-name="ordmasculine" unicode="&#xba;" horiz-adv-x="393" d="M196 606 Q238 606 271 594 Q304 582 327.5 561 Q351 540 363 511 Q375 482 375 449 Q375 415 362.5 386.5 Q350 358 326.5 337 Q303 316 270 304.5 Q237 293 196 293 Q153 293 119.5 304.5 Q86 316 62.5 337 Q39 358 27 386.5 Q15 415 15 449 Q15 482 28 511 Q41 540 64.5 561 Q88 582 121.5 594 Q155 606 196 606 Z M196 506 Q173 506 159 489.5 Q145 473 145 451 Q145 424 158 407.5 Q171 391 196 391 Q222 391 236 408 Q250 425 250 451 Q250 474 236 490 Q222 506 196 506 Z " />
<glyph glyph-name="uni00A0" unicode="&#xa0;" horiz-adv-x="240" d="" />
<glyph glyph-name="afii10023" unicode="&#x401;" horiz-adv-x="527" d="M487 0 L58 0 L58 659 L480 659 L480 512 L254 512 L254 410 L474 410 L474 269 L254 269 L254 148 L487 148 L487 0 Z M240 796 Q240 765 219 741.5 Q198 718 164 718 Q129 718 108 741.5 Q87 765 87 794 Q87 829 111 850 Q135 871 164 871 Q197 871 218.5 848 Q240 825 240 796 Z M440 796 Q440 765 419.5 741.5 Q399 718 365 718 Q329 718 309 741.5 Q289 765 289 794 Q289 829 312.5 850 Q336 871 365 871 Q398 871 419 848 Q440 825 440 796 Z " />
<glyph glyph-name="afii10051" unicode="&#x402;" horiz-adv-x="847" d="M386 512 L386 380 Q465 409 547 409 Q602 409 650 394.5 Q698 380 734 350 Q770 320 790.5 274.5 Q811 229 811 168 Q811 111 793.5 61.5 Q776 12 745 -29 Q714 -70 673 -102.5 Q632 -135 586 -157 L497 -51 Q546 -25 578.5 21 Q611 67 611 131 Q611 197 578 234.5 Q545 272 484 272 Q463 272 437 267 Q411 262 386 252 L386 0 L190 0 L190 512 L11 512 L11 660 L586 660 L586 512 L386 512 Z " />
<glyph glyph-name="afii10052" unicode="&#x403;" horiz-adv-x="535" d="M210 721 L294 866 L442 866 L313 721 L210 721 Z M254 0 L58 0 L58 659 L490 659 L490 512 L254 512 L254 0 Z " />
<glyph glyph-name="afii10053" unicode="&#x404;" horiz-adv-x="652" d="M642 74 Q594 35 531 10.5 Q468 -14 392 -14 Q308 -14 242.5 12 Q177 38 132 84 Q87 130 63.5 192.5 Q40 255 40 327 Q40 396 64.5 458.5 Q89 521 134.5 569 Q180 617 246 645 Q312 673 396 673 Q438 673 472.5 666 Q507 659 535 647.5 Q563 636 584.5 622.5 Q606 609 623 597 L535 462 Q508 484 477 495 Q446 506 408 506 Q357 506 315.5 480.5 Q274 455 253 409 L479 409 L479 263 L252 263 Q262 209 304 180.5 Q346 152 401 152 Q438 152 476 163 Q514 174 556 209 L642 74 Z " />
<glyph glyph-name="afii10054" unicode="&#x405;" horiz-adv-x="579" d="M443 468 Q401 494 365 506.5 Q329 519 292 519 Q263 519 248 505.5 Q233 492 233 475 Q233 457 247.5 444 Q262 431 305 419 Q363 403 408 385.5 Q453 368 484 343.5 Q515 319 531 284 Q547 249 547 198 Q547 155 529.5 116.5 Q512 78 478.5 49 Q445 20 396 3 Q347 -14 284 -14 Q213 -14 139.5 9.5 Q66 33 2 95 L92 223 Q108 208 130 193.5 Q152 179 176.5 167 Q201 155 227 147.5 Q253 140 278 140 Q319 140 338.5 155 Q358 170 358 193 Q358 208 350.5 218 Q343 228 330 235.5 Q317 243 300 248.5 Q283 254 264 259 Q222 271 181.5 287.5 Q141 304 110 329 Q79 354 60 388 Q41 422 41 469 Q41 513 57.5 551 Q74 589 105 616.5 Q136 644 181.5 660 Q227 676 284 676 Q328 676 365 668.5 Q402 661 432.5 649 Q463 637 487 622 Q511 607 530 592 L443 468 Z " />
<glyph glyph-name="afii10055" unicode="&#x406;" horiz-adv-x="319" d="M61 0 L61 659 L257 659 L257 0 L61 0 Z " />
<glyph glyph-name="afii10056" unicode="&#x407;" horiz-adv-x="363" d="M82 0 L82 659 L278 659 L278 0 L82 0 Z M157 796 Q157 765 136 741.5 Q115 718 81 718 Q46 718 25 741.5 Q4 765 4 794 Q4 829 28 850 Q52 871 81 871 Q114 871 135.5 848 Q157 825 157 796 Z M357 796 Q357 765 336.5 741.5 Q316 718 282 718 Q246 718 226 741.5 Q206 765 206 794 Q206 829 229.5 850 Q253 871 282 871 Q315 871 336 848 Q357 825 357 796 Z " />
<glyph glyph-name="afii10057" unicode="&#x408;" horiz-adv-x="574" d="M191 270 Q192 236 198 213.5 Q204 191 213.5 177.5 Q223 164 235 158 Q247 152 262 152 Q290 152 304.5 169 Q319 186 319 215 L319 659 L516 659 L516 239 Q516 189 503.5 143.5 Q491 98 462 63.5 Q433 29 385.5 8.5 Q338 -12 267 -12 Q201 -12 153.5 6.5 Q106 25 75 58 Q44 91 28.5 136 Q13 181 10 234 L191 270 Z " />
</font>
</svg>
