<?xml version="1.0" standalone="no"?>
<!DOCTYPE svg PUBLIC "-//W3C//DTD SVG 1.1//EN" "http://www.w3.org/Graphics/SVG/1.1/DTD/svg11.dtd" >
<svg xmlns="http://www.w3.org/2000/svg" width="168" height="168.031" viewBox="0 0 168 168.031">
  <defs>
    <style>
      .cls-1 {
        fill: #b29972;
        fill-opacity: 0.15;
        fill-rule: evenodd;
      }
    </style>
  </defs>
  <path id="hero_image_tile.png_hero_image_tile.svg" data-name="hero_image_tile.png, hero_image_tile.svg" class="cls-1" d="M-8031,61.24H8352m-16383-1.3H8352M-8031,31.5H8352M-8031,89.806H8352M-8031,91.1H8352M-8031,113.5H8352M-8031,174.4H8352m-16383,22.5H8352M197.139-7988V8395M174.633-7988V8395m-60.9-16383V8395M91.334-7988V8395m-1.3-16383V8395M61.483-7988V8395m-1.3-16383V8395M31.728-7988V8395m142.9-8198.092V174.4h23.8v-1.3l-0.919,0H174.633V144.653h23.8v-1.3h-23.8V114.8h22.776l1.027,1.027V113.5h-23.8V91.1h23.8V89.75h-1.3v0.056H174.362L145.8,61.24h52.639v-1.3h-1.3v0.005h-51.33L174.254,31.5h24.182V30.2h-25.1V30.58L144.885,59.031V30.2h-1.3V59.031l-28.559-28.56V30.2h-84.6v84.6H30.7l28.559,28.559H30.431v1.3H59.263L30.81,173.105H30.431v25.1h1.277V184.25h0.02V174.023l28.457-28.457v52.639h1.3V145.578l28.554,28.553v24.074h1.3V174.4h22.4v22.5h-0.023v1.3h1.323l0-1.028V174.4h28.559v23.8h1.3V174.4h28.451v22.882h0v0.919h1.3v-1.3Zm-59.6-83.408V90.724l28.559-28.56V113.5H115.028Zm28.017,1.3-28.017,28.017V114.8h28.017ZM91.334,31.5h22.884l28.446,28.445H91.334V31.5Zm-1.3,0V59.207L62.327,31.5H90.036Zm-58.308,0H59.267L31.728,59.035V31.5Zm0,30.515L59.52,89.806H31.728V62.013Zm28.457,80.432L31.728,113.987V91.1H60.186v51.342Zm0.611-53.2L32.074,60.524,60.8,31.8,89.52,60.524Zm29.24-27.407V89.806H62.074ZM61.483,91.1H90.036v22.776L61.483,142.433V91.1Zm52.248,82H90.847L62.394,144.653h51.337v28.452Zm0-29.749H62.4L90.955,114.8h22.776v28.559Zm0-29.856h-22.4V91.1h22.4v22.4Zm0.379-23.694H91.334V61.24h51.341Zm0.918,83.3V145.516l27.59,27.589h-27.59Zm29.208-.216-28.725-28.724,28.725-28.724,28.725,28.724Zm29.1,0.216H145.854l27.482-27.481v27.481Zm0-30.4L145.427,114.8h27.909v27.909Zm0-29.206H144.885V62.164l28.451,28.452V113.5Z" transform="translate(-30.438 -30.188)"/>
</svg>
