<svg xmlns="http://www.w3.org/2000/svg" width="80" height="51" viewBox="0 0 80 51">
  <metadata><?xpacket begin="﻿" id="W5M0MpCehiHzreSzNTczkc9d"?>
<x:xmpmeta xmlns:x="adobe:ns:meta/" x:xmptk="Adobe XMP Core 5.6-c138 79.159824, 2016/09/14-01:09:01        ">
   <rdf:RDF xmlns:rdf="http://www.w3.org/1999/02/22-rdf-syntax-ns#">
      <rdf:Description rdf:about=""/>
   </rdf:RDF>
</x:xmpmeta>
                                                                                                    
                                                                                                    
                                                                                                    
                                                                                                    
                                                                                                    
                                                                                                    
                                                                                                    
                                                                                                    
                                                                                                    
                                                                                                    
                                                                                                    
                                                                                                    
                                                                                                    
                                                                                                    
                                                                                                    
                                                                                                    
                                                                                                    
                                                                                                    
                                                                                                    
                                                                                                    
                           
<?xpacket end="w"?></metadata>
<defs>
    <style>
      .cls-1 {
        fill: #b29974;
        fill-rule: evenodd;
      }
    </style>
  </defs>
  <path id="small_pattern" class="cls-1" d="M79.314,38.4h0L66.027,24.975l11.207-11.32,2.079-2.1,0.693-.7V10.343H65.787V-0.006H64.808V10.343H54.562V-0.006H53.582V10.631L40.531,23.814V-0.006H39.551v23.82L26.449,10.58V-0.006H25.469V10.343h-10.2V-0.006H14.295V10.343H0v0.514l0.692,0.7h0l13.286,13.42L0.689,38.4l0,0-0.692.7v0.634h14.3V51.014H65.787V39.727H80.006V39.094Zm-65.019.343H1.734L14.295,26.05V38.738Zm0-14.839L1.853,11.332H14.295V23.9Zm0.979-12.567H25.806l13.049,13.18H15.274V11.332Zm10.2,38.693h-10.2v-10.3h10.2v10.3Zm0.286-11.287H15.274V25.5H38.86Zm13.8,11.287h-13.1V39.439L39.551,26.2v23.82Zm14.031,0H40.531V26.2L53.582,39.387V50.025Zm11.225,0H54.562v-10.3H64.808v10.3Zm0-11.287H54.327L41.222,25.5H64.808V38.738Zm0-14.226H41.227l13.049-13.18H64.808v13.18Zm0.979-13.18H78.149L65.787,23.818V11.332Zm0,27.406V26.131l12.48,12.607H65.787Z"/>
</svg>
